<?xml version="1.0" standalone="no"?>
<!DOCTYPE svg PUBLIC "-//W3C//DTD SVG 20010904//EN"
 "http://www.w3.org/TR/2001/REC-SVG-20010904/DTD/svg10.dtd">
<svg version="1.0" xmlns="http://www.w3.org/2000/svg"
 width="915.000000pt" height="600.000000pt" viewBox="0 0 915.000000 600.000000"
 preserveAspectRatio="xMidYMid meet">
<metadata>
Created by potrace 1.15, written by Peter Selinger 2001-2017
</metadata>
<g transform="translate(0.000000,600.000000) scale(0.100000,-0.100000)"
fill="#000000" stroke="none">
<path d="M0 3000 l0 -3000 4550 0 4550 0 0 2918 c-1 2622 -2 2921 -17 2957 -8
22 -20 59 -26 83 l-12 42 -4522 0 -4523 0 0 -3000z m3665 2031 c33 0 1047 2
2252 4 l2193 4 27 -23 28 -24 3 -1989 c2 -1093 0 -2026 -3 -2072 -6 -70 -11
-88 -31 -108 l-24 -23 -1177 2 c-1188 3 -1248 5 -1228 37 3 5 28 17 55 26 28
9 69 34 93 57 23 22 63 50 89 64 26 13 53 33 61 44 13 19 33 35 163 130 26 19
69 54 96 77 26 24 62 49 78 58 16 8 34 24 40 35 6 11 30 32 53 46 23 15 51 37
62 50 11 14 41 39 67 57 72 49 159 116 198 152 19 17 52 42 73 54 20 13 37 27
37 32 0 5 20 22 44 37 45 29 125 105 213 203 41 46 52 66 61 115 15 77 2 154
-36 206 -75 104 -74 102 -69 144 6 54 30 89 91 128 28 18 91 72 139 120 49 47
92 86 97 86 5 0 29 18 54 39 25 21 69 47 98 56 29 10 89 40 133 66 65 39 87
59 118 107 32 51 37 66 37 119 0 54 -4 67 -43 124 -40 61 -46 65 -110 86 -64
21 -70 21 -119 7 -54 -17 -77 -37 -143 -124 -56 -74 -200 -216 -345 -340 -29
-25 -72 -63 -94 -85 -58 -55 -148 -115 -175 -115 -36 0 -102 39 -161 95 -61
57 -144 95 -210 95 -54 0 -142 -35 -193 -76 -23 -19 -55 -42 -71 -52 -16 -9
-51 -36 -78 -59 -27 -24 -52 -43 -57 -43 -4 0 -33 -21 -64 -47 -32 -27 -89
-73 -128 -103 -38 -30 -97 -79 -131 -107 -33 -29 -65 -53 -70 -53 -5 0 -24
-15 -42 -33 -18 -17 -53 -47 -77 -64 -24 -18 -69 -53 -99 -78 -30 -25 -82 -66
-115 -91 -33 -26 -78 -62 -100 -81 -98 -84 -159 -133 -166 -133 -8 0 -74 -83
-110 -137 -9 -13 -19 -46 -23 -71 -6 -44 -14 -62 -58 -124 -22 -30 -33 -102
-24 -160 10 -64 56 -118 422 -490 40 -41 42 -69 4 -79 -14 -4 -995 -7 -2180
-8 -2033 -1 -2157 0 -2190 17 -70 35 -65 -138 -68 2097 -1 1111 0 2030 3 2042
7 30 42 61 80 73 18 5 575 7 1360 4 732 -2 1357 -4 1390 -3z m2841 -2452 c48
-21 201 -168 327 -314 45 -53 47 -58 47 -117 l0 -61 -63 -61 c-35 -34 -89 -81
-121 -106 -31 -25 -78 -64 -104 -86 -26 -23 -60 -48 -77 -57 -16 -8 -50 -33
-75 -54 -25 -22 -61 -50 -80 -63 -19 -13 -41 -32 -48 -42 -7 -10 -30 -27 -50
-37 -20 -10 -46 -29 -57 -41 -11 -12 -45 -39 -75 -60 -31 -21 -62 -46 -70 -55
-8 -10 -43 -35 -77 -57 -35 -22 -63 -43 -63 -47 0 -4 -20 -20 -44 -35 -24 -15
-55 -39 -68 -53 -12 -14 -40 -34 -61 -44 -21 -11 -55 -35 -75 -53 -60 -54 -97
-69 -163 -64 -52 4 -62 8 -114 56 -31 29 -61 52 -66 52 -18 0 -91 75 -111 114
-11 23 -35 58 -54 78 -38 43 -52 108 -35 161 18 54 240 273 335 331 17 10 47
33 66 51 19 18 55 52 80 76 25 23 63 53 85 68 22 14 63 46 92 71 28 25 80 68
114 95 34 28 76 64 93 81 18 17 51 43 74 59 23 15 42 31 42 36 0 4 21 23 48
40 26 18 68 51 94 74 48 43 133 83 179 84 15 1 48 -9 75 -20z"/>
<path d="M3620 4934 c-22 -6 -449 -25 -755 -34 -179 -5 -282 -12 -305 -21 -27
-10 -161 -13 -596 -13 -460 -1 -564 -3 -577 -15 -23 -18 -21 -73 2 -102 l19
-24 419 2 c230 0 471 3 535 5 106 3 119 1 145 -18 15 -12 29 -32 31 -46 4 -34
-32 -75 -76 -88 -23 -6 -209 -10 -485 -10 l-448 0 -24 -25 c-30 -29 -33 -75
-6 -99 16 -15 64 -17 497 -19 511 -2 528 -4 540 -51 8 -34 -12 -65 -54 -83
-32 -13 -122 -15 -677 -14 -461 1 -649 -1 -673 -10 -31 -11 -62 -51 -62 -82 0
-8 9 -22 21 -33 20 -18 50 -19 708 -24 636 -5 689 -6 714 -23 27 -17 27 -19
27 -126 0 -90 -3 -110 -17 -123 -10 -9 -66 -29 -124 -45 -96 -28 -112 -29
-165 -20 -94 16 -128 15 -132 -6 -2 -10 4 -28 15 -39 10 -11 29 -41 43 -66 20
-38 34 -50 75 -66 28 -11 52 -22 54 -23 3 -2 -15 -23 -39 -48 l-43 -44 6 -63
c5 -58 -5 -215 -19 -313 -4 -32 -1 -47 20 -78 28 -40 33 -76 16 -108 -10 -18
-13 -18 -68 13 -31 17 -68 41 -82 54 -35 32 -73 44 -136 44 -94 0 -143 40
-106 89 35 48 67 63 144 71 87 8 169 50 148 76 -19 22 -107 44 -175 44 -48 0
-70 5 -96 23 -50 33 -58 78 -30 161 24 72 21 99 -12 120 -31 19 -149 29 -197
16 -63 -17 -71 -38 -64 -155 6 -98 6 -102 -19 -130 l-25 -30 -179 -3 c-204 -3
-218 -5 -234 -33 -14 -27 4 -73 34 -86 13 -6 75 -8 148 -5 124 4 126 4 143
-19 27 -39 20 -81 -22 -135 -51 -66 -136 -148 -202 -193 -68 -47 -140 -124
-140 -149 0 -10 8 -26 18 -35 20 -18 119 -57 146 -57 18 0 66 35 129 94 16 14
45 35 65 45 20 11 47 33 60 50 24 32 50 39 70 19 9 -9 12 -71 12 -217 0 -164
-3 -215 -17 -258 -14 -44 -15 -61 -6 -96 6 -23 10 -43 8 -45 -2 -2 -68 -6
-147 -9 -113 -4 -154 -2 -196 10 -55 17 -79 14 -99 -12 -17 -22 -16 -73 1 -97
13 -18 30 -19 253 -21 131 -1 251 -3 266 -3 33 0 77 -40 77 -70 0 -11 -15 -37
-34 -58 l-35 -37 -188 -1 c-103 -1 -194 -2 -200 -3 -7 -1 -21 -13 -30 -28 -15
-22 -18 -49 -18 -143 0 -63 -4 -138 -9 -165 -7 -43 -5 -54 11 -74 19 -23 23
-24 228 -27 258 -5 250 -1 242 -121 -7 -94 -22 -129 -71 -167 -63 -47 -96 -56
-221 -56 -111 0 -117 -1 -141 -26 -20 -19 -24 -31 -20 -52 15 -61 71 -77 243
-69 221 10 383 60 445 137 34 44 55 133 64 281 12 194 18 189 -237 189 -199 0
-200 0 -224 25 -20 19 -25 34 -25 74 0 79 6 81 246 81 266 0 246 -16 251 201
1 101 -1 174 -8 191 -11 28 -40 43 -100 53 l-35 7 -3 71 c-1 40 -3 182 -4 316
-2 213 0 245 14 254 27 17 86 -2 135 -43 25 -22 53 -40 62 -40 47 0 100 25
140 66 l42 44 19 -31 c38 -62 44 -120 39 -351 -5 -214 -5 -219 15 -233 12 -9
44 -15 73 -15 38 0 59 -6 85 -25 43 -31 74 -52 122 -82 26 -17 37 -30 37 -48
0 -42 -44 -56 -185 -58 -76 -1 -128 -6 -135 -13 -6 -6 -16 -29 -21 -50 -11
-49 -11 -464 0 -522 14 -73 22 -76 171 -73 145 2 204 15 252 56 26 22 39 26
76 23 27 -2 47 2 49 8 2 7 -28 13 -88 17 -103 8 -128 19 -153 70 -21 46 -20
63 4 87 18 18 33 20 175 20 144 0 156 -1 176 -21 26 -26 21 -63 -16 -117 -30
-44 -31 -66 -5 -115 28 -52 27 -105 -3 -116 -13 -5 -196 -8 -408 -8 -384 2
-384 2 -406 -20 -30 -29 -29 -58 3 -90 l25 -25 132 6 c73 3 250 9 393 12 319
8 304 14 304 -123 0 -49 3 -98 6 -111 10 -37 53 -52 149 -52 119 0 125 7 125
143 0 151 -19 142 299 141 141 0 326 -3 412 -5 143 -4 158 -2 178 15 27 24 27
67 1 91 -19 17 -48 19 -423 20 -221 1 -410 5 -420 9 -32 15 -31 52 2 106 17
28 31 58 31 67 0 9 -15 35 -34 58 -49 60 -54 87 -20 114 25 19 39 21 188 21
130 0 166 -3 184 -16 34 -24 28 -64 -18 -120 -22 -27 -40 -52 -40 -56 0 -5 15
-25 34 -45 l34 -37 108 -6 c133 -8 151 -5 172 28 15 23 17 60 17 305 l0 279
-28 24 c-27 23 -35 24 -160 24 -147 0 -180 10 -185 51 -4 32 8 42 76 63 28 10
70 33 92 51 29 24 54 36 88 40 92 11 155 25 169 37 11 9 13 23 8 52 -4 23 -9
132 -11 243 -4 159 -2 212 10 251 13 44 13 52 0 71 -12 17 -26 21 -67 21 -52
0 -144 19 -200 42 -42 17 -19 32 93 62 67 17 101 32 116 49 22 26 46 123 86
353 9 54 8 67 -8 100 -18 37 -21 39 -59 36 -89 -8 -774 -6 -823 2 -64 11 -92
-7 -92 -60 0 -33 36 -74 66 -74 29 0 94 -33 99 -50 8 -26 -23 -97 -53 -120
-37 -29 -56 -25 -112 25 -28 25 -55 45 -60 45 -5 0 -29 18 -55 40 -67 58 -170
86 -210 56 -18 -13 -18 -23 1 -108 5 -22 0 -33 -27 -57 -42 -39 -110 -71 -149
-71 -45 0 -62 34 -64 128 -2 129 36 166 173 168 119 1 280 35 303 64 34 42
-12 80 -117 95 -92 13 -109 38 -51 75 19 11 38 31 42 43 4 12 7 77 5 145 -1
67 0 136 4 152 13 61 4 60 660 60 582 0 595 0 615 20 29 29 25 66 -10 101
l-30 30 -583 -2 c-625 -2 -613 -3 -636 48 -16 36 -13 58 10 79 20 18 44 19
433 21 407 2 411 2 429 24 24 29 21 52 -9 88 l-26 31 -395 0 -395 0 -29 29
c-37 38 -39 82 -4 116 20 21 33 25 88 25 35 0 86 7 113 15 39 12 114 15 359
15 297 0 375 6 398 29 13 13 11 69 -4 87 -23 28 -153 60 -199 48z m81 -1520
c42 -38 9 -204 -48 -241 -14 -9 -61 -19 -111 -24 -129 -12 -142 -45 -43 -113
31 -20 41 -34 39 -49 -5 -36 -52 -50 -163 -51 -108 -1 -155 15 -155 52 0 22
32 53 77 76 69 35 153 182 153 269 1 78 50 110 163 103 48 -2 73 -9 88 -22z
m-811 -289 c17 -9 30 -24 30 -34 0 -10 -29 -46 -64 -78 -46 -44 -76 -63 -109
-72 -57 -14 -158 -13 -217 2 -37 10 -46 16 -48 38 -4 34 12 46 93 69 37 11 88
32 113 48 26 16 54 32 62 35 31 11 112 6 140 -8z m23 -348 c6 -19 6 -37 -2
-53 -10 -23 -15 -24 -107 -24 -106 0 -134 12 -134 56 0 42 35 55 139 52 94 -3
94 -3 104 -31z m683 8 c12 -18 14 -31 7 -52 -10 -28 -11 -28 -104 -31 -58 -2
-102 2 -116 9 -32 17 -36 47 -8 75 22 22 33 24 114 24 85 0 91 -1 107 -25z
m-658 -241 c26 -17 28 -36 7 -54 -19 -16 -163 -25 -249 -16 -67 8 -99 25 -90
51 9 22 33 28 139 35 115 8 161 4 193 -16z m690 0 c26 -17 28 -36 6 -55 -22
-18 -204 -25 -276 -10 -60 13 -77 31 -52 56 20 20 43 24 144 28 105 4 149 -1
178 -19z m-275 -200 c26 -9 50 -20 53 -25 12 -21 -163 -206 -228 -239 -87 -46
-194 -45 -231 2 -88 115 -125 152 -180 179 -53 27 -78 52 -64 65 26 26 95 33
343 34 213 0 269 -3 307 -16z m262 -34 c0 -17 -34 -24 -54 -11 -7 5 -10 14 -6
20 10 17 60 9 60 -9z m-705 -407 c23 -30 26 -85 5 -103 -10 -8 -61 -12 -160
-12 -99 0 -150 4 -160 12 -21 17 -19 73 4 101 18 23 24 24 155 26 135 2 136 2
156 -24z m690 7 c34 -34 43 -69 25 -96 -15 -24 -18 -24 -180 -24 -185 0 -202
6 -191 64 13 61 9 61 289 74 26 1 43 -4 57 -18z"/>
<path d="M7253 4920 c-99 -21 -136 -53 -173 -154 -27 -70 -59 -109 -119 -143
-25 -14 -59 -39 -76 -53 -16 -15 -46 -36 -65 -45 -19 -9 -51 -32 -70 -50 -62
-58 -172 -125 -205 -125 -36 0 -89 36 -186 125 -111 101 -144 120 -208 120
-48 0 -66 -6 -126 -42 -38 -23 -84 -53 -100 -66 -17 -14 -48 -35 -70 -48 -22
-12 -61 -42 -87 -66 -26 -24 -52 -43 -57 -43 -6 0 -72 -59 -148 -131 -76 -72
-154 -143 -173 -158 -19 -14 -96 -88 -171 -163 -75 -76 -141 -138 -147 -138
-5 0 -34 -24 -64 -52 -30 -29 -76 -71 -103 -93 -93 -78 -192 -181 -225 -233
-84 -135 -35 -268 185 -506 22 -24 52 -56 66 -72 14 -16 37 -38 50 -50 13 -11
36 -34 50 -50 76 -84 213 -197 258 -212 75 -26 162 -9 208 41 17 17 61 57 98
87 37 30 84 72 105 93 21 21 59 51 84 67 25 16 46 34 46 39 0 5 17 20 38 33
20 12 60 43 88 68 51 44 132 113 237 198 134 109 182 150 215 183 21 19 55 46
77 60 42 25 126 94 184 151 19 18 47 41 63 50 56 34 140 129 149 167 12 50 11
157 -1 222 -8 43 -18 61 -50 90 -38 35 -47 59 -34 93 7 17 88 80 154 118 25
14 95 74 155 133 61 59 119 113 130 121 11 7 60 18 107 23 48 6 97 15 108 21
20 11 56 58 93 124 44 76 -13 214 -103 250 -51 20 -133 27 -187 16z m-1026
-656 c74 -50 346 -312 369 -356 8 -15 14 -50 14 -79 0 -56 8 -46 -115 -148
-33 -27 -80 -69 -105 -91 -25 -23 -83 -71 -131 -108 -47 -37 -107 -85 -133
-107 -49 -41 -97 -81 -211 -175 -37 -30 -89 -76 -117 -102 -27 -27 -53 -48
-58 -48 -5 0 -59 -45 -122 -100 -141 -125 -211 -173 -248 -173 -18 0 -44 12
-69 34 -62 52 -371 360 -382 380 -13 24 -11 86 3 112 14 27 327 337 340 337 5
0 31 21 57 48 27 26 76 70 111 97 34 28 86 70 115 95 29 25 77 66 106 91 30
25 68 54 84 64 17 10 49 37 71 59 61 59 212 175 264 203 46 24 86 16 157 -33z"/>
<path d="M3383 1478 c2 -9 24 -13 62 -13 38 0 60 4 63 13 3 9 -14 12 -63 12
-49 0 -66 -3 -62 -12z"/>
</g>
</svg>
