<?xml version="1.0" standalone="no"?>
<!DOCTYPE svg PUBLIC "-//W3C//DTD SVG 20010904//EN"
 "http://www.w3.org/TR/2001/REC-SVG-20010904/DTD/svg10.dtd">
<svg version="1.0" xmlns="http://www.w3.org/2000/svg"
 width="886.000000pt" height="600.000000pt" viewBox="0 0 886.000000 600.000000"
 preserveAspectRatio="xMidYMid meet">
<metadata>
Created by potrace 1.15, written by Peter Selinger 2001-2017
</metadata>
<g transform="translate(0.000000,600.000000) scale(0.100000,-0.100000)"
fill="#000000" stroke="none">
<path d="M0 3000 l0 -3000 4430 0 4430 0 0 3000 0 3000 -4430 0 -4430 0 0
-3000z m1628 1940 c60 -18 57 -43 -8 -65 -30 -10 -57 -27 -67 -41 -14 -22 -14
-26 1 -49 9 -14 21 -25 26 -25 13 0 72 -130 66 -146 -3 -7 -17 -21 -31 -30
-23 -15 -51 -17 -213 -15 -285 3 -342 -16 -342 -112 0 -71 0 -71 179 -77 209
-7 197 5 193 -183 -5 -262 -17 -341 -61 -432 -28 -58 -40 -97 -44 -142 -3 -40
-13 -75 -26 -95 -12 -18 -36 -64 -55 -103 -23 -47 -44 -76 -64 -88 -17 -9 -33
-26 -37 -36 -3 -10 -27 -36 -53 -59 -39 -32 -50 -49 -59 -88 -14 -59 -2 -85
49 -103 18 -7 62 -26 98 -43 90 -41 116 -37 153 27 16 28 41 64 57 80 15 17
35 47 44 69 9 21 29 54 46 72 16 19 37 60 46 92 8 31 32 80 51 109 29 43 37
69 49 145 14 95 60 238 95 294 33 54 85 63 186 32 18 -5 42 -21 53 -35 19 -24
20 -40 20 -244 0 -128 -4 -229 -11 -245 -11 -31 -91 -122 -124 -141 -11 -7
-55 -12 -97 -13 -109 0 -137 -36 -83 -104 14 -17 36 -44 48 -59 29 -37 73 -46
171 -35 75 8 94 14 273 93 25 11 39 29 63 81 l30 67 0 282 c0 226 3 291 15
325 8 24 15 77 15 121 0 51 4 81 13 86 6 4 53 22 102 39 50 17 97 34 106 38
10 4 23 1 33 -9 14 -15 16 -64 16 -461 0 -492 2 -477 -66 -559 -31 -39 -35
-49 -29 -77 4 -18 8 -58 8 -88 3 -80 5 -80 -319 -80 -223 0 -279 3 -318 16
-62 21 -140 15 -169 -15 -30 -30 -36 -153 -12 -249 13 -57 16 -111 13 -313 -4
-342 2 -334 -255 -326 -93 3 -185 12 -223 21 -125 30 -212 -9 -214 -96 -1 -65
20 -105 63 -120 59 -20 266 -17 323 6 72 28 133 18 175 -28 l33 -36 0 -246 c0
-240 0 -246 -24 -287 -35 -61 -40 -109 -20 -173 9 -29 25 -61 36 -71 29 -26
98 -21 152 11 28 16 72 30 118 36 42 6 98 22 133 39 92 45 109 50 213 62 93
10 112 16 269 85 70 30 80 53 58 127 -27 93 -61 97 -234 27 -74 -30 -113 -40
-154 -40 -30 0 -77 -7 -105 -16 -62 -20 -97 -13 -116 25 -19 36 -25 396 -7
429 6 11 25 32 43 47 30 26 35 27 132 23 126 -4 188 -30 223 -93 40 -73 279
-306 339 -331 21 -9 53 -29 69 -45 17 -16 58 -40 92 -54 34 -13 78 -36 98 -49
19 -14 68 -32 108 -41 40 -9 92 -29 117 -45 50 -31 95 -45 185 -55 33 -4 114
-25 180 -47 104 -34 133 -40 219 -41 l98 -2 32 36 c17 20 54 48 82 62 28 14
54 33 58 42 16 42 -39 75 -124 75 -27 0 -76 8 -111 19 -115 34 -211 53 -306
61 -135 12 -243 70 -243 130 0 25 17 36 83 53 34 9 72 28 92 46 19 16 54 35
77 41 109 26 203 101 214 168 8 53 23 66 59 52 36 -14 197 -23 248 -15 48 9
77 50 77 113 0 115 -80 159 -200 112 -49 -19 -74 -20 -914 -20 -858 0 -863 0
-890 21 -46 36 -31 110 27 124 12 3 299 5 637 3 572 -3 618 -4 655 -21 84 -39
230 -14 260 44 26 50 19 79 -29 122 l-43 39 -737 -1 -736 -2 -26 26 c-30 30
-28 55 6 72 33 17 1324 19 1384 2 22 -6 56 -22 77 -36 37 -25 40 -25 65 -8 28
18 54 70 54 109 0 42 -22 77 -63 98 -38 19 -58 20 -764 18 l-724 -1 -29 30
c-34 34 -36 43 -14 66 15 14 94 16 843 14 l826 -2 19 37 c14 29 17 49 12 89
-4 29 -11 59 -16 67 -12 19 -100 17 -191 -5 -57 -14 -119 -16 -405 -13 -354 3
-384 7 -384 47 0 34 39 69 93 85 29 8 73 29 98 45 25 17 72 37 104 46 119 30
145 54 145 132 0 47 -38 117 -66 121 -11 2 -48 -11 -82 -28 -33 -16 -77 -30
-96 -30 -64 0 -66 13 -66 389 l0 329 24 29 c26 31 95 58 125 48 31 -9 43 -55
51 -186 7 -114 11 -133 43 -205 19 -43 39 -101 43 -128 5 -37 16 -60 44 -90
21 -23 47 -61 60 -85 12 -24 38 -60 58 -81 20 -21 70 -72 110 -114 40 -42 94
-87 120 -100 26 -13 56 -34 67 -46 11 -13 40 -31 64 -41 24 -11 57 -31 74 -45
37 -31 76 -27 152 16 28 15 61 31 75 35 58 17 74 58 45 115 -17 33 -48 52
-113 69 -23 7 -57 25 -76 41 -19 17 -59 41 -91 55 -31 14 -73 41 -93 61 -113
108 -171 168 -176 181 -9 22 19 80 48 98 14 9 60 26 102 37 43 10 99 30 126
44 29 15 87 30 146 39 98 15 122 28 122 65 0 21 -26 44 -65 57 -16 6 -55 27
-85 48 -50 33 -60 37 -107 33 -39 -3 -65 -14 -105 -41 -29 -20 -76 -44 -104
-52 -28 -8 -68 -28 -89 -45 -79 -63 -105 -32 -108 133 -2 103 0 118 19 144 24
32 45 35 363 49 150 6 177 10 193 26 25 25 23 36 -13 67 -17 14 -49 42 -72 62
-23 20 -51 39 -63 43 -29 9 -255 -9 -334 -27 -148 -34 -192 -40 -330 -48 -80
-4 -201 -11 -270 -14 -132 -8 -186 0 -204 28 -9 14 -2 26 39 68 28 28 65 58
83 65 26 12 139 15 615 15 320 1 592 5 604 10 47 17 54 143 10 174 -18 13 -92
15 -502 15 -361 0 -484 3 -493 12 -25 25 -14 56 28 79 53 30 60 58 26 107 -14
21 -26 41 -26 46 0 4 17 15 38 24 34 16 126 17 1122 20 597 2 1100 0 1117 -3
34 -6 57 -34 48 -58 -3 -7 -23 -23 -44 -35 -25 -14 -44 -35 -57 -64 -10 -24
-30 -59 -45 -78 -15 -19 -32 -51 -38 -70 -12 -37 -48 -80 -66 -80 -6 0 -28
-17 -49 -39 -20 -21 -55 -44 -76 -51 -21 -7 -60 -30 -86 -52 -25 -21 -57 -41
-70 -44 -36 -9 -124 -117 -124 -152 0 -35 55 -109 102 -136 18 -11 50 -34 71
-53 20 -18 41 -33 46 -33 5 0 23 -12 40 -26 29 -24 31 -30 31 -97 0 -54 6 -84
23 -122 33 -69 38 -97 27 -134 -9 -32 -108 -171 -122 -171 -4 0 -25 -26 -48
-57 -22 -32 -49 -70 -61 -84 -25 -32 -35 -119 -19 -177 8 -31 27 -59 62 -93
40 -39 49 -53 44 -72 -24 -95 -13 -232 21 -270 10 -10 40 -30 66 -43 32 -17
58 -40 78 -72 29 -44 30 -51 23 -107 -5 -33 -7 -96 -6 -140 1 -70 6 -89 39
-155 42 -83 125 -173 183 -197 19 -8 56 -28 83 -45 26 -17 66 -40 90 -52 48
-24 58 -55 33 -105 -9 -16 -16 -49 -16 -73 0 -63 -33 -172 -65 -214 -16 -21
-47 -44 -74 -56 -71 -30 -74 -32 -101 -80 -14 -24 -35 -57 -48 -73 -12 -15
-29 -51 -37 -79 -8 -28 -25 -69 -37 -92 -42 -80 2 -164 85 -164 58 0 104 32
139 95 15 27 40 61 56 75 17 14 40 49 53 78 21 51 49 75 74 65 7 -2 9 -38 7
-98 -7 -144 24 -195 119 -195 47 0 50 2 88 54 45 60 59 118 39 153 -7 12 -40
51 -72 88 l-59 66 28 28 c19 21 50 35 104 50 42 11 87 30 101 41 14 12 38 28
55 38 16 9 52 38 78 64 26 27 60 51 75 54 38 9 83 33 109 56 12 11 52 29 90
39 37 11 87 33 109 49 26 18 68 35 109 44 44 9 79 24 104 44 22 18 67 38 115
51 44 12 98 35 122 53 67 48 201 60 260 23 11 -7 46 -64 77 -127 44 -89 57
-127 62 -178 4 -36 13 -100 22 -143 25 -122 3 -147 -97 -112 -91 32 -144 16
-237 -72 l-63 -59 -1 -70 c-3 -118 0 -137 27 -162 19 -17 37 -22 77 -22 55 0
74 9 140 67 20 18 44 33 53 33 38 0 72 30 89 79 20 62 36 77 57 53 9 -9 21
-34 28 -55 30 -93 110 -77 165 33 32 63 30 141 -8 290 -19 74 -43 175 -52 224
-9 49 -29 115 -45 146 -16 31 -36 85 -45 120 -11 41 -28 77 -50 103 -20 23
-38 59 -45 89 -14 54 -42 91 -174 228 -92 95 -106 115 -106 159 0 23 9 37 35
58 26 21 40 42 52 83 8 30 31 87 49 125 29 60 36 89 48 205 7 74 21 153 30
175 9 21 21 68 26 104 23 161 62 223 159 256 59 19 123 74 187 157 58 76 68
106 60 174 -9 79 -89 229 -138 260 -21 14 -44 34 -50 45 -7 11 -31 30 -53 41
-22 11 -55 34 -73 49 -18 16 -52 38 -75 50 -23 12 -55 34 -72 49 -16 16 -55
38 -84 50 -30 12 -72 37 -92 55 -21 19 -55 39 -76 44 -22 6 -57 24 -79 41 -21
16 -67 39 -102 51 -34 11 -75 32 -91 45 -32 27 -64 40 -130 55 -25 5 -63 24
-84 40 -42 34 -70 45 -139 54 -26 3 -57 14 -70 24 -19 16 -20 21 -9 35 7 8 30
20 50 26 50 14 1590 13 1651 -1 25 -6 53 -17 62 -26 17 -15 18 -118 18 -2018
l0 -2002 -21 -19 c-21 -19 -96 -19 -3540 -22 -3511 -2 -3519 -2 -3539 18 -20
20 -20 31 -20 2025 l0 2006 25 25 26 26 337 -5 c229 -3 351 -8 380 -17z m1023
10 c63 -18 65 -28 20 -123 -22 -46 -47 -90 -56 -97 -9 -8 -28 -37 -42 -64 -14
-28 -42 -67 -62 -87 -20 -19 -46 -47 -58 -62 -32 -40 -85 -37 -141 8 -49 38
-103 51 -185 42 -75 -7 -99 2 -120 48 -11 22 -32 54 -48 70 -16 17 -38 57 -49
90 -13 39 -33 71 -55 92 -19 18 -35 36 -35 41 0 17 30 35 68 43 59 11 722 10
763 -1z m3329 -201 c25 -6 65 -23 90 -39 26 -17 77 -36 119 -45 51 -11 84 -24
109 -45 20 -16 64 -39 99 -51 34 -11 78 -33 98 -49 20 -16 61 -36 91 -45 30
-8 70 -29 89 -46 19 -17 58 -40 87 -51 29 -11 67 -34 83 -52 20 -22 49 -39 88
-50 31 -9 72 -30 90 -46 19 -16 56 -39 83 -50 27 -12 58 -30 69 -40 11 -10 45
-32 75 -48 44 -23 62 -41 88 -87 40 -67 38 -107 -8 -158 l-28 -32 -109 0
c-101 0 -111 2 -153 28 -25 16 -70 43 -100 62 -30 18 -68 43 -83 55 -15 12
-60 30 -99 40 -39 11 -90 32 -113 49 -24 17 -77 40 -121 52 -44 11 -90 31
-104 44 -35 32 -57 42 -123 54 -36 6 -74 22 -101 41 -24 18 -74 39 -115 50
-39 10 -93 32 -119 48 -26 17 -69 36 -97 43 -55 13 -98 32 -133 59 -12 10 -53
28 -91 39 -61 19 -73 26 -110 74 -22 30 -41 59 -41 66 0 19 47 106 65 121 9 8
35 17 58 21 52 9 307 1 367 -12z m-3836 -388 c59 -14 65 -25 38 -71 -29 -51
-28 -65 10 -112 48 -61 52 -60 -232 -59 -96 0 -183 0 -193 1 -28 0 -47 59 -47
145 0 63 3 78 21 96 21 21 27 22 193 16 94 -4 188 -11 210 -16z m3251 -55 c18
-8 41 -26 51 -41 17 -25 16 -27 -5 -48 -19 -19 -32 -22 -106 -22 -73 0 -87 3
-106 21 -26 27 -15 54 33 77 63 29 88 31 133 13z m634 -266 c31 -15 82 -33
115 -41 68 -15 209 -103 215 -134 2 -12 -8 -29 -26 -45 -37 -31 -49 -53 -57
-105 -6 -33 -3 -46 13 -67 40 -50 155 -44 201 11 14 17 56 51 95 76 82 54 125
59 151 19 36 -54 26 -181 -15 -204 -10 -5 -60 -12 -112 -16 -52 -4 -105 -12
-119 -19 -14 -7 -57 -44 -97 -82 -56 -53 -73 -77 -78 -107 -6 -31 -4 -42 13
-59 19 -19 32 -20 143 -19 123 2 149 -4 149 -35 0 -28 -75 -136 -110 -158 -34
-23 -81 -69 -175 -172 -46 -51 -47 -55 -43 -103 6 -60 27 -86 80 -101 74 -19
86 -11 294 202 73 75 95 104 109 147 10 31 27 59 40 68 27 18 32 28 54 114 13
53 20 65 36 65 33 0 49 -66 35 -145 -12 -72 -83 -215 -131 -265 -16 -17 -37
-55 -47 -84 -10 -29 -36 -73 -57 -98 -89 -101 -183 -191 -215 -208 -19 -10
-51 -31 -70 -46 -19 -15 -59 -37 -89 -48 -30 -11 -66 -32 -81 -46 -16 -15 -52
-33 -86 -41 -33 -9 -82 -31 -109 -50 -42 -28 -64 -36 -135 -44 -58 -8 -106
-21 -150 -42 -100 -48 -151 -45 -270 14 -131 65 -160 98 -160 187 0 60 12 93
47 135 40 47 73 126 73 174 0 53 -31 88 -86 97 -71 11 -82 15 -98 31 -23 22
-21 87 3 108 11 10 49 24 86 31 85 18 124 41 153 91 29 49 26 130 -5 172 -18
24 -28 27 -86 30 -56 2 -77 -2 -135 -27 -147 -65 -221 -49 -222 46 0 12 13 37
29 55 15 18 39 53 51 78 12 25 56 82 96 127 88 99 99 131 90 256 -7 104 0 122
52 137 40 11 163 13 200 4 35 -10 29 -48 -13 -74 -54 -33 -61 -94 -15 -117 78
-38 148 -65 172 -65 15 0 47 12 71 26 40 24 54 26 153 26 122 0 168 17 180 66
9 37 -13 101 -41 120 -45 29 -170 44 -270 32 -107 -13 -165 -6 -165 21 0 25
17 38 86 61 32 11 68 29 80 41 48 45 112 45 203 -1z m1008 -487 c20 -49 11
-129 -17 -157 -19 -19 -21 -19 -37 -3 -25 25 -31 139 -9 172 23 35 44 31 63
-12z m-129 -1205 c37 -37 -10 -126 -82 -158 -22 -10 -58 -31 -79 -48 -25 -20
-55 -33 -85 -38 -53 -8 -87 -23 -128 -57 -16 -13 -54 -32 -85 -40 -31 -9 -73
-30 -94 -47 -21 -16 -70 -39 -109 -51 -39 -12 -89 -34 -111 -50 -22 -16 -66
-37 -97 -48 -32 -11 -74 -32 -93 -46 -31 -25 -138 -65 -170 -65 -23 0 -45 30
-45 61 0 44 68 113 136 139 30 11 77 35 105 55 28 19 66 37 85 41 20 4 58 22
86 41 27 19 74 43 103 53 29 10 76 34 105 54 28 19 67 38 86 42 20 4 58 22 86
41 27 19 73 43 102 53 28 10 78 33 110 49 63 33 150 43 174 19z m-3725 -504
c27 -5 39 -13 43 -28 10 -43 -12 -74 -78 -106 -34 -17 -71 -39 -83 -50 -11
-11 -41 -26 -65 -35 -25 -9 -67 -27 -94 -40 -28 -14 -58 -25 -68 -25 -29 0
-113 59 -188 133 -76 73 -86 101 -50 137 19 19 33 20 283 20 144 0 279 -3 300
-6z"/>
<path d="M6556 1699 c-22 -5 -57 -26 -81 -48 -22 -21 -49 -42 -58 -47 -10 -6
-31 -46 -47 -89 -41 -109 -42 -110 -135 -96 -100 15 -187 14 -208 -1 -21 -16
-92 -154 -102 -198 -8 -38 32 -129 72 -160 46 -36 73 -27 141 48 34 37 82 87
106 112 24 25 51 62 60 83 19 46 39 47 59 4 9 -18 25 -41 36 -51 28 -25 89
-31 133 -13 33 14 37 20 48 74 7 33 25 79 45 108 51 78 69 145 55 205 -6 27
-17 53 -23 59 -20 16 -60 20 -101 10z"/>
<path d="M5591 3549 c-30 -10 -63 -26 -73 -36 -39 -35 -13 -89 60 -121 28 -12
79 -17 204 -20 l168 -4 30 30 c22 23 30 40 30 66 0 50 -28 65 -141 77 -52 5
-113 14 -137 19 -57 13 -78 12 -141 -11z"/>
</g>
</svg>
