<?xml version="1.0" standalone="no"?>
<!DOCTYPE svg PUBLIC "-//W3C//DTD SVG 20010904//EN"
 "http://www.w3.org/TR/2001/REC-SVG-20010904/DTD/svg10.dtd">
<svg version="1.0" xmlns="http://www.w3.org/2000/svg"
 width="872.000000pt" height="600.000000pt" viewBox="0 0 872.000000 600.000000"
 preserveAspectRatio="xMidYMid meet">
<metadata>
Created by potrace 1.15, written by Peter Selinger 2001-2017
</metadata>
<g transform="translate(0.000000,600.000000) scale(0.100000,-0.100000)"
fill="#000000" stroke="none">
<path d="M0 3000 l0 -3000 4350 0 4350 0 0 2788 c0 1533 3 2803 6 2822 5 29 0
42 -25 74 -42 52 -53 101 -45 191 l7 75 38 0 c35 0 39 3 39 25 l0 25 -4360 0
-4360 0 0 -3000z m2672 1881 c21 -8 45 -23 55 -33 15 -17 14 -21 -10 -67 -15
-27 -27 -58 -27 -68 0 -39 -21 -80 -48 -94 -21 -11 -112 -15 -414 -19 -440 -6
-424 -2 -422 -85 2 -79 -20 -75 401 -75 300 0 380 -3 408 -14 37 -16 58 -46
49 -70 -11 -29 -66 -36 -303 -37 -270 -1 -338 -7 -358 -35 -22 -29 -15 -630 8
-664 l15 -23 285 -1 c250 -1 288 -3 316 -18 64 -36 51 -83 -29 -99 -77 -15
-565 -11 -633 6 -87 21 -121 19 -139 -7 -21 -30 -20 -91 2 -118 35 -44 213
-54 347 -19 57 15 124 22 235 25 204 7 214 2 252 -111 33 -96 32 -122 -5 -149
-26 -19 -45 -21 -190 -24 -178 -4 -290 10 -426 55 -40 13 -107 28 -149 33 -68
9 -79 14 -123 52 -26 24 -60 52 -74 63 -15 12 -30 37 -36 60 -6 22 -10 149 -9
283 1 242 1 243 -25 298 l-26 55 21 41 c12 22 19 47 16 54 -10 27 -84 34 -367
34 -275 0 -287 -1 -313 -21 -35 -28 -36 -80 -1 -114 24 -24 28 -25 184 -25
155 0 161 -1 188 -24 l28 -24 0 -269 c0 -248 -1 -271 -20 -308 -14 -28 -32
-46 -60 -58 -22 -11 -52 -30 -66 -43 -14 -14 -50 -34 -79 -45 -48 -18 -99 -52
-156 -106 -27 -24 -23 -49 8 -59 11 -3 37 -22 58 -41 66 -59 141 -63 170 -7 8
13 28 33 45 44 17 11 38 31 45 46 8 14 35 37 60 50 25 13 57 34 72 46 27 21
28 21 70 4 24 -10 76 -31 117 -47 40 -15 83 -37 95 -47 33 -30 38 -31 151 -47
99 -14 185 -44 185 -64 0 -14 -24 -30 -71 -47 -31 -12 -86 -17 -192 -19 -96
-2 -153 -7 -160 -14 -9 -9 -13 -127 -17 -407 l-5 -396 -28 -24 -28 -24 -285 0
-284 0 -20 -32 c-30 -50 -24 -113 15 -152 16 -15 42 -17 253 -15 l235 2 29
-32 28 -31 0 -256 0 -256 -45 -44 c-64 -61 -62 -89 10 -160 30 -30 59 -54 64
-54 6 0 26 11 46 24 22 15 58 27 93 31 84 10 130 24 171 51 36 24 76 33 222
53 45 6 101 22 139 40 34 16 87 33 116 37 72 9 89 28 81 94 -3 28 -9 55 -12
60 -8 13 -127 12 -185 0 -25 -6 -74 -24 -110 -40 -36 -16 -97 -34 -135 -40
-39 -5 -89 -13 -112 -16 -36 -6 -45 -3 -67 19 l-26 26 0 221 0 221 25 24 c28
29 18 27 192 27 153 -1 150 0 229 -94 147 -177 238 -264 314 -299 36 -17 79
-44 95 -59 17 -16 58 -38 91 -48 34 -11 77 -31 97 -46 23 -18 60 -31 113 -41
51 -10 94 -26 126 -46 37 -24 67 -34 126 -41 42 -5 127 -25 187 -45 212 -68
282 -65 374 19 67 61 75 72 67 103 -7 28 -43 41 -136 49 -328 29 -371 35 -449
70 -42 18 -90 39 -108 45 -83 33 -82 91 2 125 28 12 66 33 86 48 19 15 65 37
101 48 36 11 77 29 91 40 14 11 51 32 81 45 50 22 56 28 67 67 6 24 16 46 23
50 6 4 57 8 114 8 115 0 157 12 190 55 30 38 28 59 -12 103 l-34 37 -204 7
c-112 3 -539 6 -949 7 -697 1 -747 2 -761 19 -25 29 -29 53 -13 78 l15 24 755
0 754 0 27 23 c21 19 27 32 26 61 -4 94 -44 118 -160 94 -66 -13 -83 -13 -122
-2 -36 11 -171 14 -660 14 -466 0 -619 3 -628 12 -16 16 -15 53 2 67 11 9 208
13 769 14 739 2 755 2 777 22 19 17 21 28 18 72 -6 72 -20 87 -77 78 -80 -13
-1449 -17 -1472 -5 -24 13 -40 50 -32 78 11 43 18 43 860 41 733 -1 806 0 829
16 34 22 39 41 25 81 -7 19 -9 43 -6 54 10 30 62 52 137 58 l67 5 42 55 c54
73 55 78 25 97 -22 15 -54 16 -293 11 -147 -3 -324 -9 -392 -12 -147 -7 -180
-2 -222 33 -27 23 -30 30 -23 62 3 20 9 63 13 96 9 86 20 90 236 90 140 -1
178 -4 215 -19 30 -12 84 -19 166 -23 137 -7 181 6 215 61 23 38 23 38 0 67
l-19 24 -374 0 c-344 0 -376 1 -402 18 -40 27 -32 57 24 85 44 23 51 23 310
22 146 -1 270 -2 277 -1 31 3 38 74 38 378 0 277 -2 304 -18 320 -16 16 -47
18 -315 23 -316 5 -346 10 -340 52 2 12 16 30 31 42 27 20 43 21 413 27 l385
6 24 24 c35 36 40 70 15 102 l-21 26 -402 3 c-366 3 -405 5 -430 21 -23 15
-27 25 -27 62 0 46 -3 49 -100 124 -21 16 -22 21 -11 34 7 9 34 24 59 34 44
17 113 18 1199 18 l1152 0 28 -21 c51 -38 41 -69 -31 -106 -62 -31 -152 -124
-172 -177 -9 -25 -27 -57 -39 -71 -12 -14 -34 -44 -49 -67 -15 -25 -40 -49
-59 -57 -17 -7 -45 -27 -61 -45 -16 -17 -52 -38 -80 -47 -28 -9 -67 -31 -86
-49 -19 -18 -45 -38 -57 -44 -20 -10 -69 -86 -75 -117 -2 -7 13 -38 32 -68 24
-39 47 -60 75 -73 22 -10 62 -37 90 -61 27 -23 62 -53 77 -66 24 -20 28 -31
28 -76 0 -29 5 -92 12 -140 6 -47 8 -98 4 -113 -3 -15 -43 -69 -87 -119 -44
-50 -91 -114 -105 -142 -13 -28 -33 -67 -44 -86 -11 -19 -20 -45 -20 -57 0
-33 68 -154 106 -189 40 -37 41 -50 13 -106 -14 -28 -20 -53 -16 -77 7 -54 73
-144 131 -178 61 -35 86 -68 93 -121 4 -30 0 -52 -16 -82 -27 -51 -27 -95 0
-157 11 -26 30 -76 40 -111 14 -44 28 -67 47 -79 15 -9 46 -34 68 -54 30 -26
58 -41 99 -50 101 -23 160 -79 159 -152 -2 -105 -21 -206 -45 -235 -13 -16
-32 -44 -41 -61 -10 -17 -32 -39 -49 -49 -58 -31 -124 -94 -148 -141 -13 -25
-33 -57 -46 -71 -12 -14 -25 -34 -29 -45 -16 -46 -33 -163 -28 -203 3 -32 0
-48 -13 -62 -18 -20 -48 -20 -2047 -20 l-2030 0 -28 28 c-16 16 -33 46 -39 68
-7 26 -10 657 -10 1959 0 2118 -5 1951 62 1981 47 20 1753 15 1809 -5z m5100
-9 l23 -23 0 -1952 c0 -1073 -3 -1964 -8 -1980 -4 -15 -16 -36 -27 -47 -20
-20 -39 -20 -1290 -20 -936 0 -1276 3 -1294 12 -14 6 -28 19 -31 29 -10 30 15
102 45 134 15 17 36 48 44 70 22 52 44 75 72 75 36 0 56 -41 62 -123 6 -99 15
-107 114 -107 108 0 118 11 118 124 0 119 -9 128 -131 136 -52 3 -100 9 -107
14 -6 4 -12 23 -12 41 0 48 28 63 140 74 81 9 100 15 144 44 28 19 72 41 97
51 28 10 51 26 60 42 7 14 31 35 52 45 21 11 58 35 82 53 25 19 66 39 97 46
29 7 82 29 118 50 36 21 87 43 114 49 28 7 65 25 83 41 32 28 66 41 145 54 21
4 50 17 65 30 39 32 59 41 123 56 30 7 72 21 92 31 36 19 38 19 87 -1 74 -29
88 -40 107 -85 10 -22 29 -55 43 -74 33 -46 50 -97 51 -152 0 -26 7 -81 16
-122 8 -41 14 -99 12 -129 -3 -48 -5 -53 -29 -56 -14 -2 -56 3 -94 11 -104 22
-152 7 -221 -69 -29 -33 -56 -72 -59 -88 -11 -44 4 -132 28 -168 36 -53 108
-52 141 2 11 20 36 39 65 51 65 28 87 52 116 128 14 36 30 73 35 81 16 24 43
-1 64 -59 31 -85 85 -102 143 -45 25 25 25 25 21 182 -4 151 -5 160 -36 229
-22 49 -37 105 -46 171 -12 87 -19 105 -48 144 -23 30 -39 65 -46 103 -8 38
-22 69 -41 91 -17 18 -37 57 -46 86 -14 50 -30 69 -127 163 -11 11 -29 29 -39
40 -114 122 -119 138 -70 190 16 16 36 53 45 81 9 28 28 66 41 84 30 41 41 77
50 157 3 34 22 118 41 185 23 79 38 159 43 223 12 147 35 183 135 205 41 9 65
25 133 87 46 42 90 88 98 104 18 33 20 174 5 215 -6 15 -22 41 -36 58 -14 17
-39 51 -57 76 -18 24 -53 59 -77 77 -25 19 -62 48 -82 65 -21 18 -51 37 -66
43 -15 7 -44 28 -65 47 -21 21 -56 40 -80 46 -26 7 -56 25 -77 47 -23 23 -53
41 -88 51 -29 9 -68 29 -86 45 -19 16 -62 38 -98 49 -36 11 -75 31 -88 45 -14
15 -51 34 -89 45 -36 11 -85 33 -108 49 -23 15 -72 36 -109 45 -37 9 -86 30
-108 46 -26 19 -68 35 -116 45 -41 9 -85 22 -97 31 -44 28 -21 73 47 92 22 7
360 10 942 9 l907 -2 23 -23z m-2047 -247 c44 -8 101 -17 126 -20 32 -4 61
-17 90 -40 27 -20 69 -40 109 -50 72 -19 95 -29 125 -55 11 -10 49 -27 85 -37
36 -11 87 -36 112 -55 26 -20 60 -39 75 -42 15 -4 47 -22 71 -41 24 -18 65
-41 91 -50 26 -8 61 -29 77 -46 17 -18 50 -36 84 -46 36 -10 65 -27 85 -49 17
-18 55 -42 87 -54 31 -11 62 -28 70 -37 7 -9 37 -31 66 -50 28 -18 52 -38 52
-43 0 -5 18 -30 40 -55 22 -25 40 -52 40 -60 0 -24 -118 -117 -161 -126 -57
-13 -136 3 -195 40 -26 17 -54 31 -61 31 -7 0 -31 16 -53 36 -29 27 -58 41
-101 51 -38 9 -78 27 -106 48 -26 20 -65 38 -96 45 -29 6 -77 26 -109 45 -32
20 -87 42 -128 51 -51 12 -82 26 -111 50 -27 22 -55 35 -87 40 -58 8 -102 26
-144 58 -18 13 -62 32 -98 41 -36 9 -90 32 -120 50 -30 19 -76 37 -101 40 -48
7 -109 37 -109 54 0 5 -17 19 -37 32 -55 32 -63 46 -63 112 0 51 4 62 29 88
16 16 35 29 43 29 7 1 51 7 98 14 113 18 131 19 225 1z m-3096 -426 c35 -12
51 -35 51 -74 0 -72 -37 -85 -235 -85 -184 0 -190 3 -190 85 0 82 6 85 190 85
85 0 166 -5 184 -11z m723 -6 c24 -22 25 -109 1 -135 -14 -16 -34 -18 -170
-18 -112 0 -163 4 -188 15 -66 27 -69 105 -4 137 49 26 333 26 361 1z m1903
-8 c19 -18 25 -35 25 -69 0 -41 -3 -47 -31 -61 -16 -9 -51 -18 -77 -21 -62 -6
-96 11 -100 52 -3 25 5 38 47 77 59 55 97 62 136 22z m620 -245 c14 -5 37 -21
50 -36 17 -18 47 -31 101 -45 96 -24 141 -61 158 -132 5 -23 0 -34 -29 -64
-41 -42 -50 -69 -41 -118 13 -69 90 -76 161 -15 25 22 50 40 55 40 4 0 30 18
56 40 55 46 109 66 149 56 60 -15 72 -153 18 -217 -25 -30 -27 -30 -89 -23
-63 6 -65 6 -131 -37 -37 -24 -92 -65 -122 -91 -30 -27 -58 -48 -63 -48 -22 0
-3 -42 34 -74 48 -42 64 -43 143 -16 94 32 135 24 135 -27 0 -41 -71 -136
-201 -269 -78 -79 -131 -142 -135 -159 -10 -40 12 -73 66 -103 l45 -24 58 35
c61 37 149 123 172 168 8 14 26 34 40 43 15 10 33 34 42 54 8 20 30 53 48 72
22 23 38 54 49 93 23 93 68 124 102 72 12 -19 15 -44 13 -109 -4 -75 -7 -88
-30 -113 -15 -15 -39 -51 -53 -80 -14 -29 -40 -68 -56 -87 -17 -19 -36 -49
-42 -68 -15 -43 -135 -181 -199 -229 -27 -21 -63 -51 -80 -68 -17 -17 -37 -31
-44 -31 -8 0 -34 -18 -59 -39 -28 -24 -67 -46 -100 -55 -30 -9 -67 -27 -83
-40 -42 -35 -63 -44 -136 -56 -39 -7 -84 -23 -111 -40 -57 -37 -98 -47 -216
-55 -113 -8 -224 7 -259 33 -40 30 -103 137 -108 185 -4 34 2 56 33 117 20 41
52 95 71 119 56 74 45 96 -78 158 -35 18 -76 35 -92 38 -61 12 -87 74 -46 111
16 14 43 20 112 25 l91 7 64 66 c59 60 64 69 58 98 -8 38 -28 62 -65 78 -22 9
-60 8 -171 -4 -78 -9 -146 -16 -151 -16 -4 0 -21 12 -38 26 -36 30 -40 66 -16
135 15 41 35 66 133 164 36 36 47 57 68 131 24 83 25 90 10 121 -48 101 6 152
163 153 53 0 68 4 93 25 31 26 42 30 121 40 40 5 51 12 67 38 11 17 29 37 42
44 28 15 185 17 223 3z m-3230 -30 c40 -20 70 -77 61 -114 -12 -49 -57 -60
-252 -61 -155 0 -174 2 -193 19 -37 34 -23 142 22 164 34 18 324 11 362 -8z
m710 -4 c26 -26 41 -82 31 -122 -11 -41 -58 -54 -193 -54 -139 0 -229 13 -254
36 -44 40 -4 133 64 153 18 5 99 10 180 10 143 1 149 0 172 -23z m3471 -467
c15 -17 19 -36 19 -93 0 -114 -49 -167 -82 -89 -20 50 -14 154 11 182 24 26
28 26 52 0z m-83 -1200 c9 -12 17 -30 17 -40 0 -10 -8 -26 -17 -34 -10 -8 -44
-38 -76 -65 -31 -28 -66 -50 -77 -50 -27 0 -100 -30 -100 -41 0 -17 -61 -47
-109 -54 -52 -8 -74 -18 -114 -51 -15 -13 -51 -30 -80 -39 -29 -8 -74 -31
-102 -49 -27 -19 -79 -42 -115 -51 -36 -9 -82 -30 -104 -46 -22 -15 -62 -36
-90 -45 -28 -10 -68 -28 -88 -41 -70 -47 -148 -38 -148 16 0 27 76 138 99 146
12 3 42 22 67 41 27 21 70 41 107 50 36 9 78 29 101 46 21 17 65 39 99 50 33
10 75 31 93 47 18 16 58 37 89 46 31 8 76 31 100 49 24 19 66 39 95 46 30 7
67 26 91 46 22 18 57 36 77 39 20 4 42 8 47 11 6 2 35 1 65 -1 40 -4 60 -11
73 -26z m-3643 -429 c18 -11 18 -83 0 -105 -6 -8 -37 -24 -68 -35 -32 -12 -68
-32 -82 -45 -26 -25 -152 -75 -188 -75 -43 0 -133 42 -155 71 -12 17 -36 39
-53 50 -48 30 -69 102 -38 133 13 14 54 16 292 16 155 0 284 -4 292 -10z"/>
<path d="M1305 4681 c-16 -5 -49 -9 -72 -10 -24 0 -49 -8 -58 -17 -15 -16 -14
-19 13 -48 17 -17 37 -48 46 -69 9 -21 29 -56 46 -77 17 -21 38 -64 48 -96 23
-75 53 -99 125 -97 72 1 191 50 195 80 2 13 -5 29 -18 40 -12 10 -32 39 -45
64 -13 25 -37 61 -52 79 -15 18 -35 52 -44 74 -9 22 -28 49 -42 59 -28 22 -97
30 -142 18z"/>
<path d="M6358 1586 c-79 -21 -167 -129 -168 -206 0 -8 -10 -35 -21 -60 l-20
-45 33 -28 c50 -43 107 -69 134 -63 32 8 72 70 139 214 60 129 62 149 21 176
-36 23 -66 26 -118 12z"/>
<path d="M5885 1328 c-40 -26 -54 -44 -72 -88 -30 -73 -29 -121 6 -205 21 -52
33 -70 47 -70 11 0 43 27 76 65 31 36 72 81 91 100 43 44 92 134 83 155 -6 18
-104 64 -151 72 -23 4 -42 -3 -80 -29z"/>
<path d="M5680 3803 c-8 -4 -29 -17 -46 -30 -22 -16 -45 -23 -80 -24 -89 -2
-105 -10 -135 -64 -30 -55 -36 -83 -16 -90 45 -17 180 -32 214 -24 21 5 92 9
159 9 151 0 180 9 195 59 8 28 8 44 0 58 -14 27 -129 90 -178 98 -74 12 -98
13 -113 8z"/>
<path d="M5471 3446 c-60 -9 -77 -16 -92 -36 -68 -96 10 -140 251 -140 102 0
133 4 168 20 58 26 63 46 21 82 -49 41 -77 55 -144 68 -87 18 -121 19 -204 6z"/>
</g>
</svg>
