<?xml version="1.0" standalone="no"?>
<!DOCTYPE svg PUBLIC "-//W3C//DTD SVG 20010904//EN"
 "http://www.w3.org/TR/2001/REC-SVG-20010904/DTD/svg10.dtd">
<svg version="1.0" xmlns="http://www.w3.org/2000/svg"
 width="895.000000pt" height="600.000000pt" viewBox="0 0 895.000000 600.000000"
 preserveAspectRatio="xMidYMid meet">
<metadata>
Created by potrace 1.15, written by Peter Selinger 2001-2017
</metadata>
<g transform="translate(0.000000,600.000000) scale(0.100000,-0.100000)"
fill="#000000" stroke="none">
<path d="M0 3000 l0 -3000 4475 0 4475 0 0 3000 0 3000 -4475 0 -4475 0 0
-3000z m5456 1958 c63 -34 49 -82 -32 -113 -63 -24 -148 -111 -180 -184 -14
-31 -33 -65 -43 -76 -10 -11 -28 -38 -40 -60 -14 -26 -38 -49 -66 -64 -24 -13
-51 -34 -59 -46 -9 -14 -40 -31 -79 -44 -39 -13 -75 -33 -93 -52 -16 -17 -41
-37 -56 -45 -14 -7 -41 -38 -58 -69 l-31 -55 38 -59 c27 -43 49 -65 77 -78 22
-10 58 -33 80 -51 22 -18 56 -42 77 -53 48 -24 56 -50 33 -101 -15 -34 -16
-44 -5 -71 36 -89 43 -115 39 -163 -4 -47 -10 -58 -86 -145 -45 -52 -91 -114
-103 -139 -11 -25 -33 -58 -49 -75 -57 -62 -47 -130 33 -220 76 -85 79 -92 62
-156 -21 -77 -19 -98 16 -168 26 -52 38 -66 77 -84 86 -41 119 -119 96 -228
-11 -51 -12 -84 -5 -127 12 -73 65 -203 88 -216 10 -5 35 -26 55 -47 26 -26
55 -43 95 -54 58 -17 150 -78 179 -119 11 -17 13 -43 8 -126 -5 -88 -10 -115
-35 -166 -30 -63 -89 -123 -176 -177 -23 -15 -50 -42 -59 -59 -9 -18 -31 -49
-49 -69 -40 -44 -71 -181 -57 -247 12 -53 -3 -83 -48 -99 -49 -17 -4100 -18
-4166 -2 -81 21 -74 -180 -74 2059 l0 2007 24 22 c13 13 45 26 72 31 27 4
1044 7 2259 6 2066 -1 2212 -2 2241 -18z m2503 11 c17 -6 36 -19 41 -30 11
-20 15 -4034 4 -4062 -3 -8 -17 -20 -32 -26 -19 -8 -339 -11 -1127 -9 -1089 3
-1100 3 -1135 24 -52 30 -50 48 13 88 44 28 56 42 60 68 10 55 -7 116 -43 153
-46 48 -83 61 -132 48 -33 -9 -40 -8 -48 8 -14 26 4 65 39 83 16 9 71 23 123
31 100 17 148 32 148 46 0 5 24 25 53 43 30 19 61 46 70 59 10 15 40 34 73 47
32 11 72 34 91 50 32 28 87 50 129 50 12 0 36 11 55 25 73 54 92 63 138 69 33
4 62 17 92 41 32 25 64 38 119 49 41 9 86 25 100 36 88 70 239 95 322 53 15
-7 37 -32 49 -56 12 -23 30 -51 40 -62 31 -34 48 -88 58 -186 6 -58 19 -118
35 -156 21 -51 26 -79 26 -151 0 -71 4 -96 23 -132 26 -53 62 -76 101 -66 45
11 56 54 56 218 0 152 -8 195 -54 305 -15 34 -32 99 -38 144 -8 57 -18 90 -33
108 -26 31 -55 85 -55 103 0 34 -24 92 -51 122 -16 19 -36 56 -44 83 -11 35
-31 66 -78 114 -35 37 -71 70 -78 75 -23 14 -99 132 -99 153 0 10 7 25 16 32
9 7 29 39 44 71 15 31 37 69 49 84 25 31 37 75 46 164 9 85 21 133 52 199 21
44 27 77 34 185 5 72 14 143 20 158 18 45 81 94 151 117 56 19 76 32 136 94
80 83 87 105 81 245 -4 76 -6 82 -44 126 -99 117 -236 242 -289 264 -17 7 -47
28 -66 46 -19 18 -57 41 -84 51 -28 10 -64 33 -80 51 -20 21 -50 38 -84 48
-30 8 -69 29 -88 45 -19 17 -62 39 -99 50 -37 11 -80 32 -100 50 -20 17 -48
33 -63 37 -81 18 -103 27 -137 54 -24 19 -58 34 -97 41 -32 7 -74 22 -91 35
-56 40 -80 51 -148 64 -70 13 -129 41 -129 62 1 30 40 57 100 69 62 12 1823
10 1859 -2z m-2009 -278 c123 -20 148 -28 195 -61 17 -11 60 -29 96 -40 37
-11 83 -34 104 -50 21 -16 69 -39 107 -50 40 -12 83 -33 102 -51 19 -16 57
-36 85 -45 28 -8 66 -28 84 -44 18 -16 57 -38 87 -50 30 -12 69 -34 87 -50 18
-16 52 -34 74 -40 25 -7 59 -28 83 -51 25 -25 56 -44 84 -51 26 -6 64 -28 95
-54 28 -24 56 -44 63 -44 7 0 23 -14 36 -31 13 -17 37 -45 54 -62 52 -53 51
-67 -8 -136 -63 -73 -94 -85 -194 -79 -60 4 -81 10 -115 34 -22 16 -60 40 -83
54 -22 14 -55 39 -71 56 -24 24 -45 34 -96 43 -46 9 -83 24 -122 50 -36 25
-77 42 -115 50 -41 8 -73 22 -103 46 -29 23 -60 37 -89 41 -58 8 -104 28 -141
58 -16 14 -57 31 -95 39 -37 9 -89 30 -116 47 -28 17 -82 39 -122 50 -39 11
-82 28 -96 38 -39 29 -82 49 -123 56 -23 4 -58 24 -90 51 -107 90 -107 90
-106 137 2 95 26 121 134 142 98 20 181 19 315 -3z m-528 -472 c28 -15 50 -56
43 -78 -8 -27 -69 -53 -139 -58 -50 -4 -65 -2 -85 14 -28 23 -31 62 -7 97 26
41 133 54 188 25z m587 -210 c24 -5 63 -23 86 -40 23 -17 73 -38 111 -48 92
-24 128 -44 153 -84 31 -51 27 -87 -14 -127 -67 -65 -55 -170 20 -170 47 0 84
16 108 46 11 14 38 34 61 44 23 9 61 34 85 54 53 44 86 54 120 35 36 -20 51
-55 51 -119 0 -65 -37 -154 -67 -162 -11 -3 -39 1 -63 9 -41 14 -46 13 -108
-13 -88 -37 -204 -137 -200 -172 7 -61 123 -93 195 -52 118 66 163 -57 62
-167 -21 -24 -39 -47 -39 -53 0 -6 -24 -25 -53 -44 -53 -34 -127 -107 -127
-126 0 -6 -19 -31 -41 -55 -32 -35 -40 -50 -35 -69 7 -29 80 -96 104 -96 10 0
43 19 73 43 65 50 259 261 259 281 0 8 15 33 34 55 19 23 42 65 51 93 25 78
41 98 75 98 42 0 54 -29 54 -132 1 -83 0 -87 -32 -125 -18 -21 -42 -58 -54
-83 -11 -25 -33 -59 -49 -75 -16 -17 -39 -56 -51 -87 -16 -38 -46 -79 -94
-130 -112 -116 -145 -144 -204 -173 -30 -15 -68 -40 -85 -55 -16 -16 -53 -35
-81 -43 -28 -8 -72 -31 -97 -50 -32 -25 -64 -38 -111 -47 -36 -7 -70 -18 -77
-26 -29 -35 -80 -55 -166 -64 -48 -6 -115 -15 -149 -21 -51 -10 -76 -9 -155 6
-115 22 -124 26 -149 73 -12 20 -32 52 -45 71 -34 47 -34 106 2 157 14 21 35
61 45 88 10 26 32 65 49 86 22 27 30 46 27 66 -3 26 -10 31 -77 53 -57 18 -84
34 -122 70 -82 79 -63 122 62 142 114 17 115 17 158 75 49 65 54 107 17 147
-32 35 -92 42 -186 23 -138 -28 -168 -25 -215 15 -22 20 -35 40 -35 55 0 35
46 123 86 164 149 154 160 179 150 337 -7 93 -6 103 13 122 26 26 79 41 166
48 42 3 82 13 101 24 17 10 62 25 100 33 42 9 73 21 79 31 24 41 43 57 75 65
49 11 98 11 149 -1z m1021 -545 c8 -8 15 -50 18 -93 5 -92 -13 -141 -52 -141
-40 0 -48 22 -45 113 5 112 41 168 79 121z m-90 -1184 c11 -11 20 -33 20 -51
0 -45 -85 -132 -145 -149 -25 -7 -65 -28 -89 -47 -29 -22 -69 -41 -114 -53
-43 -10 -85 -30 -109 -48 -21 -17 -64 -38 -95 -47 -32 -9 -76 -31 -98 -50 -25
-21 -59 -37 -92 -44 -29 -7 -75 -27 -103 -45 -27 -19 -78 -42 -113 -52 -35 -9
-68 -24 -75 -33 -25 -35 -61 -51 -116 -51 -90 0 -116 43 -63 105 15 17 35 46
44 64 10 17 25 34 35 38 40 13 100 45 133 68 19 14 53 30 76 36 23 6 63 26 90
45 27 19 72 42 101 50 29 9 66 26 81 38 34 29 79 52 118 60 16 4 52 22 79 42
27 19 73 42 102 50 29 9 67 27 84 41 42 36 94 52 167 53 49 0 66 -4 82 -20z
m-1406 -1116 c3 -9 6 -46 6 -84 0 -38 3 -76 6 -85 4 -9 31 -32 61 -51 47 -30
53 -37 42 -50 -28 -33 -73 -47 -179 -52 -119 -5 -165 8 -176 53 -7 27 43 125
75 147 10 7 30 36 44 65 15 29 35 56 44 62 27 16 70 13 77 -5z"/>
<path d="M2538 4833 l-1178 -3 -16 -25 c-14 -22 -15 -46 -9 -193 10 -221 10
-1232 0 -1444 l-8 -166 26 -26 c24 -24 32 -26 122 -26 93 0 97 1 123 29 15 15
35 40 45 55 10 14 32 34 50 43 30 17 95 18 902 21 986 3 929 7 978 -73 36 -61
71 -75 191 -75 l95 0 16 30 c13 25 15 141 15 922 0 793 -2 896 -16 916 -14 20
-23 22 -87 20 -40 -2 -602 -4 -1249 -5z m120 -189 c29 -19 49 -64 58 -131 8
-63 -7 -110 -47 -149 l-30 -29 -287 -3 c-231 -2 -306 0 -386 14 -96 16 -99 16
-125 -3 -42 -32 -42 -121 0 -144 14 -7 113 -10 304 -9 301 1 330 -3 341 -47
13 -51 -86 -166 -219 -255 -22 -15 -54 -41 -70 -58 -16 -16 -35 -30 -43 -30
-7 0 -36 -20 -63 -45 -28 -24 -68 -49 -90 -56 -22 -6 -60 -29 -85 -49 -26 -22
-62 -41 -83 -44 -90 -16 -93 -29 -25 -102 38 -41 57 -53 90 -59 65 -11 120 3
161 40 20 18 52 40 71 50 19 10 54 34 77 54 86 76 132 111 169 132 22 12 81
65 132 118 l92 95 53 1 52 0 8 -60 c10 -70 1 -272 -13 -309 -18 -48 -53 -61
-178 -63 -136 -2 -155 -11 -133 -66 41 -104 53 -148 42 -161 -25 -30 -100 -36
-430 -36 -181 0 -337 3 -346 6 -8 4 -23 21 -33 38 -15 28 -17 87 -20 635 -3
621 1 692 36 724 9 8 28 17 42 19 14 1 234 2 490 0 399 -2 468 -5 488 -18z
m887 0 c20 -9 41 -31 52 -52 17 -35 18 -76 18 -642 0 -592 0 -606 -21 -640
-37 -64 -42 -65 -424 -68 -364 -3 -421 2 -428 41 -4 21 39 41 110 51 45 7 88
40 88 68 0 6 14 27 30 48 l30 38 0 294 c0 285 1 295 23 338 32 65 71 77 191
62 50 -6 110 -16 133 -23 43 -13 43 -13 83 26 49 47 53 88 15 133 -32 38 -61
43 -154 26 -147 -26 -219 -16 -266 36 -16 18 -20 37 -20 104 -1 44 -5 96 -9
113 -14 55 18 62 287 63 188 0 235 -3 262 -16z"/>
<path d="M1824 2916 c-17 -8 -34 -21 -38 -31 -11 -28 -7 -84 10 -134 13 -40
15 -91 12 -297 -5 -374 13 -358 -383 -353 -143 2 -270 0 -282 -4 -24 -9 -53
-63 -53 -101 0 -31 31 -65 62 -68 13 -1 149 -2 303 -2 253 -1 283 -3 308 -19
15 -10 32 -29 37 -43 12 -30 12 -468 1 -537 -6 -37 -18 -58 -49 -90 -22 -23
-41 -49 -42 -57 -7 -54 2 -74 63 -136 58 -58 67 -64 105 -64 34 0 49 7 81 35
21 20 61 43 87 52 27 9 67 31 90 48 23 18 63 37 89 44 25 6 69 27 96 45 29 21
75 40 113 49 44 10 88 30 135 62 65 42 71 50 71 80 0 39 -44 96 -93 121 -27
14 -34 14 -75 -2 -25 -9 -62 -34 -81 -54 -23 -24 -55 -44 -87 -54 -29 -9 -60
-26 -70 -37 -22 -25 -67 -49 -89 -49 -9 0 -27 11 -40 25 l-25 24 0 254 c0 236
1 257 19 278 19 24 22 24 198 24 222 0 241 -6 280 -92 14 -32 42 -77 62 -101
74 -88 261 -271 293 -288 18 -9 50 -31 71 -49 21 -18 58 -38 82 -45 25 -7 64
-27 88 -45 23 -18 69 -40 102 -50 33 -9 74 -27 90 -39 49 -37 70 -45 150 -61
51 -9 93 -25 123 -45 70 -46 88 -42 191 49 81 72 132 101 177 101 6 0 17 6 23
14 18 22 -4 31 -138 56 -68 12 -147 33 -175 45 -28 13 -91 28 -139 35 -103 13
-123 19 -164 54 -17 14 -55 31 -84 37 -65 14 -85 23 -124 59 -16 15 -47 33
-69 40 -35 11 -116 73 -176 135 -14 14 -42 42 -62 63 -47 46 -50 83 -11 109
25 17 67 18 551 18 447 1 525 3 532 15 14 21 12 134 -2 165 -13 29 -42 33 -75
10 -18 -13 -137 -15 -888 -16 -811 -1 -868 0 -886 17 -36 32 -41 79 -37 344
l3 255 28 55 c24 46 27 59 18 83 -13 33 -37 43 -138 56 -43 6 -91 13 -108 16
-16 3 -44 -1 -61 -9z"/>
<path d="M3305 2855 c-22 -8 -53 -30 -70 -49 -16 -19 -50 -44 -75 -56 -25 -12
-61 -37 -80 -56 -19 -18 -51 -40 -71 -48 -19 -8 -42 -22 -49 -31 -19 -23 -79
-52 -123 -60 -21 -4 -56 -23 -78 -41 -35 -29 -117 -63 -153 -64 -6 0 -35 -16
-65 -35 -30 -19 -78 -39 -110 -45 -97 -19 -101 -20 -101 -35 0 -8 17 -27 38
-42 20 -15 45 -38 55 -51 29 -35 71 -52 132 -52 67 0 113 20 143 60 16 21 40
34 87 48 35 11 86 35 112 54 27 19 62 40 79 46 17 5 52 26 77 45 25 19 68 40
97 47 30 7 67 26 91 46 23 19 62 39 87 46 29 7 62 26 88 50 34 31 53 40 113
52 92 17 101 26 77 71 -29 54 -47 65 -152 91 -114 28 -98 27 -149 9z"/>
<path d="M6466 1535 c-52 -53 -66 -73 -71 -108 -4 -23 -13 -64 -22 -92 -14
-49 -14 -51 12 -98 32 -57 52 -69 107 -65 40 3 43 6 89 83 27 44 52 94 55 112
3 17 21 56 40 85 34 52 39 72 28 103 -10 26 -59 45 -118 45 -55 0 -56 -1 -120
-65z"/>
<path d="M6060 1312 c-65 -32 -98 -175 -64 -275 28 -82 91 -78 157 9 23 31 56
70 72 88 17 17 41 57 54 89 21 52 22 60 9 73 -35 35 -171 45 -228 16z"/>
<path d="M7018 1313 c-17 -3 -36 -17 -49 -36 -12 -18 -36 -46 -54 -63 -28 -26
-33 -40 -39 -95 -12 -119 15 -154 113 -145 35 3 64 13 80 26 14 11 39 28 55
38 90 54 90 54 110 133 25 96 18 125 -32 138 -36 11 -129 12 -184 4z"/>
<path d="M5845 3831 c-47 -24 -74 -30 -122 -31 -49 0 -66 -4 -79 -19 -9 -10
-31 -36 -50 -56 -67 -73 -38 -96 121 -99 164 -2 397 15 423 30 18 12 22 23 22
64 0 55 -8 63 -75 75 -22 4 -59 18 -82 30 -70 38 -91 39 -158 6z"/>
<path d="M5603 3473 c-27 -5 -73 -58 -73 -84 0 -25 36 -47 90 -54 25 -3 89
-16 143 -27 110 -24 155 -19 222 24 68 44 59 60 -63 112 -80 34 -89 36 -190
35 -59 -1 -117 -4 -129 -6z"/>
</g>
</svg>
