<?xml version="1.0" standalone="no"?>
<!DOCTYPE svg PUBLIC "-//W3C//DTD SVG 20010904//EN"
 "http://www.w3.org/TR/2001/REC-SVG-20010904/DTD/svg10.dtd">
<svg version="1.0" xmlns="http://www.w3.org/2000/svg"
 width="910.000000pt" height="600.000000pt" viewBox="0 0 910.000000 600.000000"
 preserveAspectRatio="xMidYMid meet">
<metadata>
Created by potrace 1.15, written by Peter Selinger 2001-2017
</metadata>
<g transform="translate(0.000000,600.000000) scale(0.100000,-0.100000)"
fill="#000000" stroke="none">
<path d="M0 2975 l0 -2975 4550 0 4550 0 0 2975 0 2975 -4550 0 -4550 0 0
-2975z m6076 2044 c46 -12 65 -32 47 -50 -6 -6 -51 -21 -101 -34 -50 -12 -107
-33 -128 -45 -41 -26 -169 -49 -279 -50 -107 -1 -147 -13 -213 -61 -73 -54
-82 -68 -89 -134 -6 -57 25 -183 50 -203 7 -7 33 -43 58 -82 38 -61 52 -75 99
-97 30 -15 67 -38 82 -51 18 -17 58 -33 119 -48 72 -18 99 -31 130 -59 27 -24
49 -35 70 -35 34 0 99 -27 99 -41 0 -5 30 -29 68 -53 45 -29 154 -131 330
-309 230 -233 269 -268 311 -282 27 -9 57 -25 67 -37 26 -28 88 -55 149 -63
28 -3 74 -14 103 -22 48 -15 59 -15 130 1 42 10 84 21 92 25 8 5 26 39 39 76
22 62 23 73 12 114 -7 25 -15 86 -17 135 -3 81 -1 95 26 160 17 39 38 85 47
101 74 137 68 111 68 320 l0 190 -63 127 c-34 70 -68 131 -76 135 -7 4 -24 26
-38 48 -26 41 -142 155 -158 155 -5 0 -24 13 -42 29 -19 16 -58 37 -88 46 -30
9 -73 23 -95 29 -48 15 -56 37 -18 57 23 12 134 15 643 17 628 3 681 1 694
-35 4 -9 6 -934 6 -2056 0 -2262 6 -2073 -65 -2103 -49 -20 -632 -21 -660 -1
-26 20 -17 100 18 151 25 37 27 46 27 156 0 85 -5 136 -20 191 -34 127 -39
151 -50 279 -12 147 -23 190 -51 216 -12 10 -32 44 -46 74 -13 30 -38 69 -55
87 -23 24 -35 51 -49 114 -11 46 -28 93 -39 104 -11 11 -30 41 -43 65 -14 25
-33 59 -43 76 -17 30 -17 33 0 77 9 26 27 55 39 66 114 103 130 113 161 107
43 -9 82 -50 96 -102 19 -68 7 -223 -25 -307 -37 -101 -35 -118 28 -177 43
-41 58 -50 90 -50 78 0 127 55 142 162 5 30 20 65 41 95 19 26 34 53 34 59 0
6 21 36 48 66 100 118 129 154 136 173 4 11 18 79 32 152 19 108 24 165 24
306 0 195 -7 225 -89 399 -47 99 -77 128 -132 128 -58 0 -87 -16 -116 -65 -23
-36 -41 -51 -102 -80 -40 -20 -97 -40 -125 -46 -84 -17 -106 -29 -129 -73 -16
-31 -21 -58 -21 -111 0 -69 4 -81 61 -179 18 -29 16 -92 -2 -110 -9 -8 -32
-18 -53 -21 -79 -12 -110 -25 -129 -54 -22 -34 -100 -101 -118 -101 -19 0 -35
24 -42 63 -4 29 -1 39 18 56 13 11 54 49 92 84 l67 64 0 57 c0 65 -9 88 -54
132 -17 17 -40 43 -50 59 -18 26 -22 27 -78 22 -73 -6 -92 -23 -114 -96 -27
-95 -71 -280 -94 -401 -12 -63 -28 -124 -35 -136 -8 -12 -40 -31 -72 -44 -32
-13 -69 -33 -83 -46 -14 -13 -59 -38 -100 -57 -42 -19 -82 -42 -90 -52 -8 -9
-38 -28 -68 -41 -30 -13 -67 -35 -84 -49 -17 -14 -49 -35 -72 -47 -22 -11 -54
-32 -71 -47 -16 -15 -47 -38 -68 -50 -22 -12 -64 -43 -94 -69 -30 -26 -78 -66
-105 -90 -42 -36 -56 -43 -86 -40 -32 3 -37 7 -45 38 -46 196 -95 321 -130
338 -12 6 -84 40 -160 76 -109 53 -141 73 -157 99 -20 32 -26 82 -12 104 11
17 58 33 97 33 52 0 66 9 91 64 29 61 30 88 5 143 -23 49 -50 69 -110 78 -47
8 -81 34 -81 64 0 33 52 83 117 112 55 24 67 35 83 71 11 24 20 55 20 70 0 53
-87 126 -136 114 -30 -8 -79 14 -130 58 -47 40 -43 63 23 128 150 149 176 178
204 223 16 28 44 69 62 92 18 23 41 57 52 75 31 51 49 47 75 -17 15 -36 38
-69 67 -94 67 -59 99 -71 196 -71 74 0 89 3 123 26 39 26 64 51 64 65 0 21
-104 125 -151 150 l-54 30 -103 -12 c-131 -16 -136 -13 -140 72 -4 119 2 113
-108 106 -124 -8 -142 -18 -179 -94 -16 -34 -38 -70 -49 -82 -10 -11 -29 -50
-43 -88 -13 -37 -37 -84 -52 -103 -15 -19 -35 -48 -44 -65 -8 -16 -54 -70
-102 -118 -75 -76 -90 -96 -106 -148 -11 -34 -19 -77 -19 -98 0 -45 39 -108
104 -169 25 -24 46 -53 46 -64 0 -11 -9 -56 -21 -101 -14 -56 -20 -103 -17
-149 3 -60 8 -74 44 -125 56 -79 61 -98 32 -123 -13 -11 -35 -31 -50 -44 -15
-14 -33 -46 -42 -77 -15 -51 -15 -56 5 -116 28 -84 103 -154 199 -183 36 -11
96 -38 135 -58 59 -33 73 -46 94 -88 16 -32 27 -74 31 -121 6 -80 9 -85 77
-122 25 -14 48 -32 51 -38 2 -7 -24 -41 -58 -74 -58 -59 -63 -61 -101 -56 -56
7 -85 30 -114 87 -37 73 -61 85 -170 85 -98 -1 -150 -14 -193 -50 -15 -12 -49
-34 -77 -48 -27 -14 -91 -64 -141 -111 -77 -72 -94 -94 -112 -144 -28 -75 -27
-92 3 -182 31 -90 31 -99 1 -158 -54 -108 -40 -146 71 -183 48 -16 79 -34 111
-65 24 -24 53 -44 65 -44 12 0 48 29 88 70 59 60 69 75 69 105 0 50 -23 99
-56 121 -15 11 -52 42 -81 70 -47 45 -53 56 -53 91 0 35 9 52 71 127 102 124
164 155 244 122 47 -20 56 -42 49 -128 -5 -66 -4 -76 18 -108 31 -46 61 -50
96 -12 20 21 53 38 111 56 45 14 91 26 101 26 23 0 50 -36 50 -67 0 -41 -42
-57 -149 -59 -127 -1 -121 0 -121 -35 0 -82 94 -149 209 -149 40 0 48 -5 90
-50 25 -27 59 -54 74 -60 40 -14 122 -13 160 4 18 7 113 94 212 192 99 99 196
191 216 206 20 15 81 71 135 124 55 53 124 115 154 137 57 42 129 103 190 161
19 18 51 43 72 55 20 12 38 27 41 35 7 17 134 106 152 106 27 0 63 -59 80
-131 9 -39 22 -83 29 -98 7 -14 21 -62 31 -106 9 -44 25 -100 36 -124 34 -78
49 -215 49 -453 0 -192 -2 -224 -17 -240 -14 -16 -33 -18 -153 -18 -160 0
-170 4 -150 67 16 50 66 142 95 173 13 14 33 50 45 80 12 30 35 72 51 94 53
73 30 114 -70 123 -50 5 -66 2 -98 -17 -50 -29 -98 -70 -188 -158 -68 -66 -76
-79 -99 -150 -13 -42 -27 -98 -31 -124 -14 -91 73 -83 -852 -83 -450 0 -840 1
-868 2 -27 0 -922 -1 -1988 -3 -2096 -4 -1985 -6 -2021 48 -14 22 -16 230 -16
2065 0 1122 2 2047 6 2056 3 9 18 20 32 26 41 15 5089 14 5148 0z m545 -200
c28 -6 75 -21 103 -34 28 -12 85 -30 126 -40 62 -15 82 -25 116 -59 23 -23 52
-51 65 -62 54 -49 110 -126 144 -195 20 -41 43 -87 51 -103 26 -47 21 -148
-11 -210 -15 -28 -40 -89 -57 -136 -26 -75 -30 -105 -37 -245 -9 -179 -20
-216 -71 -233 -35 -13 -54 -8 -94 25 -16 13 -52 36 -80 50 -28 14 -73 44 -99
67 -82 69 -267 256 -292 295 -23 37 -183 198 -267 269 -26 22 -64 46 -85 52
-21 7 -67 28 -103 46 -36 19 -96 40 -134 48 -95 20 -284 113 -292 145 -8 30
18 85 50 106 21 14 35 15 110 5 71 -10 93 -9 133 3 26 9 73 23 104 31 31 9 73
29 93 45 21 17 63 39 94 51 32 11 79 32 105 46 27 14 61 30 75 34 40 12 194
11 253 -1z m1078 -1687 c48 -39 95 -150 87 -207 -15 -110 -64 -295 -89 -337
-36 -62 -76 -108 -93 -108 -37 0 -51 166 -20 249 22 60 20 156 -5 248 -22 81
-22 151 2 179 19 23 74 12 118 -24z m-812 -811 c98 -45 83 -140 -30 -191 -34
-15 -70 -37 -81 -49 -10 -11 -50 -32 -88 -47 -38 -14 -81 -36 -96 -49 -15 -12
-43 -30 -62 -40 -19 -10 -93 -76 -164 -147 -94 -94 -142 -136 -180 -152 -28
-13 -65 -38 -83 -57 -17 -19 -57 -56 -89 -84 -31 -27 -79 -71 -105 -97 -42
-41 -54 -48 -89 -48 -49 0 -76 24 -86 75 -13 71 1 120 56 205 29 44 57 80 61
80 4 0 57 45 118 100 61 56 130 109 154 119 24 11 54 32 65 49 23 31 54 47
115 57 24 4 55 20 80 43 67 60 118 96 187 134 36 20 74 46 85 59 55 61 149 77
232 40z"/>
<path d="M2605 4720 c-881 -4 -1155 -8 -1171 -17 -27 -16 -35 -48 -24 -96 10
-46 34 -75 77 -93 44 -19 252 -18 368 1 60 10 164 15 315 15 193 0 229 -2 249
-16 50 -35 51 -46 51 -584 0 -490 0 -500 -20 -520 -12 -12 -32 -25 -46 -30
-15 -6 -264 -10 -619 -10 l-594 0 -21 -27 c-31 -39 -25 -131 11 -169 l24 -26
170 5 c93 3 195 10 225 15 35 7 421 11 1045 11 829 1 1005 -1 1080 -14 121
-20 287 -20 325 0 77 40 80 159 5 190 -29 13 -131 15 -623 15 l-589 0 -27 26
-26 27 0 506 c0 520 4 571 40 591 31 16 528 13 635 -5 50 -8 147 -15 217 -15
120 0 128 1 155 24 26 22 28 30 28 96 0 63 -3 74 -24 91 -14 11 -36 18 -55 17
-17 -2 -548 -5 -1181 -8z"/>
<path d="M5520 3584 c-44 -40 -48 -60 -28 -127 13 -45 46 -80 114 -126 39 -25
57 -31 103 -31 70 0 92 15 120 80 l22 51 -31 53 c-16 30 -36 59 -44 65 -13 11
-187 71 -206 71 -6 0 -28 -16 -50 -36z"/>
<path d="M6373 3469 c-39 -11 -113 -95 -113 -128 0 -13 18 -44 39 -70 31 -37
55 -53 109 -75 49 -19 72 -34 81 -52 25 -57 4 -134 -54 -194 -18 -19 -41 -54
-50 -76 -15 -39 -46 -64 -80 -64 -8 0 -22 -12 -32 -27 -9 -16 -50 -63 -90
-105 -65 -69 -73 -82 -73 -117 0 -70 79 -133 148 -116 62 14 199 132 234 200
12 22 31 54 44 70 12 17 34 57 49 90 14 33 41 76 59 95 54 57 106 161 106 212
0 83 -93 226 -180 275 -25 14 -56 39 -70 55 -28 32 -76 43 -127 27z"/>
<path d="M6132 3100 c-44 -27 -55 -60 -42 -125 12 -59 35 -89 87 -110 60 -25
78 -20 107 29 38 65 34 154 -10 201 -29 32 -94 34 -142 5z"/>
<path d="M3529 2885 c-47 -7 -109 -18 -138 -24 -28 -6 -119 -11 -201 -11 -97
0 -158 -4 -177 -12 -21 -10 -179 -14 -623 -18 -570 -5 -597 -6 -634 -25 -58
-29 -63 -42 -46 -122 10 -49 15 -176 17 -463 2 -217 2 -404 -1 -416 -11 -44
-43 -49 -336 -51 -151 -1 -281 -2 -288 -2 -16 -1 -42 -61 -42 -98 0 -15 8 -43
18 -62 l17 -34 500 -1 c459 -1 503 -2 533 -19 41 -22 40 -34 -3 -52 -19 -8
-51 -22 -71 -30 -20 -9 -52 -28 -72 -44 -21 -16 -60 -36 -87 -45 -28 -9 -73
-31 -101 -50 -28 -19 -82 -43 -120 -55 -38 -11 -86 -32 -107 -46 -25 -18 -70
-32 -138 -45 -236 -45 -299 -131 -140 -189 52 -19 64 -28 82 -62 28 -57 46
-60 82 -15 36 44 63 59 147 81 36 9 85 29 110 45 25 15 72 35 105 45 33 9 81
30 107 47 26 16 79 38 117 48 38 10 89 31 113 49 31 22 76 39 162 60 65 16
125 36 133 44 12 12 12 22 3 56 -13 49 -38 64 -130 81 -67 12 -130 36 -130 50
0 4 17 16 38 26 35 18 82 19 960 21 507 1 931 5 942 8 11 3 23 18 26 33 3 15
8 34 10 42 5 20 -12 90 -25 103 -7 7 -154 10 -449 8 -463 -3 -508 1 -537 42
-22 31 -22 273 0 304 28 39 80 45 393 42 341 -4 322 -9 322 96 0 104 91 95
-914 95 l-877 0 -25 25 c-25 25 -26 30 -22 130 2 68 8 109 16 117 15 15 199
23 772 36 259 5 363 11 385 21 22 10 104 13 322 15 320 1 316 0 329 62 5 28
-1 37 -61 99 -66 68 -67 69 -123 71 -31 1 -95 -3 -143 -11z m-702 -781 l28
-21 0 -148 0 -148 -28 -21 c-28 -20 -40 -21 -388 -24 l-359 -3 -25 25 c-24 24
-25 29 -25 171 0 142 1 147 25 171 l25 25 359 -3 c348 -3 360 -4 388 -24z"/>
<path d="M3100 1453 c-50 -8 -79 -26 -119 -73 -67 -80 -57 -99 71 -125 40 -8
99 -28 130 -45 31 -16 85 -36 119 -45 35 -9 94 -34 133 -55 39 -21 85 -41 102
-45 18 -3 54 -20 80 -37 58 -37 181 -78 232 -78 42 0 95 26 171 83 84 64 77
113 -17 137 -26 6 -72 24 -102 39 -30 16 -91 38 -135 50 -44 12 -99 33 -123
47 -23 14 -84 34 -135 45 -50 11 -120 33 -153 50 -51 24 -198 63 -222 58 -4
-1 -18 -4 -32 -6z"/>
</g>
</svg>
