<?xml version="1.0" standalone="no"?>
<!DOCTYPE svg PUBLIC "-//W3C//DTD SVG 20010904//EN"
 "http://www.w3.org/TR/2001/REC-SVG-20010904/DTD/svg10.dtd">
<svg version="1.0" xmlns="http://www.w3.org/2000/svg"
 width="905.000000pt" height="600.000000pt" viewBox="0 0 905.000000 600.000000"
 preserveAspectRatio="xMidYMid meet">
<metadata>
Created by potrace 1.15, written by Peter Selinger 2001-2017
</metadata>
<g transform="translate(0.000000,600.000000) scale(0.100000,-0.100000)"
fill="#000000" stroke="none">
<path d="M0 3000 l0 -3000 4525 0 4525 0 0 3000 0 3000 -4525 0 -4525 0 0
-3000z m8055 2085 c64 -31 60 126 63 -2105 2 -1465 -1 -2041 -9 -2056 -6 -11
-23 -28 -38 -37 -26 -15 -192 -17 -2082 -17 -1861 -1 -2058 1 -2101 15 -65 23
-77 40 -41 58 15 8 53 22 83 32 76 24 110 43 110 59 0 30 -140 119 -227 145
-34 10 -90 37 -124 60 -34 23 -68 41 -76 41 -24 0 -73 30 -73 44 0 34 27 38
268 39 211 2 241 4 265 20 36 23 42 41 27 76 -18 45 -51 54 -215 61 -236 10
-227 -3 -228 333 0 138 3 263 7 275 13 39 62 52 190 52 65 0 126 5 140 11 24
11 56 71 56 105 0 8 -11 26 -25 39 -23 24 -31 25 -137 25 -178 1 -229 36 -195
135 25 73 46 80 232 80 191 0 196 2 202 87 8 100 58 92 -585 89 -571 -3 -729
2 -758 24 -24 17 -11 56 26 78 44 26 48 58 16 126 -27 55 -27 62 -24 198 3
135 4 143 28 168 52 56 40 55 556 55 328 0 496 -4 535 -12 50 -10 60 -9 83 5
36 24 51 85 32 130 -29 70 1 67 -616 67 -508 0 -558 2 -590 18 -68 33 -76 112
-17 156 28 21 37 21 453 21 356 0 426 3 434 14 18 30 21 80 6 115 -20 48 -72
64 -160 48 -88 -16 -648 -15 -696 1 l-35 12 3 68 c5 87 -10 111 -79 131 -28 9
-65 24 -83 35 -45 28 -106 36 -131 18 -16 -12 -20 -31 -25 -122 -9 -159 -5
-158 -327 -153 -186 3 -214 5 -230 21 -16 16 -15 20 37 73 30 31 78 71 105 89
28 18 59 42 69 54 24 27 157 91 188 91 13 0 232 0 488 0 390 1 475 -1 525 -14
33 -9 100 -16 152 -16 79 0 96 3 113 20 25 25 32 54 28 116 l-3 49 -535 5
c-294 3 -543 9 -552 14 -29 13 -21 33 25 63 56 38 59 65 12 113 -21 21 -34 43
-31 49 4 6 31 18 60 26 45 13 124 15 525 13 l473 -3 18 -23 c15 -18 18 -38 17
-100 -1 -45 4 -86 11 -100 13 -22 16 -22 120 -16 173 11 192 31 192 197 0 57
5 119 11 136 16 45 0 77 -43 88 -18 4 -639 7 -1380 5 l-1348 -3 -14 -22 c-11
-18 -12 -55 -7 -189 9 -212 6 -208 140 -208 53 0 102 -4 110 -9 9 -6 20 -43
27 -96 18 -122 22 -125 155 -125 131 0 159 -8 159 -48 0 -33 -20 -55 -70 -76
-19 -8 -52 -28 -73 -45 -36 -28 -95 -52 -163 -66 -55 -11 -89 -66 -77 -126 3
-15 26 -50 52 -78 45 -48 50 -51 97 -51 27 0 76 7 107 15 46 12 129 15 406 15
346 0 348 0 382 -23 19 -12 40 -36 48 -52 12 -25 12 -32 -3 -60 -37 -68 -6
-66 -711 -65 -690 0 -678 1 -703 -55 -25 -54 -10 -123 32 -150 23 -15 29 -15
80 -1 47 14 134 16 633 16 545 0 580 -1 613 -19 19 -10 43 -32 53 -49 23 -39
24 -125 3 -177 -10 -22 -16 -67 -16 -109 0 -83 -21 -170 -49 -206 -11 -14 -37
-50 -57 -80 -21 -30 -53 -74 -73 -96 -20 -23 -44 -54 -54 -68 -25 -36 -48 -34
-248 15 -46 11 -85 42 -105 82 -9 18 -38 55 -64 83 -26 27 -55 64 -63 81 -20
38 -73 85 -116 103 -27 11 -49 11 -125 1 -175 -23 -177 -46 -20 -212 45 -47
55 -98 25 -128 -21 -21 -29 -21 -263 -21 l-241 1 -26 -25 c-39 -39 -36 -99 7
-137 32 -28 35 -29 145 -29 124 0 172 -15 194 -60 16 -31 17 -237 3 -330 -6
-36 -20 -101 -31 -145 -12 -44 -29 -125 -39 -180 -13 -75 -28 -119 -59 -178
-22 -43 -41 -85 -41 -93 0 -22 -28 -73 -65 -119 -18 -22 -39 -52 -46 -67 -8
-15 -33 -40 -56 -57 -24 -17 -45 -42 -49 -55 -10 -40 21 -85 79 -112 97 -45
176 -24 228 59 18 29 43 63 55 77 13 14 33 48 45 75 12 28 34 68 50 90 15 22
50 108 77 190 62 186 62 187 72 314 11 143 14 146 165 146 100 0 117 -2 142
-21 21 -16 27 -29 25 -50 -1 -16 -6 -83 -11 -149 -24 -308 -32 -386 -43 -410
-20 -44 -90 -70 -198 -73 -52 -1 -105 -5 -117 -8 -29 -6 -29 -31 -1 -62 13
-13 32 -42 43 -65 32 -66 51 -71 211 -52 75 8 146 21 157 27 62 33 165 121
181 154 21 45 38 166 41 294 5 201 18 387 31 430 8 25 14 69 14 99 0 102 67
189 123 160 12 -7 35 -23 50 -35 22 -19 41 -24 82 -24 43 0 60 -5 82 -24 l28
-24 3 -248 c4 -349 -2 -364 -166 -364 -51 0 -102 -5 -113 -11 -30 -15 -49 -67
-38 -98 18 -47 33 -50 207 -51 215 0 248 -18 155 -81 -27 -18 -62 -44 -79 -59
-20 -17 -56 -32 -107 -43 -43 -9 -103 -30 -135 -46 -31 -15 -90 -36 -130 -46
-111 -27 -117 -67 -15 -105 69 -26 83 -36 83 -62 0 -12 -12 -24 -35 -34 -30
-12 -136 -15 -678 -15 -435 -1 -651 2 -669 9 -63 25 -58 -143 -56 2103 3 1930
4 2046 21 2072 9 14 32 31 50 36 19 6 1410 10 3590 10 3193 1 3562 -1 3592
-14z m-5791 -386 c14 -11 26 -25 26 -31 0 -20 -175 -178 -224 -203 -48 -24
-57 -25 -245 -25 -167 0 -201 3 -231 18 -47 23 -70 72 -70 148 0 110 9 113
401 113 305 1 317 0 343 -20z m1149 -2142 c36 -23 41 -49 23 -111 -23 -79 -32
-81 -314 -81 -234 0 -234 0 -253 24 -34 42 -19 137 26 161 45 24 99 29 296 26
164 -2 201 -5 222 -19z m-835 -90 c5 -83 -44 -125 -108 -92 -36 19 -38 44 -9
91 26 42 46 55 84 51 28 -2 30 -5 33 -50z m-662 -62 c17 -4 22 -14 26 -50 7
-57 20 -73 85 -101 62 -28 68 -36 44 -58 -27 -24 -137 -39 -265 -34 -161 5
-207 38 -186 134 10 44 63 102 105 113 29 7 146 5 191 -4z m1467 -235 c34 -17
46 -55 23 -78 -14 -15 -50 -18 -244 -22 -235 -6 -284 -2 -310 23 -23 24 -7 66
31 83 43 19 457 15 500 -6z m6 -244 c21 -19 29 -78 13 -103 -17 -27 -70 -33
-288 -33 -211 0 -225 1 -244 20 -27 27 -27 93 1 121 20 20 29 20 259 17 217
-3 240 -5 259 -22z m-11 -284 c27 -16 30 -62 5 -84 -33 -30 -97 -38 -286 -38
-187 0 -188 0 -213 25 -33 33 -30 84 6 103 34 18 454 12 488 -6z m-67 -292
c29 -16 23 -34 -18 -61 -30 -19 -38 -31 -38 -54 0 -28 7 -33 95 -79 52 -26
126 -59 164 -72 38 -13 83 -35 101 -48 18 -14 52 -33 76 -42 45 -18 109 -60
109 -72 0 -4 -16 -18 -35 -30 l-34 -24 -635 1 c-540 0 -640 2 -670 15 -73 31
-57 65 42 92 79 21 102 30 162 65 25 15 80 34 122 43 53 12 95 29 137 56 102
66 103 109 2 146 -75 28 -87 43 -48 62 29 14 441 16 468 2z"/>
<path d="M4866 5010 c-35 -11 -70 -42 -99 -90 -22 -35 -22 -36 -29 -820 -16
-1661 -19 -2929 -8 -2970 13 -49 57 -80 112 -80 28 0 42 7 62 31 30 36 28 15
26 295 -2 241 5 292 47 336 31 33 114 53 176 43 23 -4 74 -22 112 -40 39 -19
92 -41 118 -50 26 -9 61 -28 77 -42 17 -13 56 -37 88 -53 32 -15 64 -35 72
-45 7 -9 37 -28 64 -42 28 -14 74 -40 101 -59 33 -22 75 -39 122 -49 40 -8
100 -26 134 -40 34 -13 96 -34 138 -46 59 -16 85 -30 116 -60 53 -51 140 -85
240 -94 44 -3 118 -15 165 -25 47 -10 135 -23 195 -29 61 -7 149 -19 198 -27
69 -12 99 -13 145 -4 31 6 100 15 154 20 118 11 147 23 221 93 57 54 57 54 57
113 0 59 -12 88 -51 124 -9 8 -40 57 -69 109 -47 84 -55 106 -66 188 -14 95
-29 137 -70 186 -13 16 -24 34 -24 40 0 6 -18 38 -39 71 -68 104 -75 197 -25
321 14 33 31 101 39 150 28 167 38 205 66 249 15 25 41 96 58 160 25 94 31
134 31 220 0 94 -3 111 -29 170 -22 49 -39 71 -68 89 -21 13 -45 32 -52 41
-23 27 -60 42 -145 60 -44 9 -99 28 -123 41 -23 14 -75 32 -115 41 -46 10 -91
28 -123 49 -27 19 -76 43 -108 55 -35 13 -66 33 -79 50 -11 15 -42 40 -69 55
-51 27 -61 48 -31 63 24 13 306 27 514 26 148 -1 193 -5 271 -24 160 -39 207
-13 207 112 0 40 -6 80 -14 96 -16 31 -71 85 -101 99 -41 21 -240 75 -279 76
-50 2 -167 -55 -234 -114 -78 -68 -192 -70 -276 -6 -25 19 -65 40 -90 47 -60
17 -83 42 -68 75 15 32 79 50 162 46 36 -2 95 -5 131 -5 64 -1 68 0 112 41 25
23 69 54 99 69 48 25 65 28 173 31 81 2 143 10 190 23 39 11 90 25 114 31 33
8 57 24 93 62 75 81 75 86 -23 194 -21 22 -137 63 -204 70 -58 6 -206 -46
-255 -91 -45 -40 -95 -56 -199 -62 -65 -4 -79 -9 -108 -34 -18 -16 -48 -37
-66 -46 -17 -9 -46 -27 -62 -40 -39 -29 -213 -68 -264 -59 -57 10 -78 30 -115
108 -55 112 -112 216 -131 237 -38 42 -90 52 -272 48 l-171 -3 -53 -37 c-33
-22 -81 -43 -124 -54 -54 -13 -78 -26 -105 -52 -43 -44 -154 -108 -213 -124
-61 -16 -101 1 -129 56 -17 32 -23 66 -28 161 -5 101 -11 129 -33 177 -14 31
-35 62 -46 67 -23 13 -74 13 -115 1z m1170 -554 c58 -60 64 -69 64 -109 0 -47
-22 -87 -48 -87 -9 0 -32 15 -52 34 -34 33 -97 62 -229 106 -182 60 -188 104
-16 121 44 4 111 6 149 4 l68 -2 64 -67z m-818 -131 c28 -9 65 -27 82 -41 34
-29 119 -59 212 -74 34 -5 68 -16 76 -24 13 -12 10 -16 -16 -30 -42 -22 -185
-31 -241 -16 -24 6 -60 22 -81 36 -20 13 -70 34 -110 45 -88 24 -102 34 -98
68 6 49 80 64 176 36z m997 -240 c18 -13 58 -35 89 -49 39 -18 62 -35 77 -60
11 -19 36 -44 55 -55 36 -21 46 -54 19 -65 -20 -7 -45 2 -75 29 -23 21 -60 35
-166 64 -28 7 -56 27 -88 61 -51 54 -53 61 -30 84 24 24 82 20 119 -9z m-1066
-145 c86 -28 141 -40 181 -40 70 0 104 -24 146 -100 15 -27 44 -63 66 -81 25
-19 50 -53 64 -85 16 -37 36 -61 66 -82 48 -33 119 -106 138 -143 7 -13 52
-62 100 -109 47 -47 96 -102 109 -122 12 -21 26 -38 30 -38 13 0 42 -60 77
-162 61 -177 60 -171 41 -231 -13 -40 -17 -90 -17 -197 l0 -142 39 -39 c21
-22 47 -39 56 -39 24 0 78 59 106 117 22 45 23 58 22 264 l0 217 -48 147 c-32
96 -58 159 -78 183 -16 20 -38 57 -49 81 -10 25 -38 66 -61 92 -23 27 -64 75
-92 109 -27 33 -87 99 -132 147 -91 95 -104 129 -60 157 19 13 32 13 92 1 89
-17 124 -30 155 -60 14 -13 47 -33 74 -45 27 -11 65 -33 85 -49 20 -16 59 -40
87 -54 27 -14 56 -33 64 -42 8 -9 43 -32 79 -50 36 -18 75 -43 86 -55 11 -12
45 -35 75 -51 30 -17 69 -40 87 -53 19 -14 65 -30 120 -40 56 -11 110 -30 148
-51 33 -18 83 -42 110 -52 73 -28 171 -106 185 -147 17 -51 -4 -117 -55 -174
-23 -26 -45 -56 -50 -67 -5 -11 -12 -117 -15 -235 -7 -232 -15 -270 -56 -270
-30 0 -128 91 -171 157 -47 74 -50 99 -19 165 33 70 36 157 6 205 -38 62 -141
69 -196 12 l-29 -30 -3 -232 -3 -232 54 -90 c36 -60 68 -101 98 -122 77 -57
167 -140 249 -229 41 -45 60 -76 74 -120 10 -32 25 -72 33 -87 8 -16 23 -61
33 -102 22 -87 48 -141 85 -175 31 -29 75 -110 75 -139 0 -13 -12 -27 -31 -36
-27 -15 -48 -15 -177 -5 -80 6 -150 14 -155 17 -5 3 -86 9 -181 13 -122 6
-184 13 -216 25 -25 9 -90 29 -145 44 -112 30 -239 83 -271 113 -12 11 -28 40
-35 65 -7 25 -27 65 -45 88 -17 23 -41 64 -53 90 -11 25 -33 61 -47 78 -15 18
-39 59 -54 92 -15 33 -35 67 -45 75 -10 8 -33 47 -50 85 -18 39 -44 87 -58
108 -14 21 -33 63 -42 93 -9 31 -30 71 -49 92 -18 20 -41 60 -50 89 -9 28 -28
63 -42 78 -14 15 -37 46 -51 69 -15 22 -51 69 -80 102 -42 48 -65 65 -98 74
-84 23 -121 -9 -132 -114 -6 -57 11 -104 47 -129 28 -19 124 -160 159 -232 15
-33 45 -84 65 -114 20 -29 36 -59 36 -66 0 -8 18 -35 40 -60 23 -26 51 -68 64
-93 13 -26 34 -56 46 -67 13 -11 35 -38 49 -61 15 -22 43 -55 64 -73 20 -18
37 -40 37 -48 0 -7 16 -30 35 -50 41 -42 42 -67 2 -71 -44 -5 -97 31 -288 199
-35 31 -82 68 -104 82 -22 15 -52 36 -66 48 -14 11 -57 29 -95 40 -38 10 -88
24 -111 31 -37 11 -52 9 -118 -10 -123 -36 -208 -26 -223 27 -4 14 -7 449 -7
966 0 884 1 943 18 968 24 37 47 35 196 -13z"/>
</g>
</svg>
