<?xml version="1.0" standalone="no"?>
<!DOCTYPE svg PUBLIC "-//W3C//DTD SVG 20010904//EN"
 "http://www.w3.org/TR/2001/REC-SVG-20010904/DTD/svg10.dtd">
<svg version="1.0" xmlns="http://www.w3.org/2000/svg"
 width="886.000000pt" height="600.000000pt" viewBox="0 0 886.000000 600.000000"
 preserveAspectRatio="xMidYMid meet">
<metadata>
Created by potrace 1.15, written by Peter Selinger 2001-2017
</metadata>
<g transform="translate(0.000000,600.000000) scale(0.100000,-0.100000)"
fill="#000000" stroke="none">
<path d="M0 3000 l0 -3000 4430 0 4430 0 0 3000 0 3000 -4430 0 -4430 0 0
-3000z m2452 1961 c1093 0 1231 -2 1258 -16 36 -19 39 -47 8 -69 -20 -14 -155
-16 -1243 -16 -1188 0 -1221 -1 -1252 -19 l-31 -20 -4 -133 c-2 -73 0 -143 4
-155 10 -32 74 -46 190 -41 126 5 141 16 115 84 -15 41 -15 49 -2 75 31 58 37
59 460 59 l386 0 24 -25 c31 -30 34 -84 6 -109 -18 -16 -49 -18 -354 -17 -357
2 -382 -1 -393 -46 -8 -32 3 -83 23 -105 15 -17 40 -18 353 -18 313 0 339 -1
360 -18 29 -23 21 -69 -13 -77 -12 -3 -209 -6 -438 -8 -394 -2 -418 -3 -438
-21 -20 -19 -21 -27 -21 -313 0 -202 4 -301 11 -316 7 -12 30 -39 52 -59 33
-32 38 -40 27 -53 -27 -32 -108 -45 -283 -45 l-170 0 -43 -44 c-24 -24 -44
-48 -44 -54 0 -17 50 -72 81 -87 24 -13 123 -15 647 -15 l619 0 24 -26 c23
-24 24 -32 24 -159 0 -127 -1 -135 -24 -159 l-24 -26 -243 0 c-148 0 -262 5
-292 12 -63 14 -105 -1 -130 -46 -15 -27 -17 -73 -19 -388 -1 -319 -3 -359
-19 -383 -34 -52 -53 -55 -316 -55 -136 0 -259 -5 -280 -10 -51 -14 -68 -43
-68 -111 0 -86 12 -93 171 -97 93 -3 149 1 199 12 117 27 223 0 258 -65 9 -18
12 -86 10 -267 l-3 -244 -47 -40 c-54 -45 -58 -62 -33 -145 22 -75 48 -103 95
-103 31 0 43 6 59 29 26 37 56 48 162 60 67 8 102 18 152 45 44 23 85 36 124
40 127 13 197 27 236 50 23 13 63 31 89 41 67 25 75 37 53 85 -10 21 -28 49
-41 61 -34 32 -117 22 -209 -27 -58 -30 -88 -39 -180 -50 -146 -18 -142 -19
-181 20 l-34 34 0 196 c0 215 5 237 57 271 23 15 48 19 133 18 139 0 215 -21
238 -66 9 -18 33 -48 53 -67 20 -19 46 -53 57 -75 23 -46 59 -81 120 -119 24
-15 46 -34 49 -42 3 -9 30 -27 60 -41 30 -14 61 -37 70 -49 10 -16 37 -30 79
-43 41 -12 79 -32 103 -54 30 -27 49 -35 95 -41 60 -7 90 -19 151 -61 20 -13
57 -26 83 -29 135 -16 187 -28 242 -57 49 -25 78 -33 169 -41 129 -12 152 -8
189 34 15 17 50 41 79 54 28 13 54 28 58 34 12 20 -15 39 -73 51 -31 6 -64 15
-73 20 -31 16 -216 48 -329 57 -126 10 -154 20 -250 84 -48 32 -66 50 -68 69
-4 34 14 48 89 65 43 10 73 25 99 48 25 22 55 38 89 45 67 14 97 30 147 79 28
27 45 54 53 85 l11 46 159 -6 c152 -6 159 -5 180 16 42 42 18 185 -33 196 -11
2 -97 6 -191 8 -179 3 -245 17 -245 52 0 9 18 33 40 55 54 53 59 79 26 141
-32 62 -32 68 -1 129 28 56 32 114 11 165 l-15 35 -766 0 -766 0 -24 25 c-30
29 -32 58 -5 85 20 20 33 20 799 20 550 0 787 -3 810 -11 45 -16 76 0 91 46
15 45 6 96 -20 120 -18 17 -27 17 -103 6 -57 -9 -193 -12 -452 -9 -422 3 -430
5 -459 79 -22 55 -31 165 -17 216 21 78 -23 73 717 73 639 0 661 1 678 19 40
44 27 166 -17 176 -12 2 -113 6 -224 7 -194 3 -203 4 -225 25 l-22 22 26 64
c26 64 27 66 29 357 l2 293 -27 23 -26 23 -433 0 c-424 0 -432 0 -448 20 -18
22 -15 56 5 69 6 4 181 9 388 12 427 6 407 1 415 87 8 81 25 77 -419 83 -371
5 -390 6 -404 24 -33 46 -10 90 58 111 43 12 121 15 445 15 251 0 401 -4 414
-10 30 -17 49 -64 49 -124 0 -79 10 -86 131 -86 138 0 136 -2 135 176 -1 109
-5 150 -20 190 -11 28 -16 59 -13 68 17 45 37 46 762 46 672 0 685 0 705 -20
35 -35 22 -75 -35 -109 -24 -14 -43 -37 -56 -66 -11 -24 -30 -57 -43 -72 -13
-15 -32 -49 -43 -74 -12 -26 -33 -55 -48 -65 -15 -11 -42 -34 -59 -52 -19 -21
-49 -38 -85 -49 -35 -10 -65 -27 -85 -48 -17 -19 -45 -40 -62 -47 -18 -7 -55
-39 -84 -71 -42 -46 -51 -62 -46 -81 9 -38 54 -85 107 -112 27 -13 56 -35 65
-49 9 -13 24 -27 35 -30 10 -4 33 -18 49 -32 29 -24 30 -28 30 -107 0 -73 4
-90 30 -139 16 -31 30 -69 30 -84 0 -30 -69 -142 -125 -205 -19 -20 -41 -52
-51 -70 -9 -18 -32 -50 -50 -71 -32 -35 -34 -41 -34 -112 0 -67 14 -125 29
-125 4 0 22 -13 41 -29 l35 -28 -3 -134 c-3 -154 4 -175 63 -202 76 -33 89
-42 109 -77 19 -31 21 -52 21 -200 l0 -165 56 -85 c67 -101 78 -112 155 -149
33 -16 66 -36 74 -46 7 -9 39 -29 70 -45 85 -43 88 -50 63 -123 -12 -34 -22
-82 -22 -107 -1 -90 -25 -149 -87 -211 -32 -32 -69 -63 -84 -69 -14 -6 -34
-24 -43 -40 -10 -15 -31 -40 -47 -54 -33 -27 -50 -63 -50 -105 0 -15 -14 -49
-31 -75 -31 -46 -31 -49 -18 -88 33 -101 91 -118 156 -44 21 24 45 56 53 72 8
16 34 50 57 76 24 26 43 54 43 62 0 8 12 29 26 46 21 25 33 30 58 28 l31 -3 0
-105 c0 -87 3 -111 19 -135 48 -74 91 -75 144 -3 72 99 80 138 36 179 -14 13
-35 42 -46 64 -11 22 -30 51 -42 63 l-21 24 27 23 c14 12 50 28 80 34 87 20
135 41 152 66 9 14 31 32 49 41 17 9 48 34 67 54 27 29 45 39 83 44 34 5 59
18 92 46 32 28 60 42 100 50 36 8 68 23 96 46 22 19 42 34 44 34 2 0 37 7 77
15 48 11 89 27 123 50 28 20 74 39 105 46 57 12 83 24 138 64 46 33 129 43
187 20 51 -19 85 -56 125 -135 16 -30 41 -79 56 -109 26 -50 28 -64 31 -195 2
-79 0 -147 -5 -155 -11 -15 -29 -16 -154 -6 l-86 8 -66 -66 c-60 -60 -68 -72
-77 -123 -21 -115 8 -174 86 -174 40 0 52 5 93 44 30 28 63 48 92 56 59 16 74
30 100 100 30 81 44 91 70 48 11 -18 27 -55 36 -81 15 -45 18 -48 47 -45 27 3
36 11 60 57 24 48 27 66 27 152 0 80 -5 109 -26 165 -16 43 -29 106 -35 167
-10 102 -22 138 -63 195 -14 19 -27 54 -31 85 -9 64 -24 102 -63 156 -17 23
-33 55 -37 70 -3 15 -24 49 -45 75 -22 27 -40 52 -40 56 0 5 -42 53 -94 108
-70 74 -96 109 -101 135 -8 43 6 72 44 92 29 14 42 41 56 112 3 17 20 51 37
75 27 36 33 56 40 128 9 93 31 211 72 390 27 114 27 115 79 163 29 26 79 61
112 76 59 28 107 72 175 161 33 42 35 50 35 120 0 73 -1 77 -47 145 -67 98
-165 201 -212 220 -22 9 -55 30 -74 46 -18 16 -51 37 -73 45 -23 10 -47 30
-60 50 -16 27 -32 37 -77 50 -37 11 -72 30 -99 55 -24 22 -50 39 -58 39 -21 0
-88 35 -104 54 -7 8 -41 24 -75 36 -34 11 -86 35 -114 54 -31 20 -77 38 -112
45 -41 8 -71 22 -94 41 -39 35 -75 50 -119 50 -18 0 -51 9 -74 20 -49 22 -57
54 -22 86 20 18 50 19 896 19 l875 0 24 -28 24 -28 -2 -1978 c-3 -1869 -4
-1978 -21 -2004 -9 -15 -29 -35 -44 -44 -26 -17 -118 -18 -1621 -21 -1056 -1
-1607 1 -1632 8 -52 14 -87 44 -115 101 -15 29 -37 55 -55 64 -16 8 -36 28
-44 43 -8 15 -26 38 -41 52 -53 49 -52 81 2 123 13 10 30 35 38 54 8 19 28 51
45 70 17 18 41 55 55 82 37 74 65 73 148 -1 49 -44 66 -84 67 -154 0 -34 52
-108 92 -130 27 -15 126 -18 148 -4 12 7 14 36 11 162 l-2 153 -38 40 c-23 24
-46 62 -56 93 -14 44 -23 56 -58 73 -34 18 -51 20 -109 15 l-68 -7 -95 95
c-81 83 -99 96 -127 96 -48 0 -74 -23 -87 -76 -9 -36 -9 -58 0 -94 7 -26 9
-59 5 -74 -10 -39 -72 -104 -127 -131 -51 -26 -59 -39 -59 -91 0 -49 -23 -89
-61 -104 -54 -23 -74 -101 -43 -163 26 -51 52 -74 111 -98 49 -20 57 -28 84
-80 16 -32 29 -66 29 -74 0 -46 36 -45 -1749 -45 -1909 0 -1713 -10 -1731 90
-7 36 -9 740 -8 2019 l3 1963 25 20 c24 19 34 20 190 15 91 -3 717 -6 1392 -6z
m3490 -190 c37 -7 74 -21 107 -44 27 -19 67 -38 88 -41 80 -15 113 -27 151
-59 25 -21 60 -38 94 -45 38 -9 64 -22 84 -43 19 -20 51 -36 99 -50 42 -13 82
-32 100 -49 17 -16 50 -36 75 -46 25 -10 61 -30 81 -45 20 -16 60 -37 90 -49
31 -11 68 -33 84 -50 17 -17 50 -36 82 -45 37 -11 59 -25 75 -46 13 -17 47
-42 76 -55 54 -24 102 -68 129 -118 16 -31 12 -111 -8 -149 -17 -30 -72 -47
-156 -47 -96 0 -136 11 -185 51 -21 17 -59 37 -83 46 -25 8 -60 30 -77 49 -21
22 -45 36 -68 39 -72 12 -111 27 -146 57 -23 21 -56 36 -97 45 -36 8 -83 28
-113 49 -35 23 -75 39 -125 50 -71 15 -85 21 -139 64 -14 10 -54 24 -89 29
-46 8 -75 19 -100 39 -52 42 -70 50 -145 63 -52 9 -76 19 -103 43 -21 18 -63
40 -102 51 -61 19 -69 25 -103 75 -45 66 -47 98 -10 165 20 38 36 53 62 62 42
14 291 17 372 4z m-527 -475 c19 -8 40 -27 47 -42 11 -24 10 -29 -15 -50 -51
-43 -188 -46 -233 -3 -31 29 -30 44 2 74 39 36 137 46 199 21z m-3088 -166
c57 -20 71 -93 23 -117 -18 -9 -90 -13 -253 -13 -285 0 -350 14 -332 70 15 49
43 55 285 60 124 3 230 7 236 8 6 1 25 -3 41 -8z m951 0 c22 0 52 -40 52 -69
0 -58 -14 -61 -322 -61 -152 0 -288 4 -301 9 -14 6 -28 19 -32 30 -8 26 14 72
41 86 16 8 386 11 562 5z m2726 -75 c22 -13 69 -28 103 -34 64 -10 95 -22 126
-50 10 -9 46 -29 80 -46 52 -25 63 -35 65 -59 3 -23 -4 -36 -36 -66 -32 -29
-42 -46 -47 -84 -10 -66 6 -81 86 -81 58 0 63 2 93 36 33 39 189 119 232 119
66 0 93 -124 47 -213 -19 -39 -68 -57 -170 -64 -84 -6 -86 -7 -151 -57 -117
-91 -137 -121 -113 -172 10 -23 14 -24 123 -24 133 0 162 -10 166 -58 4 -44
-26 -90 -100 -155 -34 -28 -92 -87 -129 -130 -53 -62 -69 -88 -74 -120 -18
-118 84 -155 178 -66 116 111 169 166 182 190 8 14 26 34 40 43 14 10 35 38
46 64 11 26 34 61 50 78 19 20 36 54 48 99 19 67 52 112 72 99 24 -14 42 -73
42 -130 0 -60 -18 -109 -47 -133 -9 -8 -25 -43 -36 -80 -14 -49 -30 -76 -59
-105 -22 -21 -42 -50 -46 -65 -4 -14 -23 -48 -44 -76 -21 -27 -44 -65 -51 -83
-7 -18 -29 -45 -49 -60 -20 -15 -52 -43 -73 -63 -20 -20 -50 -40 -68 -44 -17
-4 -53 -26 -80 -50 -27 -24 -65 -48 -86 -55 -20 -7 -57 -28 -81 -46 -28 -22
-63 -37 -102 -45 -39 -7 -79 -25 -116 -50 -32 -22 -63 -39 -69 -39 -63 0 -189
-25 -228 -45 -79 -41 -123 -32 -298 59 -111 57 -147 214 -68 298 17 18 44 61
61 96 51 109 28 149 -96 166 -57 9 -87 35 -87 76 0 74 39 106 155 130 79 16
94 25 111 65 31 76 5 172 -51 187 -43 12 -101 0 -170 -33 -76 -37 -173 -41
-205 -9 -29 29 -27 97 5 141 14 19 32 50 41 69 15 32 41 62 136 159 52 52 58
75 58 216 0 122 0 124 26 144 24 19 40 21 155 21 l128 0 16 30 c16 31 44 49
110 70 22 7 51 23 65 35 14 13 34 25 45 28 35 9 96 -3 139 -28z m-3639 -180
c41 -40 28 -139 -19 -151 -12 -3 -139 -4 -283 -2 -261 3 -261 3 -287 27 -32
30 -36 89 -8 114 35 32 70 36 320 36 l253 1 24 -25z m955 5 c15 -15 20 -33 20
-70 0 -37 -5 -55 -20 -70 -19 -19 -33 -20 -317 -20 -346 0 -333 -3 -333 91 0
91 -9 89 337 89 280 0 294 -1 313 -20z m3716 -274 c16 -12 19 -26 18 -93 0
-81 -15 -127 -46 -147 -14 -8 -22 -7 -35 7 -13 13 -18 39 -21 112 -4 81 -2 99
13 115 21 24 44 25 71 6z m-3590 -1152 c40 -19 69 -57 61 -78 -12 -31 -127
-36 -796 -36 l-663 0 -29 29 c-16 16 -29 38 -29 49 0 22 27 48 54 53 11 2 323
3 693 2 607 -2 677 -4 709 -19z m3436 -114 c17 -23 17 -32 7 -79 -9 -42 -17
-56 -42 -72 -18 -10 -39 -19 -48 -19 -9 0 -36 -15 -60 -33 -24 -19 -72 -43
-106 -55 -34 -11 -79 -34 -100 -51 -23 -18 -64 -36 -106 -47 -46 -11 -82 -28
-108 -50 -22 -18 -47 -35 -57 -38 -9 -3 -36 -10 -59 -16 -23 -6 -60 -26 -82
-45 -28 -23 -60 -37 -98 -46 -39 -8 -70 -22 -96 -44 -38 -33 -100 -55 -155
-55 -49 0 -81 54 -59 101 14 30 121 129 140 129 34 0 91 24 122 51 19 17 62
39 95 49 33 10 76 32 95 48 34 31 38 33 113 52 23 6 58 25 77 41 19 17 62 39
95 49 33 10 76 32 95 49 19 16 54 35 77 40 24 6 68 24 98 40 71 39 133 39 162
1z m-3487 -180 c34 -17 51 -32 53 -47 7 -48 3 -48 -713 -51 -368 -1 -680 0
-692 3 -53 13 -67 90 -21 113 16 8 212 10 673 9 l650 -2 50 -25z m-164 -320
c27 -15 25 -72 -3 -103 -13 -13 -44 -32 -69 -41 -25 -9 -62 -31 -82 -49 -28
-27 -58 -40 -142 -62 l-106 -28 -74 37 c-41 20 -75 41 -75 45 0 7 -12 19 -84
86 -32 30 -34 71 -4 102 l21 23 299 0 c187 0 307 -4 319 -10z"/>
<path d="M6542 1693 c-32 -13 -141 -133 -160 -176 -12 -27 -31 -61 -43 -78
l-21 -30 -132 3 c-72 1 -137 -1 -144 -6 -7 -4 -24 -24 -38 -44 -13 -21 -36
-52 -49 -71 -44 -60 -27 -152 37 -206 16 -14 40 -25 53 -25 30 0 86 48 127
109 17 25 46 59 64 74 19 15 42 48 53 73 28 62 74 56 95 -13 10 -32 32 -46 76
-46 59 0 84 22 103 91 9 35 30 76 50 100 62 73 75 202 24 237 -21 15 -69 19
-95 8z"/>
<path d="M5830 3898 c-25 -5 -75 -7 -111 -4 l-65 6 -15 -33 c-8 -17 -29 -41
-46 -52 -41 -25 -52 -59 -28 -85 10 -11 22 -20 26 -20 5 0 30 -14 56 -31 40
-25 54 -29 88 -24 21 3 53 14 70 24 39 25 124 40 202 38 101 -3 147 48 108
120 -20 37 -50 50 -138 58 -34 3 -71 8 -82 9 -11 2 -40 -1 -65 -6z"/>
<path d="M5540 3512 c-19 -11 -36 -26 -38 -33 -1 -8 15 -32 36 -52 39 -38 42
-39 158 -53 207 -24 258 -16 283 45 35 83 -5 102 -239 108 -149 4 -168 2 -200
-15z"/>
</g>
</svg>
