<?xml version="1.0" standalone="no"?>
<!DOCTYPE svg PUBLIC "-//W3C//DTD SVG 20010904//EN"
 "http://www.w3.org/TR/2001/REC-SVG-20010904/DTD/svg10.dtd">
<svg version="1.0" xmlns="http://www.w3.org/2000/svg"
 width="915.000000pt" height="600.000000pt" viewBox="0 0 915.000000 600.000000"
 preserveAspectRatio="xMidYMid meet">
<metadata>
Created by potrace 1.15, written by Peter Selinger 2001-2017
</metadata>
<g transform="translate(0.000000,600.000000) scale(0.100000,-0.100000)"
fill="#000000" stroke="none">
<path d="M0 3000 l0 -3000 4530 0 4530 0 0 3000 0 3000 -4530 0 -4530 0 0
-3000z m2945 2062 c7 -4 8 -127 5 -350 -6 -401 3 -372 -125 -391 -118 -17
-140 -15 -165 17 -21 25 -22 34 -16 127 3 55 9 121 12 146 5 39 3 50 -15 68
-19 19 -32 21 -127 21 -58 0 -114 -4 -124 -10 -31 -17 -40 -67 -40 -230 0 -87
-5 -171 -11 -188 -15 -42 -77 -72 -152 -72 -67 0 -90 17 -107 79 -6 23 -21 53
-34 68 -24 27 -26 28 -120 25 -168 -5 -206 31 -206 195 0 86 4 109 25 155 14
30 26 76 27 103 3 44 0 50 -23 62 -38 18 -197 34 -242 24 -82 -19 -92 -56 -61
-233 22 -128 16 -229 -15 -262 -28 -30 -104 -48 -193 -46 -123 3 -128 2 -164
-34 -64 -64 -28 -156 62 -157 10 0 67 0 127 1 89 1 113 -1 140 -17 56 -33 57
-40 57 -369 0 -273 -2 -304 -17 -322 -17 -19 -86 -43 -312 -108 -82 -24 -121
-46 -121 -67 0 -5 15 -27 33 -48 17 -21 43 -52 56 -70 24 -31 25 -31 95 -27
48 3 102 17 169 42 54 20 148 46 209 57 60 11 127 28 147 38 44 23 128 47 196
56 73 10 151 42 190 79 31 30 35 39 35 84 0 101 -64 124 -189 68 -79 -35 -162
-41 -204 -13 l-27 17 0 261 0 261 38 38 c49 49 112 62 168 34 31 -15 48 -38
91 -114 29 -52 63 -103 76 -113 22 -17 28 -17 110 -2 102 19 121 13 137 -45 7
-24 10 -169 10 -384 -1 -352 4 -408 38 -439 9 -9 77 -30 150 -47 72 -17 132
-35 132 -40 0 -9 -31 -20 -110 -41 -31 -9 -210 -14 -566 -18 -495 -6 -523 -7
-543 -25 -23 -21 -28 -74 -11 -105 21 -39 53 -42 481 -44 347 -2 419 -4 444
-17 39 -20 40 -55 2 -84 -28 -21 -34 -21 -631 -21 -496 0 -606 -2 -619 -14
-15 -12 -17 -39 -17 -211 0 -228 -2 -223 96 -241 79 -15 151 -6 181 23 23 21
24 26 17 114 -6 89 -6 93 18 117 35 35 65 37 528 34 363 -2 408 -4 438 -20 38
-20 35 -6 32 -223 -2 -190 2 -207 55 -230 49 -20 151 -18 202 5 l41 19 -5 180
c-3 98 -3 191 1 205 3 15 18 35 33 44 25 17 66 18 488 19 501 1 518 0 531 -51
6 -25 1 -87 -12 -162 -5 -25 -1 -37 19 -57 24 -24 33 -26 117 -26 90 0 149 14
165 41 5 7 7 89 6 182 -2 171 -11 223 -42 243 -8 5 -286 9 -619 9 -552 0 -608
1 -636 17 -52 29 -55 64 -6 89 22 11 111 14 442 16 228 1 432 4 453 7 55 6 77
30 76 80 -1 62 -11 77 -69 105 -30 14 -56 32 -58 39 -7 24 67 43 180 47 159 6
198 20 283 102 81 78 126 152 107 176 -7 8 -49 36 -94 62 -61 37 -94 50 -133
53 -61 5 -79 -8 -96 -71 -24 -88 -29 -93 -155 -132 l-116 -36 -406 3 c-443 3
-448 4 -502 62 l-24 27 3 357 c3 443 0 432 149 473 80 23 112 24 138 5 18 -14
19 -33 24 -365 5 -319 7 -352 23 -368 14 -14 38 -19 108 -22 95 -3 142 8 154
37 7 17 29 324 26 372 -16 372 -13 417 33 438 13 6 75 16 137 23 128 14 162 6
186 -41 16 -30 9 -168 -14 -280 -8 -41 -17 -85 -19 -97 -7 -37 -48 -56 -132
-61 -114 -7 -136 -37 -91 -129 28 -58 87 -93 157 -93 62 0 195 17 238 31 24 7
150 122 155 141 1 6 21 466 25 617 6 169 -2 207 -43 217 -32 9 -210 -29 -309
-65 -47 -17 -123 -34 -186 -42 -156 -19 -150 -27 -146 211 l3 185 34 75 c31
68 33 79 23 115 -6 22 -8 42 -5 45 2 3 1072 5 2376 5 2003 0 2377 -2 2405 -14
67 -28 62 135 62 -2099 l0 -2029 -26 -24 -26 -24 -3605 0 -3605 0 -29 33 -29
32 0 2011 c0 2172 -3 2036 52 2085 12 12 30 24 38 27 23 8 2014 8 2025 -1z"/>
<path d="M6160 4824 c-57 -8 -119 -22 -137 -32 -104 -55 -174 -101 -221 -144
-30 -26 -57 -48 -61 -48 -4 0 -15 -14 -24 -30 -35 -59 -108 -74 -217 -45 -70
19 -210 19 -253 1 -46 -19 -196 -185 -216 -238 -5 -13 -14 -64 -20 -114 -16
-130 6 -244 54 -284 24 -20 41 -58 55 -123 15 -74 10 -91 -44 -162 -25 -32
-51 -74 -57 -94 -7 -20 -30 -71 -53 -114 l-41 -79 -5 -246 c-6 -262 -4 -249
-63 -344 -44 -72 -54 -212 -21 -303 4 -11 26 -38 49 -60 75 -70 71 -165 -11
-267 -39 -49 -54 -93 -54 -158 0 -84 11 -119 47 -153 19 -18 48 -57 64 -87 83
-153 202 -279 303 -324 32 -14 75 -40 95 -57 93 -80 145 -110 176 -104 95 19
183 18 255 -4 108 -33 325 -53 430 -41 107 14 149 25 206 55 36 19 51 22 70
14 39 -14 117 -69 138 -96 39 -51 119 -71 217 -53 93 17 188 81 325 220 122
122 149 167 161 273 6 47 5 48 -55 111 -87 90 -92 135 -22 211 49 53 131 166
154 214 12 25 34 63 49 84 14 21 31 64 37 95 6 31 18 84 27 117 9 33 19 96 24
140 4 44 17 110 28 147 12 37 26 104 32 150 5 45 17 116 25 158 20 108 19 277
-3 326 -16 35 -18 68 -15 300 l4 260 -26 64 c-35 86 -34 117 8 171 41 53 50
90 36 134 -13 40 -59 65 -122 65 -65 0 -89 17 -114 82 -25 65 -69 122 -164
215 -71 70 -97 87 -150 98 -19 4 -62 20 -95 36 -141 66 -549 97 -805 63z m536
-237 c45 -52 22 -161 -56 -268 -27 -38 -29 -46 -24 -98 6 -55 5 -58 -27 -85
-30 -26 -38 -28 -102 -24 -60 3 -73 7 -92 30 -21 25 -22 33 -21 194 3 256 25
286 209 281 84 -2 90 -4 113 -30z m-540 -45 c29 -19 34 -52 28 -194 -6 -141
-18 -188 -46 -188 -6 0 -47 18 -90 41 -47 24 -100 42 -130 46 -110 13 -118 80
-22 187 54 61 105 93 169 109 32 8 79 7 91 -1z m854 -61 c19 -15 55 -37 80
-48 71 -32 85 -53 85 -133 0 -82 -18 -113 -85 -147 -50 -26 -139 -31 -180 -10
-22 11 -25 19 -23 57 2 25 3 94 3 154 -1 82 3 114 15 132 21 33 62 31 105 -5z
m-1530 -159 c34 -28 30 -70 -12 -107 -19 -16 -52 -59 -72 -95 -45 -77 -93
-130 -118 -130 -31 0 -51 63 -46 145 3 66 6 76 46 128 44 59 73 74 143 76 22
1 46 -6 59 -17z m215 -226 c15 -11 17 -22 12 -70 -3 -31 -12 -68 -20 -84 -8
-15 -21 -40 -30 -57 -8 -16 -21 -50 -27 -74 -6 -24 -23 -55 -36 -68 -22 -22
-32 -25 -79 -21 -77 6 -105 28 -105 81 0 42 20 84 47 100 42 25 84 73 106 121
37 79 86 106 132 72z m336 -101 c37 -20 69 -70 69 -110 -1 -16 -9 -48 -20 -70
-11 -22 -19 -61 -20 -87 0 -91 -38 -125 -128 -116 -111 11 -137 49 -104 152
12 37 22 78 22 93 0 42 22 102 46 128 27 30 88 34 135 10z m1437 -11 c2 -12
-8 -42 -22 -67 -23 -45 -24 -52 -19 -185 l6 -138 -28 -22 c-33 -26 -77 -29
-96 -5 -18 21 -15 116 6 174 8 24 15 63 15 86 0 45 50 167 72 176 28 12 63 2
66 -19z m-330 -77 c19 -15 14 -49 -12 -76 -18 -19 -28 -46 -36 -96 -14 -86
-35 -123 -86 -152 -47 -27 -147 -32 -181 -8 -46 32 -68 166 -37 231 17 35 87
98 126 113 29 11 209 2 226 -12z m-581 -50 c24 -24 28 -36 31 -100 8 -146 -24
-191 -132 -191 -97 0 -196 60 -196 118 0 21 37 131 56 167 18 37 26 39 126 36
81 -2 90 -4 115 -30z m-1108 -335 c51 -25 74 -63 75 -119 1 -85 -11 -119 -60
-165 -33 -31 -49 -57 -61 -97 -17 -61 -87 -145 -129 -155 -30 -8 -100 22 -129
53 -27 31 -26 92 3 128 20 26 56 78 119 174 17 26 23 49 23 91 0 76 25 108 83
108 23 0 57 -8 76 -18z m523 -114 c23 -19 58 -80 58 -103 0 -11 -22 -56 -49
-100 -49 -80 -64 -120 -75 -205 -4 -25 -16 -60 -26 -78 l-20 -33 -98 6 c-114
8 -135 16 -158 63 -15 33 -15 39 0 89 10 29 34 73 56 98 31 35 42 60 55 121
22 97 43 122 120 138 80 18 118 19 137 4z m1022 -59 c44 -38 54 -82 33 -141
-9 -24 -29 -79 -45 -123 -16 -44 -33 -102 -37 -130 -8 -56 -55 -147 -88 -170
-14 -10 -45 -15 -88 -15 -131 0 -161 20 -161 106 0 37 7 54 32 85 43 54 52 90
44 185 -5 61 -2 95 10 135 24 81 26 83 108 90 150 12 154 12 192 -22z m-546
-21 c20 -10 32 -28 45 -68 l18 -55 -42 -140 c-53 -177 -60 -190 -106 -206 -42
-13 -181 -6 -214 12 -25 13 -58 83 -59 121 0 20 17 47 61 95 67 73 89 114 89
163 0 43 16 69 53 86 36 16 112 12 155 -8z m920 -12 c48 -26 85 -84 90 -142 5
-54 4 -56 -96 -264 -19 -38 -82 -80 -123 -80 -67 0 -81 81 -36 211 21 58 27
95 27 160 0 46 4 89 8 95 23 34 85 43 130 20z m-1609 -596 c27 -14 55 -92 47
-127 -4 -15 -45 -66 -91 -113 -58 -59 -92 -104 -111 -145 -33 -73 -78 -136
-107 -152 -32 -18 -138 -16 -164 2 -30 21 -63 77 -63 107 0 30 19 48 73 68 53
20 71 48 102 155 35 125 75 196 120 216 25 11 168 3 194 -11z m-549 -10 c11
-6 24 -27 31 -48 10 -33 8 -45 -11 -89 -25 -59 -60 -96 -86 -91 -26 5 -64 66
-64 102 0 17 12 49 26 71 43 64 65 76 104 55z m1047 -85 c24 -10 35 -23 44
-53 16 -55 7 -82 -49 -146 -53 -61 -72 -108 -72 -182 0 -70 -26 -108 -83 -123
-48 -11 -293 -16 -321 -5 -39 15 9 142 87 231 56 62 107 144 107 170 0 11 -5
34 -11 52 -12 35 -2 56 36 72 28 12 222 0 262 -16z m971 -46 c36 -12 70 -31
82 -46 18 -23 18 -27 4 -61 -9 -21 -25 -61 -36 -90 -11 -29 -30 -65 -42 -80
-13 -15 -35 -49 -49 -77 -14 -27 -37 -61 -52 -75 -15 -14 -36 -43 -47 -65 -34
-67 -56 -85 -105 -85 -56 0 -78 31 -78 111 0 49 5 64 36 110 20 30 42 65 49
79 7 14 28 43 46 64 19 22 36 55 39 75 12 77 26 135 36 148 16 18 45 16 117
-8z m-638 0 c19 -6 88 -14 154 -18 100 -6 120 -10 132 -26 23 -31 16 -70 -21
-121 -18 -27 -46 -67 -62 -89 -15 -22 -39 -54 -54 -71 -18 -22 -28 -48 -32
-85 -10 -86 -23 -92 -188 -87 -152 4 -182 14 -192 67 -11 51 7 83 111 201 38
43 45 57 52 113 8 70 21 101 48 116 9 6 17 11 17 11 0 0 16 -5 35 -11z m-1341
-581 c70 -62 131 -140 131 -168 0 -11 -25 -45 -55 -75 -42 -43 -61 -55 -85
-55 -60 0 -112 43 -164 133 -41 72 -41 78 10 143 72 93 80 94 163 22z m760
-72 c23 -21 28 -65 10 -98 -6 -11 -30 -28 -53 -39 -53 -23 -116 -90 -151 -159
-14 -28 -45 -72 -67 -96 -51 -56 -153 -124 -184 -124 -31 0 -141 75 -149 101
-14 42 7 83 71 144 63 60 64 62 64 114 0 48 4 58 46 111 25 33 54 61 63 64 9
2 86 4 172 3 139 -2 159 -4 178 -21z m395 -36 c119 -12 141 -19 152 -52 5 -17
-3 -30 -39 -62 -74 -68 -113 -152 -128 -276 -13 -112 -9 -110 -243 -110 -157
0 -196 3 -214 16 -27 19 -28 43 -3 92 19 38 29 45 112 80 42 18 49 26 67 74
31 83 90 200 114 225 24 26 33 27 182 13z m448 -67 c30 -27 60 -91 56 -121 -3
-27 -4 -27 -88 -30 -87 -2 -123 8 -143 40 -14 21 17 92 52 120 31 24 91 20
123 -9z m184 -188 c24 -15 35 -56 27 -98 -6 -29 -45 -63 -176 -154 -34 -23
-65 -50 -70 -59 -13 -24 -68 -44 -89 -33 -30 16 -40 45 -28 87 14 54 37 70
119 86 94 18 101 25 101 98 0 83 12 102 58 93 21 -3 47 -13 58 -20z"/>
<path d="M1874 2360 c-258 -5 -274 -9 -274 -57 0 -31 39 -66 88 -81 25 -8 117
-12 244 -12 231 0 241 -3 208 -58 -13 -20 -28 -32 -42 -33 -123 -4 -296 4
-356 17 -67 15 -74 15 -98 0 -31 -21 -46 -59 -42 -105 5 -56 29 -60 346 -60
259 -1 273 0 292 19 27 27 25 71 -5 145 -14 33 -25 63 -25 67 0 4 11 24 25 44
50 74 21 125 -67 122 -29 -1 -161 -5 -294 -8z"/>
<path d="M2927 2355 c-63 -21 -61 -82 3 -119 32 -19 56 -21 277 -26 133 -3
245 -8 249 -12 4 -4 21 2 38 14 88 61 108 103 61 134 -22 14 -63 17 -312 18
-167 1 -299 -3 -316 -9z"/>
<path d="M3437 2155 l-36 -35 -155 0 c-105 0 -176 5 -222 16 -49 11 -74 13
-90 5 -37 -16 -56 -54 -52 -103 3 -39 6 -44 38 -55 24 -8 126 -12 315 -12 262
-1 282 0 313 19 24 15 32 27 32 47 0 37 -37 100 -76 129 l-31 24 -36 -35z"/>
<path d="M1503 1860 c-42 -17 -46 -41 -33 -186 13 -130 9 -486 -6 -596 -6 -43
-4 -50 24 -78 28 -27 37 -30 94 -30 84 0 134 15 155 47 10 14 30 39 45 54 l26
29 759 0 c802 -1 823 -2 848 -47 6 -10 24 -32 41 -50 30 -31 37 -33 95 -33 82
0 135 15 153 43 12 18 15 95 17 420 2 363 1 399 -15 415 -15 16 -95 17 -1099
19 -614 1 -1091 -2 -1104 -7z m892 -184 c43 -18 57 -59 29 -87 -11 -10 -43
-23 -73 -29 -74 -14 -499 -13 -540 1 -53 19 -66 66 -29 106 21 23 22 23 300
23 219 0 286 -3 313 -14z m984 1 c33 -17 45 -39 38 -69 -12 -48 -46 -53 -352
-53 -247 0 -284 2 -312 17 -41 23 -51 53 -26 80 10 11 27 24 38 29 34 13 586
11 614 -4z m-1020 -286 c59 -12 88 -42 75 -78 -16 -47 -51 -52 -350 -52 -260
-1 -272 0 -298 20 -40 32 -32 80 19 107 24 14 488 15 554 3z m1024 -11 c28
-14 44 -48 33 -75 -14 -39 -64 -45 -354 -45 -274 0 -280 0 -313 23 -50 34 -47
66 11 95 44 23 49 23 320 20 209 -3 282 -7 303 -18z"/>
</g>
</svg>
