<?xml version="1.0" standalone="no"?>
<!DOCTYPE svg PUBLIC "-//W3C//DTD SVG 20010904//EN"
 "http://www.w3.org/TR/2001/REC-SVG-20010904/DTD/svg10.dtd">
<svg version="1.0" xmlns="http://www.w3.org/2000/svg"
 width="934.000000pt" height="600.000000pt" viewBox="0 0 934.000000 600.000000"
 preserveAspectRatio="xMidYMid meet">
<metadata>
Created by potrace 1.15, written by Peter Selinger 2001-2017
</metadata>
<g transform="translate(0.000000,600.000000) scale(0.100000,-0.100000)"
fill="#000000" stroke="none">
<path d="M50 3000 l0 -3000 4645 0 4645 0 0 3000 0 3000 -4645 0 -4645 0 0
-3000z m1693 2055 c39 -38 25 -140 -33 -255 -44 -87 -69 -100 -198 -100 -97 0
-104 -1 -129 -26 l-26 -26 9 -127 c9 -127 11 -1011 3 -1304 l-4 -158 34 -31
c33 -30 36 -30 102 -24 101 9 116 19 154 102 18 40 42 77 53 83 12 7 80 11
165 11 162 0 166 -2 186 -77 17 -63 38 -73 153 -73 95 0 147 12 149 34 0 6 1
175 1 375 0 318 -2 365 -16 379 -14 14 -57 16 -334 16 -360 1 -361 1 -383 76
-15 51 -1 82 49 106 31 14 62 15 276 9 393 -11 379 -12 410 9 28 18 28 20 21
80 -6 50 -10 333 -6 452 2 50 31 72 88 67 29 -3 70 1 103 11 82 24 500 23 550
-2 81 -41 108 -151 51 -214 -29 -32 -32 -33 -108 -32 -43 0 -132 4 -198 8
-133 9 -248 -3 -274 -29 -13 -13 -15 -36 -13 -126 2 -62 10 -128 18 -151 17
-50 20 -404 3 -458 -15 -47 -30 -337 -19 -365 10 -28 54 -43 130 -46 103 -4
127 0 159 27 36 30 39 55 16 182 -10 59 -15 173 -16 404 -1 318 -1 322 20 340
46 37 230 38 279 1 l27 -20 3 -587 c1 -374 -1 -594 -8 -606 -5 -10 -29 -27
-53 -39 -42 -21 -55 -21 -636 -21 -649 0 -636 1 -661 -59 -8 -19 -10 -52 -6
-93 4 -35 9 -200 12 -367 6 -333 4 -349 -50 -379 -26 -14 -73 -18 -314 -22
l-284 -5 -29 -33 c-46 -51 -37 -89 31 -131 33 -20 49 -21 250 -21 229 0 247
-3 282 -51 18 -23 19 -46 20 -286 0 -275 -1 -283 -49 -334 -53 -57 -36 -160
33 -192 45 -22 68 -21 129 2 28 10 77 24 110 31 33 7 91 26 129 42 38 17 117
39 175 49 58 10 138 30 176 43 39 13 100 32 138 41 115 30 140 67 95 146 -39
69 -100 75 -224 21 -38 -16 -114 -39 -169 -51 -55 -11 -120 -26 -143 -33 -43
-12 -44 -12 -73 20 -16 18 -29 45 -30 60 0 15 -1 113 -1 218 0 199 5 229 47
264 21 17 264 16 307 -1 15 -6 38 -27 50 -47 12 -20 41 -58 65 -84 24 -27 43
-52 43 -56 0 -10 128 -139 181 -183 24 -20 67 -46 94 -58 28 -12 67 -35 87
-52 21 -16 69 -42 107 -58 38 -15 81 -37 96 -49 14 -12 61 -28 103 -37 42 -10
109 -33 148 -51 47 -23 106 -41 175 -53 57 -11 165 -35 240 -55 74 -20 156
-36 182 -36 42 0 52 5 115 60 39 33 73 67 76 76 8 20 -9 50 -34 64 -25 13
-168 43 -340 70 -242 38 -252 40 -337 86 -119 65 -121 96 -11 133 33 11 76 32
94 46 19 15 60 35 92 46 31 11 75 32 97 48 22 16 59 38 82 50 51 26 56 33 63
96 l5 50 157 5 c171 5 194 13 228 73 13 24 13 30 0 54 -8 15 -29 35 -46 45
-29 17 -88 18 -1018 20 l-988 3 -19 24 c-26 32 -25 76 3 95 20 14 113 16 810
16 l788 0 21 21 c18 18 21 30 17 74 -3 29 -12 65 -21 79 -15 23 -24 26 -72 26
-30 0 -73 -7 -95 -16 -40 -16 -70 -15 -145 5 -26 7 -253 11 -662 11 -616 0
-623 0 -644 21 -11 11 -19 28 -17 37 8 42 15 43 835 41 744 -2 784 -1 803 16
35 32 21 153 -21 176 -12 6 -290 9 -800 9 -726 -1 -782 0 -800 16 -23 21 -24
32 -2 56 15 17 55 18 862 18 678 1 849 3 863 14 29 21 40 63 28 107 -17 63
-34 69 -206 69 -141 0 -153 2 -185 23 -53 36 -59 56 -59 218 0 166 4 176 66
164 23 -4 48 -19 68 -41 43 -47 81 -56 189 -44 127 15 160 24 214 58 84 54 91
61 97 94 3 18 6 248 7 511 1 434 0 480 -15 495 -14 14 -39 17 -144 17 -70 0
-188 -4 -262 -9 -119 -8 -139 -7 -169 8 -87 45 -73 193 22 237 37 16 68 19
267 19 165 0 241 -4 281 -14 31 -8 79 -18 107 -22 46 -6 53 -4 76 19 22 22 26
35 26 81 0 115 -36 138 -170 113 -76 -15 -173 -17 -774 -17 -599 0 -695 2
-751 16 -113 29 -161 4 -185 -96 -6 -27 -17 -53 -23 -58 -7 -4 -98 -6 -203 -3
-170 5 -194 8 -213 25 -31 28 -26 62 14 99 25 23 41 51 55 96 19 65 18 83 -8
114 -8 9 -12 20 -8 25 9 8 3539 16 3574 7 15 -4 22 -13 22 -30 0 -43 -20 -79
-75 -135 -30 -30 -63 -75 -73 -100 -47 -111 -116 -183 -246 -257 -27 -15 -68
-42 -92 -60 -24 -18 -66 -44 -94 -58 -42 -21 -55 -34 -71 -71 -24 -58 -24 -84
3 -131 31 -55 48 -73 84 -88 18 -7 49 -29 70 -48 22 -19 58 -46 82 -61 44 -28
46 -31 43 -111 -1 -27 5 -79 13 -115 30 -124 18 -179 -56 -253 -109 -110 -198
-258 -198 -330 0 -45 49 -130 108 -185 34 -31 34 -33 26 -85 -14 -87 -9 -148
19 -209 23 -51 32 -60 86 -87 97 -50 107 -79 86 -273 -6 -55 -3 -84 19 -170
26 -103 26 -103 89 -160 47 -43 88 -68 170 -104 71 -31 117 -57 133 -77 24
-29 26 -36 19 -92 -4 -33 -9 -91 -11 -130 -3 -49 -11 -81 -29 -110 -32 -55
-114 -133 -172 -164 -39 -21 -54 -37 -78 -86 -17 -33 -43 -77 -58 -99 -44 -63
-60 -146 -44 -228 10 -49 31 -68 72 -68 57 0 83 19 121 89 20 36 48 79 63 94
14 15 35 47 46 70 13 27 33 49 56 61 20 11 48 38 62 61 48 76 100 105 188 105
49 0 118 25 149 54 14 13 43 33 65 44 22 11 54 35 70 52 17 18 54 44 84 57 30
13 68 35 84 49 15 13 54 31 85 40 31 9 82 30 112 49 30 18 87 42 125 55 39 12
90 35 115 50 25 16 74 36 110 45 36 9 90 31 120 50 65 39 201 78 245 70 56
-11 81 -26 100 -58 10 -18 31 -48 47 -67 17 -22 34 -62 44 -105 9 -39 27 -113
41 -165 39 -147 41 -166 30 -243 -6 -40 -7 -84 -4 -97 10 -42 74 -108 116
-121 82 -24 111 26 111 188 0 138 -13 222 -44 299 -14 34 -35 108 -46 165 -14
70 -32 124 -55 164 -18 33 -38 80 -45 105 -6 25 -24 65 -38 89 -15 24 -40 68
-57 97 -33 57 -86 129 -151 202 -61 68 -124 155 -124 169 0 7 14 28 30 47 17
18 36 49 44 67 8 19 30 60 49 92 25 41 39 80 47 130 17 111 40 216 60 282 10
33 23 110 30 170 18 176 36 201 165 241 48 15 74 32 132 87 98 93 105 112 101
251 l-3 112 -40 49 c-51 62 -185 195 -196 195 -5 0 -26 15 -46 34 -21 18 -54
41 -73 51 -19 9 -57 35 -85 55 -27 21 -70 47 -95 58 -25 11 -59 31 -77 46 -17
14 -53 36 -80 47 -26 12 -63 33 -81 46 -19 14 -68 39 -109 55 -42 15 -88 38
-104 49 -16 11 -61 31 -100 44 -39 14 -91 38 -115 54 -24 15 -74 36 -111 45
-38 10 -78 23 -89 31 -26 16 -79 104 -69 113 4 4 413 8 910 10 888 3 905 2
924 -17 11 -11 24 -37 30 -58 13 -47 15 -4045 2 -4113 -6 -26 -18 -52 -31 -62
-21 -17 -174 -18 -3634 -16 -3083 3 -3615 5 -3638 17 -18 9 -31 27 -38 50 -6
23 -10 750 -10 2074 0 1807 2 2041 15 2067 9 17 17 30 18 30 1 0 20 7 42 15
60 21 647 22 668 0z m4377 -200 c36 -8 112 -23 169 -34 74 -15 119 -29 153
-50 26 -17 78 -39 116 -50 37 -11 85 -33 107 -49 22 -16 58 -35 80 -42 53 -17
95 -38 120 -60 11 -10 45 -28 76 -40 31 -11 76 -35 100 -52 24 -17 69 -41 100
-54 32 -12 75 -36 96 -53 21 -16 56 -37 78 -46 22 -9 54 -30 70 -45 17 -16 55
-38 85 -50 30 -12 66 -32 80 -44 14 -13 39 -32 55 -42 38 -23 142 -130 150
-155 9 -27 -23 -86 -63 -117 -32 -24 -45 -27 -133 -30 -83 -3 -103 -1 -141 17
-49 24 -161 95 -203 128 -15 13 -60 32 -99 44 -39 12 -96 36 -126 54 -30 18
-82 41 -115 50 -33 9 -87 32 -120 50 -33 18 -86 40 -118 48 -33 9 -76 27 -97
41 -21 14 -69 35 -107 47 -37 12 -95 36 -128 55 -33 18 -89 40 -125 49 -36 9
-83 29 -105 45 -23 15 -66 36 -98 45 -66 19 -167 97 -187 144 -14 35 2 122 26
142 14 12 194 67 224 68 8 1 44 -5 80 -14z m-4097 -339 c33 -2 55 -10 72 -26
23 -22 25 -31 25 -112 0 -49 -5 -98 -11 -110 -23 -43 -83 -58 -241 -58 -152 0
-187 7 -225 42 -21 20 -23 31 -23 125 0 99 1 103 26 119 14 10 42 20 62 24 34
6 205 4 315 -4z m3712 -162 c30 -19 41 -54 26 -82 -21 -39 -203 -59 -249 -26
-69 48 37 141 150 130 26 -3 59 -12 73 -22z m-1910 -147 l27 -23 -1 -309 c-2
-278 -4 -313 -21 -351 -10 -23 -27 -47 -38 -53 -24 -13 -241 -15 -260 -2 -33
20 -41 95 -42 398 -1 164 1 306 5 315 13 32 74 47 192 47 103 1 114 -1 138
-22z m2573 -126 c48 -22 112 -47 142 -55 77 -22 119 -50 136 -91 19 -46 9 -80
-31 -111 -21 -16 -37 -39 -45 -68 -14 -52 -7 -81 26 -103 32 -20 116 -13 149
13 115 92 195 148 221 156 60 16 109 -22 120 -94 5 -26 -1 -49 -25 -96 -38
-75 -55 -86 -114 -72 -62 14 -139 -10 -192 -59 -22 -20 -57 -50 -77 -65 -34
-24 -38 -32 -38 -70 0 -92 52 -114 186 -79 82 22 98 14 102 -52 3 -44 0 -51
-37 -89 -120 -124 -192 -196 -204 -203 -26 -16 -97 -129 -97 -156 0 -38 68
-107 106 -107 43 1 137 68 210 151 35 41 77 88 93 104 16 17 38 50 51 75 12
25 33 56 46 70 13 14 33 52 44 85 27 80 45 105 75 105 34 0 40 -15 37 -96 -3
-119 -18 -174 -56 -214 -19 -19 -42 -51 -51 -70 -10 -19 -28 -46 -41 -60 -12
-14 -35 -51 -49 -84 -26 -59 -76 -126 -128 -175 -66 -60 -114 -99 -137 -111
-14 -7 -43 -28 -65 -46 -22 -17 -68 -43 -102 -57 -34 -14 -77 -36 -95 -50 -18
-14 -64 -35 -103 -48 -38 -12 -87 -33 -108 -46 -21 -13 -75 -33 -120 -44 -45
-11 -118 -29 -161 -39 -105 -26 -149 -25 -247 6 -84 27 -96 35 -156 118 -48
67 -48 121 3 219 20 40 46 83 59 97 49 54 60 115 26 149 -11 11 -50 29 -88 40
-89 28 -106 37 -126 71 -36 60 -9 110 60 110 47 0 134 20 160 36 30 19 73 105
73 144 0 43 -24 96 -51 110 -31 17 -126 7 -185 -20 -27 -12 -77 -24 -111 -27
-59 -5 -63 -4 -92 25 -21 21 -31 40 -31 61 0 37 50 131 95 181 18 19 42 52 54
73 13 20 31 42 41 47 10 5 31 35 46 65 26 53 26 60 20 160 -5 69 -4 111 4 124
13 25 107 54 225 70 87 11 227 61 262 93 64 59 160 59 291 -1z m-4363 -373
c36 -16 48 -66 43 -192 -3 -104 -4 -109 -31 -132 -27 -23 -34 -24 -180 -24
-223 0 -245 17 -246 181 -1 94 13 135 53 160 27 16 51 19 183 19 94 0 162 -4
178 -12z m5343 -175 c6 -105 -30 -218 -69 -218 -24 0 -34 69 -22 151 12 86 34
127 66 122 19 -3 22 -10 25 -55z m-120 -1195 c18 -15 14 -79 -7 -114 -12 -20
-40 -42 -78 -59 -32 -15 -73 -39 -92 -53 -18 -14 -66 -35 -105 -47 -39 -12
-93 -36 -120 -53 -27 -17 -72 -39 -100 -48 -28 -9 -69 -29 -90 -45 -22 -16
-68 -38 -102 -49 -35 -12 -80 -33 -101 -47 -21 -14 -69 -36 -107 -49 -38 -13
-84 -35 -102 -49 -75 -57 -175 -74 -214 -35 -26 26 -25 38 9 91 29 47 75 89
95 89 7 0 43 18 80 41 37 22 86 47 109 55 23 8 71 32 107 53 36 22 83 45 105
51 22 7 62 28 90 46 27 19 72 41 100 51 27 9 71 31 97 49 27 18 65 38 85 44
21 7 66 27 100 46 88 49 201 63 241 32z m-3783 -527 c3 -5 -3 -31 -12 -58 -16
-43 -24 -51 -79 -78 -33 -16 -76 -42 -95 -56 -19 -15 -52 -32 -74 -39 -22 -7
-62 -24 -88 -38 -44 -23 -52 -24 -89 -13 -61 19 -115 55 -190 129 -59 58 -68
71 -68 102 0 20 5 41 12 48 15 15 673 17 683 3z"/>
<path d="M6875 1654 c-42 -21 -153 -132 -175 -175 -10 -19 -24 -63 -31 -98
-13 -61 -13 -64 15 -116 32 -61 71 -82 132 -71 29 6 42 19 88 89 30 45 58 96
62 112 4 17 17 51 30 77 62 124 -14 238 -121 182z"/>
<path d="M6383 1371 c-57 -10 -70 -24 -93 -98 -33 -108 -23 -225 22 -265 45
-40 115 -8 168 74 21 32 51 71 67 86 34 31 68 121 59 156 -3 12 -17 28 -31 34
-33 15 -139 22 -192 13z"/>
<path d="M7390 1368 c-43 -12 -143 -108 -170 -164 -25 -50 -27 -149 -5 -181 8
-12 35 -29 60 -39 43 -16 47 -16 85 1 21 10 49 29 62 42 13 14 43 35 68 48 25
13 52 31 61 41 19 23 59 126 59 155 0 34 -28 76 -57 87 -43 16 -124 21 -163
10z"/>
<path d="M5920 1261 c-8 -5 -35 -28 -60 -51 l-45 -42 0 -72 c0 -89 16 -117 81
-142 l47 -18 56 30 c69 38 83 62 77 131 -4 42 -12 62 -42 99 -21 25 -50 52
-65 60 -32 16 -30 16 -49 5z"/>
<path d="M6130 3954 c-25 -7 -76 -17 -114 -21 -50 -4 -74 -11 -85 -25 -9 -10
-36 -39 -59 -64 -41 -42 -43 -46 -29 -67 7 -12 38 -30 68 -40 50 -17 67 -18
211 -7 87 6 163 8 169 5 6 -4 35 -4 65 0 76 9 107 37 108 98 1 63 -18 80 -129
111 -100 29 -140 31 -205 10z"/>
<path d="M5891 3579 c-58 -11 -91 -43 -91 -86 0 -23 7 -37 23 -47 39 -26 148
-45 267 -46 162 -2 156 -3 195 31 50 44 46 76 -15 106 -92 45 -267 64 -379 42z"/>
</g>
</svg>
