<?xml version="1.0" standalone="no"?>
<!DOCTYPE svg PUBLIC "-//W3C//DTD SVG 20010904//EN"
 "http://www.w3.org/TR/2001/REC-SVG-20010904/DTD/svg10.dtd">
<svg version="1.0" xmlns="http://www.w3.org/2000/svg"
 width="919.000000pt" height="600.000000pt" viewBox="0 0 919.000000 600.000000"
 preserveAspectRatio="xMidYMid meet">
<metadata>
Created by potrace 1.15, written by Peter Selinger 2001-2017
</metadata>
<g transform="translate(0.000000,600.000000) scale(0.100000,-0.100000)"
fill="#000000" stroke="none">
<path d="M145 5940 c-11 -4 -36 -24 -55 -45 l-35 -36 -3 -2930 -2 -2929 4570
0 4570 0 0 2948 0 2947 -88 28 -87 27 -4425 -1 c-2434 0 -4434 -4 -4445 -9z
m1991 -926 c39 -19 42 -31 14 -76 -14 -23 -20 -51 -20 -90 0 -90 10 -88 -349
-88 -187 0 -338 5 -389 12 l-84 12 -24 -27 c-14 -16 -24 -41 -24 -58 0 -37 23
-84 45 -93 32 -12 270 -5 330 9 79 19 428 21 465 2 29 -15 53 -77 44 -113 -13
-51 -34 -54 -409 -54 -438 0 -437 0 -413 -125 8 -48 8 -80 0 -134 -14 -81 -7
-106 38 -144 27 -23 41 -27 96 -27 69 0 120 16 144 45 8 9 17 49 21 88 6 63
10 74 38 99 l32 28 1042 -2 c1112 -3 1087 -2 1103 -51 3 -10 3 -43 -1 -73 -12
-99 32 -134 171 -134 129 0 127 -2 135 203 4 118 2 171 -7 194 l-13 32 -401 3
c-388 3 -402 4 -417 23 -22 30 -12 113 17 137 20 16 45 18 264 18 175 -1 257
-5 301 -15 71 -17 228 -20 276 -4 45 15 69 44 69 85 0 64 -67 97 -155 75 -27
-7 -161 -11 -360 -11 -384 0 -385 0 -385 84 0 52 -2 56 -47 96 -45 39 -47 43
-29 55 45 34 115 35 1286 33 1115 -3 1167 -4 1194 -22 28 -18 28 -19 10 -36
-11 -10 -44 -25 -75 -34 -49 -14 -68 -28 -147 -107 -80 -79 -94 -99 -112 -155
-19 -56 -31 -73 -91 -127 -39 -35 -92 -72 -121 -84 -29 -12 -66 -34 -81 -50
-15 -15 -56 -42 -90 -58 -77 -38 -131 -109 -123 -163 9 -61 38 -106 86 -132
25 -14 61 -37 80 -51 19 -15 54 -36 77 -48 23 -11 45 -26 50 -33 4 -7 11 -60
15 -118 4 -58 10 -130 14 -160 8 -75 -8 -127 -56 -180 -22 -25 -59 -65 -82
-90 -114 -124 -129 -308 -32 -388 47 -39 56 -76 42 -171 -10 -70 -10 -84 8
-132 17 -47 25 -57 70 -81 28 -15 70 -48 93 -73 l41 -45 0 -182 c-1 -101 4
-198 9 -216 15 -51 119 -148 184 -172 30 -11 61 -28 68 -36 7 -9 37 -26 65
-39 29 -13 58 -33 65 -46 14 -27 7 -238 -10 -282 -21 -54 -94 -138 -140 -162
-62 -31 -114 -88 -144 -156 -14 -31 -30 -60 -36 -63 -26 -17 -53 -91 -58 -164
-5 -61 -11 -81 -29 -99 l-23 -23 -2081 0 c-1513 0 -2093 3 -2126 11 -81 21
-74 -173 -74 2091 0 2199 -4 2060 53 2071 12 2 258 5 545 6 463 1 528 -1 558
-15z m869 2 c40 -17 43 -31 16 -78 -10 -18 -22 -55 -26 -83 -13 -98 -4 -95
-251 -95 -162 0 -223 3 -248 14 -33 14 -34 16 -40 83 -2 37 -6 81 -8 97 -3 25
3 32 41 53 42 22 53 23 263 23 168 0 227 -3 253 -14z m5198 3 c12 -7 25 -17
29 -23 4 -6 8 -928 8 -2049 l0 -2039 -30 -29 -29 -30 -453 3 c-416 3 -456 4
-486 21 -33 18 -35 18 -75 0 -39 -17 -84 -18 -589 -20 -569 -2 -607 0 -632 39
-7 12 -3 27 20 59 25 37 29 51 29 110 0 81 -12 98 -90 124 -54 19 -55 19 -94
-3 -51 -29 -91 -29 -91 -1 0 36 19 58 63 70 23 6 51 22 62 35 14 17 40 29 85
40 124 28 141 35 189 77 99 87 153 122 205 139 30 9 78 33 106 52 29 20 71 41
93 47 23 5 68 26 99 45 32 19 81 43 110 53 29 10 84 35 121 55 38 20 81 36 95
36 47 0 102 20 136 50 46 41 76 50 162 50 82 0 80 1 152 -88 24 -30 36 -60 46
-114 8 -40 26 -99 41 -130 17 -37 32 -97 42 -173 15 -103 15 -122 2 -158 -20
-60 -42 -59 -76 2 -33 60 -64 76 -127 67 -103 -16 -235 -158 -244 -264 -4 -42
-1 -57 14 -74 25 -27 90 -68 108 -68 23 0 129 66 143 88 6 10 32 29 58 41 28
13 53 34 63 52 36 64 31 64 110 9 91 -62 113 -69 141 -41 20 20 21 32 21 178
0 174 -19 312 -51 375 -11 22 -29 80 -39 129 -12 54 -33 114 -54 152 -18 34
-41 85 -50 114 -10 28 -30 69 -45 90 -15 21 -39 63 -53 93 -17 39 -52 81 -117
145 -51 50 -99 102 -106 117 -17 30 -20 104 -6 113 6 3 35 47 65 98 48 81 58
106 76 200 11 59 35 151 51 204 26 80 32 122 38 228 4 98 10 137 23 157 10 16
59 47 124 79 182 91 254 183 254 327 -1 131 -15 159 -133 270 -16 15 -47 46
-70 70 -22 23 -46 42 -54 42 -7 0 -30 15 -50 34 -21 18 -63 46 -93 61 -30 15
-71 42 -90 60 -19 18 -56 39 -82 48 -26 9 -64 29 -85 46 -21 17 -57 37 -79 45
-23 8 -61 28 -84 45 -23 16 -65 37 -93 47 -29 9 -81 33 -117 54 -36 21 -81 41
-100 45 -43 9 -86 30 -122 60 -15 13 -59 30 -100 39 -41 9 -91 28 -111 41 -20
14 -76 34 -126 46 -54 12 -96 28 -106 39 -16 18 -16 20 16 39 34 21 44 21
1022 21 725 0 994 -3 1010 -11z m-2029 -284 c44 -9 109 -32 146 -50 36 -18 86
-38 110 -45 25 -6 74 -29 110 -50 36 -21 88 -45 117 -54 28 -10 57 -24 65 -33
15 -19 106 -63 130 -63 9 0 37 -16 63 -35 25 -20 70 -46 98 -59 29 -13 60 -33
71 -44 10 -12 49 -33 86 -47 37 -14 76 -35 86 -47 11 -11 42 -30 70 -43 27
-12 66 -36 85 -52 18 -17 50 -38 69 -48 49 -25 132 -103 148 -139 19 -42 7
-112 -21 -130 -91 -59 -292 -47 -364 21 -19 19 -58 45 -86 60 -28 14 -67 36
-87 48 -19 13 -69 33 -110 45 -41 12 -95 35 -120 50 -25 16 -78 38 -117 50
-40 12 -88 34 -108 50 -20 16 -63 35 -102 44 -38 10 -87 28 -109 41 -23 14
-77 36 -120 50 -43 14 -98 38 -123 54 -26 16 -78 38 -116 50 -39 11 -88 33
-110 49 -22 16 -64 37 -93 47 -85 27 -142 88 -142 150 0 29 33 99 52 112 7 4
49 15 93 25 94 20 210 18 329 -7z m-3214 -115 c20 -11 40 -59 40 -97 0 -13
-11 -35 -25 -49 l-26 -26 -233 4 c-213 3 -236 5 -255 22 -26 24 -28 85 -3 116
9 12 33 25 52 30 50 12 428 12 450 0z m2689 -351 c54 -19 62 -79 13 -97 -42
-16 -189 -24 -212 -12 -25 13 -27 62 -4 81 39 33 147 47 203 28z m601 -259
c27 -17 76 -36 119 -45 55 -11 91 -27 141 -60 96 -64 100 -79 40 -162 -71 -99
-50 -163 53 -163 60 0 100 17 158 66 26 21 61 48 79 59 19 11 44 27 57 35 20
13 26 13 49 0 15 -8 38 -35 52 -60 l25 -45 -28 -63 c-15 -35 -36 -67 -46 -72
-10 -6 -48 -10 -86 -10 -37 0 -84 -5 -104 -10 -36 -10 -166 -125 -188 -167
-17 -33 -13 -78 8 -97 24 -22 58 -23 160 -6 83 14 84 14 102 -9 11 -13 19 -37
19 -54 0 -27 -19 -50 -138 -167 -103 -101 -144 -148 -161 -187 -28 -60 -23
-107 13 -150 41 -48 150 -29 191 34 10 15 55 68 100 118 45 49 87 101 94 114
8 13 30 42 51 65 27 29 43 59 54 100 17 68 29 83 73 92 30 6 32 5 39 -31 14
-79 -13 -190 -60 -243 -18 -20 -43 -59 -55 -87 -12 -27 -35 -63 -51 -80 -16
-16 -37 -50 -48 -75 -21 -50 -162 -197 -227 -238 -22 -13 -51 -35 -65 -48 -14
-12 -45 -31 -70 -42 -25 -11 -60 -31 -77 -46 -18 -15 -64 -38 -103 -50 -38
-13 -88 -36 -111 -51 -29 -21 -63 -32 -122 -42 -52 -8 -105 -24 -146 -45 -55
-28 -76 -33 -157 -36 -91 -4 -95 -3 -174 34 -45 21 -89 49 -99 63 -25 36 -51
117 -51 159 0 47 55 170 96 212 78 82 17 174 -129 195 -64 9 -91 35 -84 82 8
46 22 61 66 69 87 15 177 45 191 63 96 126 96 124 20 195 -60 56 -84 58 -180
16 -93 -41 -188 -43 -226 -5 -22 22 -25 31 -19 68 14 88 49 142 175 272 42 44
80 130 80 184 0 19 -7 61 -16 93 -15 53 -15 60 0 83 26 40 110 59 228 52 l98
-6 14 27 c14 28 22 33 106 71 25 12 65 33 90 47 57 32 112 27 180 -16z m984
-596 c10 -26 7 -139 -5 -173 -11 -32 -33 -41 -42 -17 -3 8 -9 41 -13 74 -5 46
-2 67 11 96 18 38 39 47 49 20z m-110 -1127 c24 -17 34 -110 16 -132 -7 -9
-35 -25 -61 -36 -26 -12 -55 -29 -64 -39 -10 -11 -46 -29 -80 -40 -35 -12 -83
-35 -106 -52 -23 -17 -76 -41 -116 -53 -40 -13 -89 -35 -108 -50 -19 -14 -61
-35 -93 -46 -31 -11 -75 -32 -97 -48 -22 -16 -72 -38 -111 -50 -39 -12 -83
-30 -97 -41 -38 -30 -127 -67 -178 -75 -88 -13 -105 36 -43 127 40 59 61 73
129 84 49 8 84 25 109 53 11 12 49 30 86 41 38 11 76 30 90 45 22 23 74 47
131 59 15 3 46 22 69 41 23 19 60 39 83 45 67 17 93 30 118 56 13 14 48 32 79
40 30 9 75 28 100 43 78 46 111 52 144 28z m-1410 -1174 c2 -16 8 -46 11 -68
3 -22 18 -57 31 -78 49 -74 15 -107 -117 -115 -68 -4 -79 -2 -98 17 -30 30
-26 65 13 108 18 21 44 62 56 91 24 55 41 71 77 72 16 0 23 -7 27 -27z"/>
<path d="M1863 4150 c-42 -17 -47 -43 -35 -195 5 -77 9 -167 9 -200 -3 -101
-71 -94 884 -92 l818 2 22 22 c21 21 22 29 22 229 l0 208 -26 20 c-23 17 -31
18 -84 7 -43 -9 -248 -11 -798 -8 -407 2 -751 6 -765 10 -14 3 -35 2 -47 -3z
m1403 -205 c28 -28 25 -65 -9 -102 l-20 -23 -523 0 c-287 0 -530 3 -539 6 -19
8 -45 55 -45 84 0 11 9 29 20 40 20 20 33 20 555 20 l536 0 25 -25z"/>
<path d="M3678 3574 c-3 -3 -415 -5 -914 -6 -500 0 -949 -3 -998 -6 -82 -7
-91 -9 -110 -35 -20 -27 -21 -40 -21 -286 0 -228 2 -260 18 -284 9 -15 30 -29
45 -33 82 -18 103 -26 112 -43 6 -11 10 -174 10 -411 1 -333 -1 -395 -13 -408
-26 -25 -94 -31 -360 -32 -273 0 -303 -4 -327 -49 -13 -25 -13 -67 1 -93 23
-42 63 -48 329 -48 237 0 251 -1 270 -20 19 -19 20 -33 20 -305 0 -293 -4
-329 -41 -340 -33 -11 -69 -46 -69 -69 0 -31 53 -102 89 -121 56 -29 129 -17
246 40 28 14 90 32 138 40 48 9 120 29 160 45 40 16 127 38 192 50 148 26 186
43 201 90 23 69 -28 147 -90 137 -61 -9 -213 -50 -330 -88 -140 -46 -168 -48
-201 -14 l-25 24 0 235 c0 129 3 242 6 251 14 35 58 45 198 45 74 0 146 -4
160 -10 14 -5 34 -26 45 -47 25 -50 311 -343 333 -343 10 0 35 -15 55 -34 21
-18 60 -43 87 -55 26 -11 63 -34 82 -51 19 -16 60 -37 92 -46 31 -9 83 -30
115 -46 32 -16 99 -38 148 -48 49 -11 117 -31 152 -46 94 -39 155 -54 227 -54
36 0 92 -7 123 -15 77 -20 99 -19 144 7 50 28 163 138 163 159 0 30 -52 41
-233 50 -164 8 -187 12 -280 43 -56 19 -140 42 -186 50 -84 16 -111 28 -111
50 0 22 115 124 175 155 33 18 74 41 92 52 17 11 60 24 95 30 102 16 129 47
92 104 -8 13 -14 34 -12 47 5 36 55 47 216 47 151 1 190 10 212 50 13 25 13
67 0 92 -28 51 5 49 -1052 49 -874 0 -986 2 -1006 16 -30 21 -28 58 4 83 26
21 33 21 799 21 728 0 774 1 795 18 30 24 39 102 16 137 -17 26 -18 26 -154
25 -452 -4 -1436 11 -1448 21 -19 16 -17 43 4 62 15 13 106 16 796 19 l778 3
24 28 c23 27 30 56 25 102 -5 50 27 49 -818 46 -631 -1 -793 1 -813 11 -37 20
-38 60 -3 87 l27 22 826 -2 c638 -1 831 1 852 11 33 16 61 66 56 105 -2 22
-17 40 -60 72 -52 40 -58 48 -69 101 -8 39 -10 131 -7 295 5 232 5 238 -16
252 -20 15 -67 20 -78 9z m-221 -190 c22 -23 25 -32 21 -80 -3 -33 -12 -62
-23 -74 -18 -20 -29 -20 -745 -20 -601 0 -729 2 -745 14 -14 10 -20 30 -23 78
-4 61 -3 66 23 86 l28 22 719 0 719 0 26 -26z m-39 -315 c36 -12 47 -43 31
-89 -22 -61 -6 -60 -776 -60 -384 0 -703 4 -709 8 -37 24 -45 101 -14 132 20
20 33 20 729 20 475 0 718 -4 739 -11z m43 -1256 c20 -19 21 -24 8 -39 -7 -9
-32 -25 -54 -34 -22 -10 -57 -31 -77 -48 -21 -16 -58 -35 -83 -41 -26 -6 -62
-26 -83 -46 -48 -43 -80 -55 -143 -55 -73 0 -103 17 -211 120 -101 96 -113
117 -81 152 16 18 35 19 360 16 337 -3 343 -3 364 -25z"/>
<path d="M6742 1582 c-29 -20 -77 -65 -106 -99 -50 -57 -55 -67 -61 -126 -14
-132 17 -185 115 -195 44 -4 54 -1 76 19 35 33 82 117 100 181 9 29 29 70 45
90 40 50 37 73 -15 124 -55 55 -82 56 -154 6z"/>
<path d="M6258 1303 c-64 -61 -78 -94 -77 -185 1 -92 8 -117 40 -140 20 -15
34 -18 65 -12 31 5 53 22 110 81 94 98 111 150 77 234 -19 47 -57 69 -123 69
-35 0 -48 -7 -92 -47z"/>
<path d="M6005 3869 c-22 -4 -56 -8 -76 -8 -29 -1 -46 -11 -97 -61 -34 -33
-62 -66 -62 -73 0 -23 37 -63 74 -81 40 -19 154 -22 206 -5 19 6 89 15 156 19
131 8 160 18 170 56 10 38 -13 101 -43 121 -55 36 -227 53 -328 32z"/>
<path d="M5760 3491 c-14 -4 -32 -19 -40 -34 -13 -24 -13 -30 0 -54 12 -22 34
-34 110 -60 84 -29 108 -33 203 -33 121 0 157 12 182 60 35 68 4 102 -110 119
-82 12 -304 13 -345 2z"/>
</g>
</svg>
