<?xml version="1.0" standalone="no"?>
<!DOCTYPE svg PUBLIC "-//W3C//DTD SVG 20010904//EN"
 "http://www.w3.org/TR/2001/REC-SVG-20010904/DTD/svg10.dtd">
<svg version="1.0" xmlns="http://www.w3.org/2000/svg"
 width="934.000000pt" height="600.000000pt" viewBox="0 0 934.000000 600.000000"
 preserveAspectRatio="xMidYMid meet">
<metadata>
Created by potrace 1.15, written by Peter Selinger 2001-2017
</metadata>
<g transform="translate(0.000000,600.000000) scale(0.100000,-0.100000)"
fill="#000000" stroke="none">
<path d="M90 3000 l0 -3000 4600 0 4600 0 0 3000 0 3000 -4600 0 -4600 0 0
-3000z m5571 2090 c35 -19 34 -21 -107 -170 -18 -19 -42 -57 -54 -84 -11 -27
-42 -81 -67 -119 -37 -56 -55 -74 -92 -90 -25 -11 -65 -35 -88 -53 -23 -19
-61 -43 -85 -54 -68 -31 -161 -112 -175 -151 -23 -67 -17 -93 36 -152 29 -31
76 -67 113 -87 103 -54 143 -109 140 -192 -2 -32 4 -82 13 -110 18 -61 19
-123 2 -160 -7 -15 -45 -63 -85 -107 -93 -103 -172 -249 -172 -320 0 -41 5
-52 34 -80 19 -19 52 -61 72 -93 35 -58 36 -62 28 -117 -17 -117 -13 -143 33
-202 27 -35 64 -66 105 -89 l63 -36 -1 -50 c0 -27 -4 -92 -9 -145 -7 -90 -6
-101 20 -180 15 -46 34 -96 41 -111 19 -37 196 -152 265 -172 88 -25 92 -32
92 -196 l0 -140 -47 -70 c-31 -45 -61 -77 -84 -90 -55 -29 -128 -102 -155
-157 -14 -26 -37 -59 -51 -72 -29 -28 -42 -63 -51 -142 -12 -100 37 -154 117
-130 51 15 74 34 98 81 10 19 28 44 40 55 13 11 31 40 42 65 23 53 45 79 75
91 14 5 26 22 33 48 13 49 34 62 120 71 36 4 86 17 110 29 115 58 153 80 183
108 17 17 55 43 82 59 28 15 62 38 77 50 15 12 54 32 85 44 32 12 78 34 103
50 25 16 79 40 120 53 41 13 92 36 114 50 21 15 70 36 107 47 38 12 90 34 117
50 26 16 76 36 112 45 36 9 85 29 110 45 25 15 55 31 66 34 46 14 130 -42 193
-128 56 -75 59 -85 76 -198 9 -56 27 -139 41 -183 20 -62 25 -93 21 -138 -6
-62 21 -165 51 -199 23 -28 94 -24 129 6 l28 24 -1 154 c-1 139 -4 160 -28
228 -15 41 -36 119 -47 174 -11 54 -33 125 -50 158 -17 33 -39 90 -50 126 -12
37 -31 83 -44 103 -12 19 -37 64 -55 99 -39 77 -69 115 -178 227 -45 47 -87
94 -93 105 -12 23 2 74 32 112 10 13 42 68 69 121 45 87 52 112 80 263 17 92
39 194 49 227 11 33 21 102 24 154 6 112 19 136 98 167 30 11 78 37 107 57 29
20 61 38 71 42 18 5 77 83 113 149 22 39 24 142 4 191 -8 18 -33 58 -55 88
-47 64 -212 219 -274 257 -23 15 -49 35 -57 45 -8 10 -44 31 -79 47 -35 15
-77 40 -94 54 -17 14 -55 36 -84 49 -29 13 -68 35 -86 49 -19 14 -60 35 -91
46 -32 11 -76 33 -98 49 -23 17 -70 40 -105 52 -35 11 -89 36 -120 55 -31 19
-63 34 -70 34 -28 0 -123 39 -156 64 -19 15 -61 37 -93 50 -66 27 -80 51 -39
66 17 6 355 10 945 10 1007 0 940 4 957 -58 5 -15 8 -950 8 -2079 l0 -2052
-21 -21 -20 -21 -1390 2 c-764 0 -1522 0 -1685 -1 -349 -3 -352 -2 -412 97
-20 32 -58 79 -86 105 -79 75 -80 134 -2 227 22 26 51 73 65 104 28 63 63 87
129 87 46 0 67 -26 87 -108 22 -90 98 -208 145 -228 70 -29 124 -14 145 41 5
12 5 90 1 173 l-7 152 -34 35 c-19 20 -46 59 -60 87 -38 79 -64 93 -167 92
l-84 -1 -81 79 c-44 43 -91 81 -104 84 -32 8 -110 -21 -129 -49 -19 -28 -19
-63 2 -148 19 -81 15 -89 -62 -125 -42 -20 -59 -37 -102 -102 -28 -42 -54 -87
-58 -100 -4 -13 -27 -46 -51 -73 -39 -44 -44 -55 -44 -99 0 -72 14 -95 76
-120 29 -12 59 -29 66 -37 7 -8 38 -33 70 -54 44 -30 58 -46 58 -64 0 -55 10
-54 -686 -56 -630 -1 -642 0 -682 20 -22 11 -43 25 -47 30 -8 14 56 44 137 65
37 10 72 24 78 31 28 33 -29 66 -147 85 -67 11 -93 23 -93 43 0 5 17 32 37 58
28 38 50 54 91 69 29 11 74 36 98 55 25 18 69 41 97 51 29 9 72 31 97 49 25
18 66 42 92 53 53 23 81 59 76 98 -2 21 -10 30 -33 36 -16 5 -197 7 -402 6
-204 -2 -375 0 -379 5 -4 4 2 17 14 30 18 19 22 35 22 88 0 77 -17 112 -81
168 -67 58 -85 63 -198 52 -137 -14 -145 -32 -70 -143 38 -56 93 -187 83 -198
-7 -6 -731 -7 -880 0 -109 5 -111 5 -147 -22 -50 -39 -57 -66 -23 -94 35 -31
100 -39 205 -25 123 16 1231 15 1265 -1 60 -27 37 -76 -48 -104 -28 -9 -69
-29 -92 -45 -55 -38 -198 -89 -250 -89 -24 0 -54 4 -69 10 -14 5 -78 19 -142
30 -63 12 -147 32 -186 45 -89 32 -164 33 -201 4 -26 -20 -56 -68 -56 -88 0
-20 42 -33 183 -57 78 -13 180 -38 227 -54 47 -16 132 -39 189 -51 58 -12 137
-34 176 -50 40 -16 110 -37 156 -48 46 -11 102 -27 123 -36 33 -14 37 -19 25
-30 -8 -7 -38 -20 -68 -30 -49 -16 -127 -17 -1033 -16 -615 1 -989 6 -1005 12
-56 21 -52 -115 -53 2087 0 2235 -4 2104 57 2118 15 3 33 7 38 9 6 2 1031 4
2278 4 1546 1 2274 -2 2288 -9z m570 -223 c31 -14 96 -35 145 -47 48 -11 108
-33 133 -49 25 -15 73 -38 106 -50 33 -12 78 -35 100 -51 23 -15 65 -36 94
-46 29 -9 74 -31 100 -49 25 -17 70 -40 99 -49 28 -10 69 -32 91 -50 21 -18
60 -40 87 -50 27 -10 63 -31 79 -47 17 -15 57 -39 90 -54 33 -14 69 -34 80
-44 11 -11 45 -31 75 -46 73 -36 191 -142 220 -198 22 -41 23 -46 8 -68 -40
-61 -179 -129 -232 -113 -56 16 -214 101 -241 129 -20 22 -50 38 -90 49 -33
10 -81 31 -107 47 -25 17 -79 40 -120 53 -40 12 -90 34 -110 48 -21 14 -69 33
-108 43 -39 9 -89 30 -113 46 -23 16 -78 41 -122 55 -44 14 -102 38 -130 54
-27 15 -81 37 -120 49 -38 11 -86 31 -105 44 -19 13 -66 34 -105 47 -38 13
-98 43 -133 67 -35 23 -68 43 -73 43 -15 0 -49 80 -49 116 0 41 22 66 94 105
84 45 100 49 206 45 76 -2 106 -8 151 -29z m-479 -475 l22 -22 -20 -27 c-39
-52 -168 -103 -210 -84 -51 23 -37 121 20 147 49 22 160 14 188 -14z m593
-257 c46 -10 87 -27 120 -50 28 -19 74 -39 105 -46 30 -6 68 -18 84 -26 26
-14 28 -18 23 -59 -3 -31 -16 -59 -41 -91 -46 -59 -49 -111 -10 -150 22 -22
31 -24 65 -19 53 8 147 57 179 91 32 36 95 65 141 65 37 0 69 -25 83 -64 10
-28 -12 -120 -35 -149 -17 -23 -27 -25 -117 -29 l-98 -3 -80 -71 c-43 -39 -94
-85 -113 -101 -44 -38 -37 -65 24 -89 37 -14 63 -16 149 -10 125 9 146 1 146
-48 0 -30 -15 -49 -126 -163 -189 -193 -234 -251 -234 -307 0 -56 101 -91 184
-63 33 11 66 36 116 88 38 40 70 76 70 81 0 4 15 25 34 45 18 21 46 63 61 93
15 30 40 69 55 85 15 17 35 53 44 80 20 64 42 95 65 95 23 0 30 -17 38 -89 7
-72 -12 -163 -39 -187 -11 -11 -35 -49 -53 -85 -19 -36 -45 -80 -59 -97 -15
-16 -33 -47 -42 -67 -22 -54 -156 -208 -212 -244 -27 -17 -58 -41 -68 -52 -10
-12 -41 -33 -69 -46 -27 -14 -63 -36 -80 -49 -16 -12 -61 -34 -98 -47 -38 -14
-79 -35 -92 -47 -14 -13 -71 -37 -132 -55 -59 -18 -137 -46 -173 -61 -62 -27
-73 -29 -210 -29 -169 0 -174 2 -264 93 -53 55 -59 65 -64 111 -4 46 0 61 47
154 28 57 62 114 76 127 15 14 25 35 25 51 0 23 -11 36 -62 71 -35 23 -87 50
-117 60 -62 21 -91 43 -91 70 0 31 35 55 99 66 69 12 184 72 208 108 44 68 31
146 -31 179 -32 17 -38 17 -170 -5 -75 -12 -155 -20 -177 -17 -53 7 -89 32
-89 61 0 46 84 168 216 315 55 61 67 107 58 226 -7 102 3 147 38 166 10 5 78
14 151 19 161 11 190 19 238 66 63 61 167 78 304 49z m1016 -502 c14 -37 5
-168 -14 -216 -11 -25 -22 -37 -36 -37 -16 0 -21 9 -27 46 -8 56 2 174 18 209
15 33 46 32 59 -2z m-137 -1263 c30 -11 50 -45 42 -73 -8 -31 -119 -110 -191
-136 -33 -12 -77 -33 -97 -46 -20 -13 -67 -34 -105 -46 -37 -12 -89 -37 -115
-55 -26 -18 -71 -40 -100 -50 -29 -9 -71 -30 -93 -46 -22 -16 -69 -37 -105
-48 -36 -11 -90 -35 -120 -55 -30 -19 -59 -35 -65 -35 -6 0 -43 -16 -84 -35
-79 -38 -131 -44 -152 -19 -18 22 -17 87 1 109 33 39 144 115 193 131 29 9 75
31 102 50 28 18 75 42 106 53 31 10 75 33 98 49 24 17 66 39 94 48 29 9 71 30
93 45 23 16 68 38 100 50 33 12 78 36 102 52 71 51 231 82 296 57z"/>
<path d="M3293 5000 c-12 -5 -27 -18 -33 -30 -6 -11 -33 -35 -61 -51 -27 -17
-54 -39 -59 -50 -6 -10 -30 -29 -53 -40 -23 -12 -59 -36 -80 -54 -54 -46 -107
-58 -234 -53 -131 6 -184 28 -271 117 -46 47 -70 62 -124 80 -37 12 -83 35
-104 52 -49 39 -79 37 -174 -11 -119 -60 -128 -95 -32 -130 114 -40 130 -57
86 -87 -23 -15 -56 -19 -196 -23 -116 -3 -171 -9 -180 -18 -9 -9 -12 -68 -13
-228 0 -206 1 -217 20 -227 14 -8 139 -14 395 -17 359 -5 377 -6 422 -27 47
-21 61 -39 72 -94 8 -38 146 -156 193 -165 44 -8 212 11 227 26 7 7 7 15 1 24
-6 8 -25 36 -43 63 -20 29 -49 57 -76 72 -54 28 -65 50 -36 73 34 28 68 30
406 26 313 -4 365 -9 399 -40 14 -12 -6 -23 -87 -48 -126 -38 -129 -70 -12
-110 32 -11 70 -31 84 -44 14 -13 45 -34 70 -46 25 -13 64 -40 87 -61 52 -48
74 -53 182 -46 101 8 165 27 169 52 6 26 -84 114 -145 141 -28 13 -72 39 -97
57 -24 19 -75 44 -113 56 -100 31 -100 31 -73 85 20 43 21 53 12 129 -10 91
-10 181 2 272 12 92 10 93 -209 97 -196 4 -238 14 -233 52 3 21 4 22 143 63
69 21 80 40 40 77 -36 33 -98 61 -170 76 -33 7 -64 14 -70 16 -5 1 -20 -1 -32
-6z m136 -431 c58 -12 91 -45 91 -91 0 -40 -15 -65 -53 -85 -29 -17 -83 -18
-677 -21 -355 -1 -655 0 -667 3 -29 7 -53 53 -53 100 0 39 22 90 42 98 27 11
1267 7 1317 -4z"/>
<path d="M1593 4139 c-66 -12 -83 -26 -115 -97 -17 -37 -45 -83 -63 -103 -34
-38 -52 -101 -40 -139 10 -33 64 -50 155 -50 94 0 110 6 141 57 12 21 31 47
41 59 35 39 115 211 106 227 -18 32 -151 59 -225 46z"/>
<path d="M2115 4121 c-44 -19 -46 -30 -35 -176 6 -75 15 -146 21 -156 11 -22
83 -61 147 -79 84 -26 71 -47 -65 -104 -53 -22 -77 -26 -163 -26 -70 0 -112 5
-138 16 -20 9 -71 18 -112 21 -121 9 -175 -26 -156 -102 13 -51 -18 -50 1023
-55 l972 -5 23 -23 23 -23 3 -394 c3 -417 0 -453 -42 -502 -22 -26 -29 -27
-140 -33 -100 -6 -120 -10 -138 -27 -28 -28 -17 -67 25 -94 29 -18 44 -20 152
-15 217 9 343 23 378 43 20 12 42 38 59 73 l28 55 1 534 c1 479 -1 535 -15
550 -14 14 -55 17 -274 22 -206 4 -268 9 -312 23 -57 18 -78 31 -68 42 4 3 53
19 110 36 139 41 228 106 228 165 0 30 -25 42 -112 53 -40 5 -88 14 -107 19
-41 12 -63 2 -139 -63 -29 -25 -69 -51 -90 -57 -40 -14 -640 -25 -699 -14 -18
3 -48 21 -68 39 -40 38 -46 80 -19 131 31 57 34 83 14 107 -17 22 -26 23 -157
25 -76 2 -147 -1 -158 -6z"/>
<path d="M1363 3325 c-42 -30 -20 -91 41 -115 35 -13 1984 -12 2010 2 35 18
66 50 66 69 0 10 -12 27 -27 39 -25 20 -35 22 -103 16 -92 -8 -1726 -8 -1865
0 -83 5 -104 3 -122 -11z"/>
<path d="M1755 3039 l-29 -27 13 -53 c17 -64 16 -210 -1 -297 -10 -55 -10 -67
4 -90 28 -45 73 -62 165 -62 45 0 89 3 98 6 9 4 25 23 35 44 11 21 32 48 47
59 26 21 32 22 379 19 l353 -3 29 -28 c38 -37 79 -47 187 -47 161 0 195 23
169 110 -9 29 -14 97 -14 193 0 209 27 192 -321 201 -151 4 -456 6 -679 4
l-405 -3 -30 -26z m1095 -105 c22 -9 45 -25 50 -35 17 -31 11 -77 -14 -106
l-24 -28 -385 -3 c-436 -3 -423 -5 -434 75 -6 48 13 88 50 103 12 5 178 9 369
9 298 1 353 -1 388 -15z"/>
<path d="M2636 2345 c-21 -7 -53 -27 -70 -43 -17 -16 -42 -35 -54 -42 -13 -6
-40 -27 -61 -45 -20 -18 -57 -41 -81 -51 -25 -9 -61 -29 -80 -44 -48 -36 -66
-45 -127 -60 -29 -6 -72 -25 -96 -41 -25 -16 -85 -39 -138 -53 -52 -14 -119
-36 -149 -50 -30 -14 -106 -34 -168 -45 -142 -25 -299 -76 -332 -107 -31 -30
-22 -50 36 -79 34 -18 59 -20 206 -20 l167 0 33 32 c39 37 58 45 188 78 55 13
116 35 137 49 21 14 75 34 120 45 45 11 100 32 123 47 22 15 71 37 110 50 38
12 86 36 107 53 21 16 63 39 95 51 31 11 62 28 69 36 21 26 66 44 107 44 29 0
48 -8 78 -33 21 -19 65 -45 96 -60 32 -14 72 -37 90 -50 18 -14 44 -28 58 -32
14 -4 71 -27 128 -51 56 -25 135 -52 175 -61 39 -9 95 -26 122 -38 68 -31 72
-32 231 -60 76 -13 168 -33 204 -45 36 -11 99 -24 140 -27 72 -5 77 -4 109 23
19 16 57 40 85 54 91 45 60 100 -56 100 -97 0 -251 21 -370 51 -65 16 -168 39
-230 50 -69 12 -137 31 -174 49 -33 16 -92 36 -130 45 -45 10 -87 28 -118 50
-27 19 -71 42 -100 51 -63 20 -82 36 -112 95 -27 54 -60 73 -154 88 -88 15
-167 13 -214 -4z"/>
<path d="M6845 1680 c-41 -19 -74 -45 -105 -81 -39 -46 -47 -64 -62 -138 -23
-116 -23 -125 12 -165 60 -68 163 -55 200 26 11 24 20 50 20 59 0 9 16 37 35
62 38 49 75 134 75 170 0 28 -69 97 -95 96 -11 0 -47 -13 -80 -29z"/>
<path d="M6360 1403 c-39 -16 -49 -26 -75 -78 -52 -105 -35 -222 40 -271 21
-14 27 -14 57 2 18 9 69 53 112 97 120 122 140 196 66 241 -44 25 -145 30
-200 9z"/>
<path d="M7358 1399 c-46 -16 -67 -32 -107 -78 -60 -69 -71 -95 -71 -164 0
-88 44 -139 121 -141 29 0 46 6 71 30 18 16 65 51 105 77 76 51 94 77 115 166
10 45 9 53 -7 71 -16 17 -76 40 -145 54 -14 3 -51 -4 -82 -15z"/>
<path d="M5857 1266 c-53 -16 -61 -35 -54 -129 7 -87 23 -122 63 -137 39 -15
103 -12 134 7 61 36 90 146 55 212 -28 54 -111 74 -198 47z"/>
<path d="M6100 4003 c-8 -3 -27 -14 -41 -24 -15 -11 -56 -26 -90 -35 -76 -19
-96 -35 -109 -85 -21 -77 13 -105 145 -115 52 -5 92 -1 157 14 65 16 94 19
119 12 62 -18 87 -12 134 31 36 33 45 48 45 75 0 28 -7 39 -42 65 -77 56 -97
62 -203 66 -55 1 -107 0 -115 -4z"/>
<path d="M5832 3603 c-15 -11 -25 -33 -29 -59 -4 -33 -1 -45 20 -70 l25 -29
215 0 c197 0 217 2 236 19 28 25 27 48 -5 86 -50 58 -72 64 -264 68 -159 4
-178 2 -198 -15z"/>
</g>
</svg>
