<?xml version="1.0" standalone="no"?>
<!DOCTYPE svg PUBLIC "-//W3C//DTD SVG 20010904//EN"
 "http://www.w3.org/TR/2001/REC-SVG-20010904/DTD/svg10.dtd">
<svg version="1.0" xmlns="http://www.w3.org/2000/svg"
 width="915.000000pt" height="600.000000pt" viewBox="0 0 915.000000 600.000000"
 preserveAspectRatio="xMidYMid meet">
<metadata>
Created by potrace 1.15, written by Peter Selinger 2001-2017
</metadata>
<g transform="translate(0.000000,600.000000) scale(0.100000,-0.100000)"
fill="#000000" stroke="none">
<path d="M0 3000 l0 -3000 4575 0 4575 0 0 3000 0 3000 -4575 0 -4575 0 0
-3000z m5636 2057 c10 -27 -35 -121 -71 -150 -20 -16 -48 -55 -65 -90 -55
-112 -97 -170 -145 -198 -25 -14 -56 -35 -68 -46 -12 -12 -42 -31 -67 -43 -25
-12 -81 -45 -124 -74 -64 -41 -82 -59 -97 -94 -27 -62 -24 -90 16 -149 25 -37
51 -60 92 -83 32 -17 84 -55 117 -86 l59 -55 -7 -57 c-5 -42 -2 -71 9 -102 9
-25 19 -72 22 -106 5 -59 4 -62 -29 -100 -19 -21 -45 -55 -58 -74 -13 -19 -42
-56 -64 -81 -68 -76 -108 -156 -114 -222 -4 -52 -2 -61 20 -85 14 -15 34 -40
44 -57 10 -16 31 -45 46 -63 28 -33 28 -34 23 -140 -5 -102 -4 -109 22 -162
24 -46 36 -59 80 -80 96 -47 93 -40 92 -229 -2 -155 0 -171 24 -241 17 -49 36
-83 54 -98 15 -13 49 -40 75 -62 26 -21 73 -48 105 -59 87 -32 100 -40 130
-84 27 -38 28 -46 28 -156 0 -113 -1 -118 -33 -172 -33 -57 -102 -124 -179
-172 -24 -15 -51 -44 -62 -64 -10 -21 -33 -56 -50 -77 -17 -21 -36 -57 -42
-80 -6 -23 -18 -62 -26 -87 l-16 -45 39 -67 c40 -68 65 -83 83 -49 5 10 27 30
48 45 21 15 47 41 57 59 11 18 32 48 48 66 15 18 39 55 53 82 26 51 57 80 87
80 16 0 18 -11 18 -102 0 -126 10 -148 70 -165 85 -25 154 9 185 91 19 50 15
71 -24 133 -34 56 -64 67 -151 59 l-70 -7 0 31 c0 48 36 77 106 84 136 15 141
16 224 72 46 30 98 68 117 85 19 16 55 40 81 53 26 12 64 34 85 49 21 14 61
33 90 43 29 9 67 28 86 42 18 14 61 33 95 44 33 10 88 34 121 52 33 19 87 42
120 51 33 9 88 32 122 51 33 19 89 41 123 50 34 9 77 24 94 35 42 26 62 24
125 -14 44 -26 63 -47 101 -109 41 -69 49 -94 78 -230 37 -177 62 -325 62
-368 0 -45 34 -105 68 -119 43 -18 98 7 117 53 26 63 20 212 -15 341 -17 61
-39 159 -49 217 -13 73 -28 121 -49 159 -17 30 -40 82 -51 117 -10 34 -31 78
-45 96 -14 19 -35 59 -47 90 -11 31 -38 77 -59 101 -21 25 -47 58 -56 74 -10
16 -28 35 -42 42 -13 7 -33 27 -45 44 -12 16 -36 44 -54 61 -42 40 -41 62 1
113 19 23 44 66 55 97 12 30 35 81 52 113 23 46 36 96 58 227 16 93 38 197 50
231 12 34 21 86 21 115 0 69 16 125 43 152 12 12 47 27 77 34 40 9 71 25 110
57 30 25 58 45 62 45 3 0 27 29 52 64 109 153 83 267 -102 449 -108 107 -162
152 -208 175 -23 12 -55 32 -71 46 -17 14 -52 35 -79 46 -27 12 -60 32 -74 45
-14 13 -57 38 -95 56 -39 17 -85 42 -103 56 -17 13 -58 33 -90 44 -31 11 -75
32 -97 48 -22 16 -73 40 -113 55 -41 14 -94 38 -118 52 -24 14 -76 36 -116 48
-65 19 -77 27 -110 71 -21 28 -38 53 -38 57 0 15 210 19 920 16 620 -2 760 -5
782 -17 62 -32 58 118 58 -2103 0 -1586 -3 -2028 -13 -2047 -6 -13 -25 -34
-40 -45 l-28 -21 -1432 -2 c-788 -2 -1450 0 -1472 2 l-40 5 3 528 c2 289 0
537 -3 549 -10 43 -51 53 -210 53 -142 0 -147 -1 -171 -25 l-25 -25 3 -540 3
-540 -30 -5 c-60 -10 -2924 0 -2934 10 -13 13 52 103 84 115 13 5 65 16 116
25 50 9 125 29 166 46 41 16 126 38 188 49 123 20 149 30 165 60 23 43 -16
146 -58 157 -37 9 -218 -34 -284 -68 -46 -23 -163 -49 -224 -49 -37 0 -51 6
-76 30 l-30 30 4 208 c3 133 9 219 17 240 22 55 57 66 206 64 72 -1 142 -5
157 -8 25 -5 81 -70 158 -184 64 -95 259 -252 360 -291 19 -7 57 -28 83 -46
27 -18 68 -38 90 -44 23 -5 67 -26 98 -44 37 -23 87 -41 148 -54 51 -11 118
-32 149 -45 66 -30 113 -41 234 -56 103 -12 159 -31 200 -65 40 -34 69 -32 92
6 10 17 40 46 67 66 28 19 56 47 63 62 8 14 23 35 35 45 24 22 27 41 9 53 -7
4 -60 11 -118 15 -307 19 -391 32 -481 72 -31 14 -85 30 -120 36 -84 15 -99
24 -99 60 0 22 8 34 28 46 15 9 50 32 78 50 27 19 76 43 107 53 31 11 72 31
91 46 18 14 61 35 94 46 82 28 99 47 83 98 -23 77 7 91 185 83 143 -6 187 5
210 50 20 39 11 92 -21 124 l-25 24 -1000 0 c-934 -1 -1002 0 -1030 17 -53 31
-49 63 11 87 35 14 131 16 807 16 886 0 835 -5 840 85 4 62 -11 83 -63 95 -23
5 -372 10 -796 10 -526 0 -766 3 -788 11 -17 6 -36 20 -42 31 -9 17 -6 25 15
47 l26 26 653 0 c358 0 722 -4 808 -9 l157 -9 26 26 c33 33 37 111 7 148 l-19
24 -813 3 c-882 3 -865 2 -857 55 6 45 22 46 921 46 541 1 855 5 867 11 48 26
47 144 -2 168 -13 6 -75 13 -138 15 -81 3 -125 9 -148 21 -38 20 -39 24 -10
71 20 35 21 41 10 143 -17 153 -16 195 7 223 19 24 20 24 291 29 l272 5 24 28
c34 40 34 108 -1 143 -24 24 -30 25 -108 20 -231 -15 -409 -18 -438 -6 -49 21
-61 58 -57 171 3 92 5 100 31 126 l27 28 148 0 c81 0 176 -4 212 -9 59 -7 67
-6 88 13 30 30 32 121 2 151 -23 23 -3 22 -258 23 l-204 2 -24 28 c-21 25 -24
37 -24 117 0 80 3 92 24 117 l24 28 251 5 c244 5 251 6 273 28 29 29 31 111 4
141 -17 19 -34 20 -268 23 -312 4 -288 -12 -288 192 0 185 4 180 -132 184 -70
2 -111 -2 -128 -10 -50 -27 -50 -31 -48 -1008 l3 -905 23 -32 c12 -17 22 -36
22 -42 0 -5 -24 -17 -52 -26 -46 -14 -150 -17 -742 -21 -714 -5 -728 -6 -752
-46 -4 -6 -6 -181 -5 -387 2 -244 -1 -386 -8 -403 -6 -16 -25 -37 -43 -48 -31
-19 -51 -20 -291 -20 -274 0 -313 -6 -336 -48 -27 -51 -8 -104 49 -138 8 -5
126 -11 262 -14 278 -6 274 -4 289 -82 4 -23 8 -153 9 -287 l0 -244 -51 -47
c-48 -44 -51 -50 -45 -81 4 -19 9 -57 12 -85 6 -47 4 -53 -21 -72 -27 -21 -36
-22 -321 -22 -319 0 -312 -1 -336 59 -6 17 -9 731 -9 2069 1 2163 0 2088 43
2105 7 3 1067 6 2356 6 1950 1 2343 -1 2348 -12z m575 -206 c30 -10 89 -26
131 -35 42 -9 94 -29 115 -43 21 -14 67 -36 103 -48 36 -12 90 -36 120 -53 30
-16 79 -38 109 -47 29 -10 71 -33 91 -51 21 -19 63 -43 94 -54 31 -10 73 -32
93 -48 21 -16 58 -37 83 -46 24 -10 65 -32 90 -50 25 -18 60 -38 78 -46 18 -7
49 -26 70 -43 20 -16 62 -41 92 -54 30 -14 69 -37 85 -52 17 -15 47 -38 67
-50 20 -12 46 -36 57 -54 12 -18 29 -45 40 -60 25 -39 18 -57 -45 -117 l-55
-52 -97 4 c-92 3 -100 5 -165 43 -37 22 -89 57 -115 78 -30 24 -73 45 -117 58
-38 12 -91 34 -117 51 -26 16 -83 40 -127 54 -44 13 -83 29 -86 34 -10 17 -77
46 -132 59 -28 7 -74 28 -103 46 -29 18 -83 41 -123 51 -75 17 -105 30 -147
64 -14 10 -61 29 -105 40 -44 12 -100 34 -125 49 -25 15 -69 36 -98 45 -52 18
-163 100 -182 136 -15 27 -12 87 5 120 14 27 26 34 140 74 60 22 210 20 276
-3z m-487 -472 c49 -39 26 -110 -42 -129 -72 -20 -164 -6 -176 26 -11 28 42
102 84 117 38 14 108 7 134 -14z m619 -260 c21 -6 59 -23 83 -39 25 -15 77
-36 116 -45 84 -21 126 -54 134 -106 5 -31 1 -41 -35 -83 -36 -41 -41 -54 -41
-94 0 -69 20 -92 79 -92 36 0 57 7 82 25 19 14 47 33 63 42 16 10 51 37 78 61
44 38 53 42 103 42 42 0 60 -5 75 -20 35 -35 22 -153 -23 -206 -20 -23 -31
-26 -103 -29 -44 -2 -97 -10 -117 -18 -43 -18 -169 -122 -187 -154 -18 -32 -1
-65 43 -86 44 -21 86 -21 162 -2 73 19 102 14 111 -21 13 -51 -46 -135 -199
-284 -147 -143 -178 -212 -117 -263 48 -40 79 -42 151 -9 51 24 76 44 124 102
33 40 78 93 101 119 22 25 46 61 53 78 8 18 29 54 47 80 19 27 41 71 50 100 8
28 24 63 35 77 23 29 54 34 63 10 10 -26 7 -186 -5 -227 -10 -39 -101 -181
-145 -227 -13 -14 -31 -47 -40 -73 -26 -76 -216 -272 -311 -320 -26 -14 -59
-37 -72 -51 -13 -14 -45 -32 -71 -41 -25 -8 -71 -31 -101 -51 -30 -19 -79 -41
-109 -50 -30 -8 -89 -30 -130 -49 -91 -42 -131 -52 -282 -65 -98 -9 -128 -8
-185 5 -84 20 -98 29 -152 99 -40 51 -44 63 -45 114 -1 50 5 67 45 137 91 158
99 174 99 194 0 28 -37 53 -126 87 -88 33 -134 70 -134 108 0 33 35 51 115 60
116 13 205 94 205 188 0 41 -5 54 -29 79 -21 20 -39 29 -63 29 -49 0 -203 -27
-226 -39 -33 -18 -87 -13 -123 12 -48 32 -50 69 -7 135 74 115 127 187 184
253 50 57 58 92 49 215 -7 90 -6 93 17 117 28 28 123 52 168 44 36 -8 216 55
249 87 47 45 81 56 171 56 47 0 102 -5 123 -11z m1028 -500 c7 -15 9 -46 5
-93 -10 -98 -23 -144 -46 -156 -17 -9 -22 -7 -31 17 -15 39 -8 216 10 236 19
23 48 21 62 -4z m-119 -1276 c33 -30 23 -66 -35 -120 -39 -37 -68 -55 -108
-67 -31 -8 -73 -28 -95 -42 -21 -15 -64 -35 -94 -46 -30 -10 -74 -32 -97 -49
-24 -16 -67 -38 -97 -49 -30 -10 -74 -30 -98 -44 -24 -13 -74 -36 -113 -51
-38 -14 -90 -39 -115 -55 -25 -16 -68 -38 -96 -48 -28 -11 -81 -37 -118 -56
-111 -59 -186 -42 -173 38 9 53 32 81 100 116 34 19 76 43 92 55 17 12 57 32
90 44 33 12 78 34 100 50 22 15 64 36 93 45 29 10 74 32 100 50 26 18 70 41
99 50 28 9 70 30 93 47 22 16 70 40 105 53 36 13 80 35 98 49 45 34 87 45 176
46 56 1 79 -3 93 -16z m-3887 -597 c14 -4 25 -13 25 -22 0 -27 -103 -114 -176
-149 -40 -18 -75 -38 -79 -44 -11 -19 -83 -51 -133 -60 -70 -14 -127 0 -170
41 -21 19 -59 50 -86 68 -76 51 -109 149 -56 168 23 9 640 7 675 -2z m1711
-853 c26 -35 17 -53 -25 -53 -49 0 -56 10 -30 44 24 30 37 33 55 9z"/>
<path d="M2656 4890 c-57 -11 -68 -31 -63 -115 3 -38 10 -90 15 -114 24 -108
-11 -130 -219 -136 -84 -3 -160 -7 -170 -10 -9 -3 -24 -21 -34 -40 -24 -52
-55 -69 -107 -59 -24 4 -73 7 -110 5 -61 -2 -70 0 -93 23 -25 25 -25 26 -24
196 1 197 -6 220 -65 220 -18 0 -55 7 -82 15 -68 21 -110 19 -135 -6 -19 -19
-20 -27 -13 -204 l7 -183 -25 -25 c-36 -36 -113 -49 -230 -41 -135 9 -178 -13
-178 -92 0 -72 47 -94 207 -94 132 -1 191 -11 210 -36 9 -12 13 -52 13 -118
-1 -158 -31 -207 -141 -226 -30 -5 -94 -17 -144 -25 -97 -17 -135 -35 -135
-63 0 -40 33 -125 60 -155 l28 -32 49 24 c66 32 138 51 200 51 80 0 86 -17 81
-234 -4 -240 -15 -255 -204 -267 -124 -9 -154 -19 -154 -52 0 -36 87 -144 126
-157 38 -13 280 11 360 35 44 13 127 79 151 119 9 15 12 102 13 309 0 367 -3
360 179 416 54 17 104 38 111 46 7 8 15 35 18 60 3 35 0 50 -13 65 -25 28
-110 27 -168 -1 -60 -29 -90 -21 -111 31 -9 23 -16 69 -16 105 0 53 4 69 24
92 24 28 25 28 125 25 l101 -3 29 31 c16 18 37 41 46 52 15 18 25 20 86 14 37
-4 104 -2 148 4 96 13 150 2 180 -37 18 -22 21 -40 21 -123 0 -80 -3 -100 -17
-113 -30 -26 -108 -40 -188 -34 -80 7 -130 -4 -145 -33 -18 -33 -12 -95 12
-125 l22 -28 95 7 c109 7 162 -4 197 -39 22 -22 24 -32 24 -122 0 -111 -10
-136 -66 -159 -41 -17 -180 -18 -327 -2 -102 11 -109 10 -135 -9 -21 -15 -28
-30 -30 -63 -8 -112 10 -120 278 -120 203 0 255 -8 275 -41 13 -20 7 -101 -10
-142 -9 -21 -17 -65 -18 -97 -2 -69 15 -94 72 -110 52 -14 156 -12 196 4 58
25 69 76 38 186 -15 57 -15 64 0 114 15 47 17 126 17 752 0 439 4 723 11 764
14 87 8 107 -39 119 -42 12 -157 13 -216 1z"/>
<path d="M6853 1667 c-35 -13 -124 -100 -147 -145 -27 -53 -36 -136 -21 -194
17 -67 51 -98 107 -98 35 0 47 6 78 38 20 21 44 61 55 88 10 27 33 77 52 112
78 149 15 249 -124 199z"/>
<path d="M6352 1379 c-28 -8 -38 -20 -60 -67 -39 -85 -41 -162 -7 -235 38 -80
58 -83 130 -20 31 26 65 62 75 78 11 17 32 39 49 50 36 23 51 53 58 115 5 42
3 49 -22 68 -24 19 -40 22 -109 21 -44 0 -96 -5 -114 -10z"/>
<path d="M7354 1381 c-17 -4 -36 -11 -42 -15 -13 -8 -95 -115 -110 -142 -31
-59 -20 -175 18 -206 26 -21 81 -32 115 -24 14 4 37 20 52 37 15 16 53 44 85
61 90 48 142 143 123 227 -9 40 -20 47 -89 60 -66 12 -106 13 -152 2z"/>
<path d="M6110 3963 c-19 -8 -64 -19 -100 -24 -36 -5 -73 -12 -82 -15 -23 -7
-88 -105 -88 -133 0 -37 58 -55 180 -54 215 1 365 9 387 21 30 17 53 63 53
106 0 44 -20 59 -123 91 -89 28 -174 31 -227 8z"/>
<path d="M5929 3616 c-111 -30 -168 -120 -102 -163 22 -14 59 -19 212 -24 191
-6 230 -2 262 27 46 42 -3 107 -89 120 -26 3 -73 17 -104 30 -63 26 -109 29
-179 10z"/>
</g>
</svg>
